<svg width="338" height="150" viewBox="0 0 338 150" fill="none" xmlns="http://www.w3.org/2000/svg">
<path d="M36.1155 37.9064V30.9401M36.1155 37.9064V60.2718M36.1155 37.9064H48.868M61.6205 37.9064V30.9401M61.6205 37.9064V60.2718M61.6205 37.9064H48.868M36.1155 82.6372V30.9401M36.1155 82.6372L25.7657 82.6372M36.1155 82.6372V89.6034H48.868M36.1155 82.6372V60.2718M36.1155 82.6372H48.868M36.1155 82.6372V101.961M61.6205 82.6372V89.6034H48.868M61.6205 82.6372V60.2718M61.6205 82.6372H48.868M144.419 77.5352V57.7208M169.924 77.5352V57.7208M25.7657 30.9401H36.1155M25.7657 30.9401V82.6372M25.7657 30.9401H12.4587V140.201M25.7657 30.9401V140.201M36.1155 30.9401H61.6205M25.7657 82.6372V140.201M25.7657 140.201H12.4587M25.7657 140.201H36.1155V127.473M12.4587 140.201V149H125.937M12.4587 140.201H48.868M61.6205 30.9401H90.0825M61.6205 30.9401V60.2718M90.0825 30.9401H112.63M90.0825 30.9401L90.0825 37.9064H101.356M90.0825 30.9401V60.2718M112.63 30.9401H125.937V140.201M112.63 30.9401V37.9064H101.356M112.63 30.9401V60.2718M125.937 140.201H112.63V127.473M125.937 140.201V149M125.937 140.201H101.691M193.951 30.9401V77.1375M125.937 149H133.7M125.937 149V93.2699M125.937 93.2699H133.7V142.129M125.937 93.2699H337V77.1375H157.171M125.937 93.2699V77.1375H157.171M133.7 149H183.601M133.7 149V145.564M197.647 149V141.667H183.601V142.129M197.647 149H183.601M197.647 149H315.191M183.601 149V145.564M315.191 149H335.891V141.667H315.191V149ZM185.079 138.991L133.7 138.734V142.129M133.7 142.129V143.5V145.564M133.7 142.129H183.601M133.7 142.129V145.564M183.601 142.129V145.564M183.601 145.564H133.7M36.1155 60.2718H61.6205M61.6205 60.2718V101.961M48.868 37.9064V82.6372M48.868 89.6034V140.201M48.868 140.201H101.691M36.1155 101.961H61.6205M36.1155 101.961V127.473M61.6205 101.961V127.473M36.1155 127.473H61.6205M61.6205 127.473V140.201H90.0825V127.473M90.0825 60.2718H112.63M90.0825 60.2718V82.6372M112.63 60.2718V82.6372M90.0825 82.6372H112.63M90.0825 82.6372V89.6034M112.63 82.6372V89.6034M90.0825 89.6034H112.63M90.0825 89.6034V101.961M112.63 89.6034V101.961M90.0825 101.961H112.63M90.0825 101.961V127.473M112.63 101.961V127.473M90.0825 127.473H112.63M101.691 140.201L101.356 37.9064M144.419 57.7208V37.9063H157.171M144.419 57.7208H169.924M169.924 57.7208V37.9063H157.171M157.171 37.9063V77.1375M196.168 113.36V102.803H251.244V113.36M196.168 113.36H251.244M196.168 113.36V127.514M251.244 113.36V127.514M196.168 127.514H251.244M196.168 127.514V138.991M251.244 127.514V138.991M196.168 138.991V141.667H185.079V93.2699L333.673 93.2699V141.667H317.409V138.991M196.168 138.991H251.244M251.244 138.991V141.667H260.116V138.991M260.116 138.991H317.409M260.116 138.991V127.514M317.409 138.991V127.514M260.116 127.514H317.409M260.116 127.514V113.36M317.409 127.514V113.36M260.116 113.36V102.803H317.409V113.36M260.116 113.36H317.409M85.2736 19.9981H205.04V30.9401H1V19.9981H73.7818M85.2736 19.9981V1H73.7818V19.9981M85.2736 19.9981H73.7818M161 138.734L165.557 138.802V102.504L147.746 102.436V138.734H161ZM161 138.734V105.675H157.171V138.734M250.135 141.667H261.224V149H250.135V141.667Z" stroke="#725D4C" stroke-width="2"/>
</svg>
