<svg width="244" height="244" viewBox="0 0 244 244" fill="none" xmlns="http://www.w3.org/2000/svg">
<rect x="0.5" y="0.5" width="243" height="243" rx="121.5" stroke="url(#paint0_linear_586_809)"/>
<path d="M106.151 93.7627L106.151 93.7627C100.012 92.9918 95.0855 93.8101 91.1453 95.6293C87.2073 97.4476 84.3186 100.236 82.207 103.308C78.0045 109.422 76.839 116.717 76.5299 120.023L76.5299 120.023L76.5293 120.03C76.4175 121.322 76.3792 122.622 76.4407 123.927L76.4643 163H66.5137V123.906C66.5976 110.478 71.6711 102.455 78.6697 97.7403C85.7357 92.9803 94.9029 91.5 103.285 91.5C111.666 91.5 120.833 92.9803 127.899 97.7389C134.898 102.452 139.971 110.472 140.055 123.893V162.988H130.08V123.908C130.129 119.362 129.525 112.528 126.216 106.469C122.872 100.348 116.808 95.1017 106.151 93.7627Z" stroke="#725D4C" stroke-width="2"/>
<path d="M114.465 123.611L114.488 162.319H104.649V123.59C104.732 110.287 109.757 102.343 116.687 97.6762C123.685 92.9638 132.765 91.5 141.068 91.5C149.37 91.5 158.45 92.9667 165.448 97.6805C172.378 102.349 177.403 110.293 177.486 123.589V162.319H167.622V123.592C167.671 119.087 167.073 112.314 163.793 106.308C160.479 100.24 154.469 95.0393 143.909 93.7121L143.909 93.7121C137.826 92.948 132.943 93.759 129.038 95.5625C125.135 97.3651 122.272 100.13 120.179 103.175C116.014 109.235 114.859 116.465 114.553 119.742L114.553 119.742L114.553 119.749C114.442 121.029 114.404 122.317 114.465 123.611Z" stroke="#725D4C" stroke-width="2"/>
<path d="M95.3927 95.317L95.3923 95.3219C95.2825 96.6052 95.2449 97.8957 95.3053 99.1918L95.3287 162.319H85.5693V99.1712C85.6517 85.8366 90.6352 77.8716 97.5027 73.1932C104.436 68.4699 113.432 67 121.66 67C129.887 67 138.883 68.4699 145.817 73.1932C152.684 77.8717 157.668 85.8368 157.75 99.1718V162.319H147.99V99.1735C148.038 94.6586 147.446 87.871 144.196 81.8522C140.912 75.7712 134.953 70.554 124.478 69.2226C118.451 68.4562 113.611 69.2696 109.74 71.0791C105.871 72.8874 103.033 75.6599 100.96 78.7119C96.8346 84.7859 95.6902 92.0318 95.3927 95.317Z" stroke="#725D4C" stroke-width="2"/>
<defs>
<linearGradient id="paint0_linear_586_809" x1="107.072" y1="-71.7162" x2="246.357" y2="216.219" gradientUnits="userSpaceOnUse">
<stop stop-color="#725D4C"/>
<stop offset="0.38" stop-color="#F7D98F"/>
<stop offset="0.58" stop-color="#FFEBC2"/>
<stop offset="0.82" stop-color="#725D4C"/>
</linearGradient>
</defs>
</svg>
