<svg width="14" height="17" viewBox="0 0 14 17" fill="none" xmlns="http://www.w3.org/2000/svg">
<path d="M2.05034 2.28639C3.36309 0.978917 5.14355 0.244385 7.00005 0.244385C8.85655 0.244385 10.637 0.978917 11.9498 2.28639C13.2625 3.59387 14 5.36719 14 7.21624C14 9.06529 13.2625 10.8386 11.9498 12.1461L10.9955 13.0861C10.2921 13.7731 9.37964 14.657 8.25738 15.738C7.92007 16.0628 7.46924 16.2444 7.00005 16.2444C6.53086 16.2444 6.08003 16.0628 5.74273 15.738L2.93626 13.0188C2.58253 12.6737 2.2883 12.3831 2.05034 12.1461C1.40031 11.4987 0.884667 10.7301 0.532868 9.88427C0.181069 9.0384 0 8.1318 0 7.21624C0 6.30067 0.181069 5.39407 0.532868 4.5482C0.884667 3.70234 1.40031 2.93377 2.05034 2.28639ZM11.0968 3.13512C10.5587 2.59924 9.9199 2.17416 9.21686 1.88416C8.51382 1.59416 7.76031 1.44492 6.99937 1.44495C6.23842 1.44499 5.48492 1.59431 4.78191 1.88438C4.0789 2.17444 3.44014 2.59958 2.90209 3.13552C2.36404 3.67146 1.93725 4.30771 1.64608 5.00792C1.35492 5.70814 1.20507 6.45862 1.20511 7.21652C1.20515 7.97442 1.35506 8.72488 1.6463 9.42507C1.93754 10.1253 2.36439 10.7615 2.90249 11.2973L4.09872 12.4728C4.75632 13.1141 5.58436 13.9148 6.58121 14.8748C6.69362 14.9829 6.84378 15.0434 7.00005 15.0434C7.15632 15.0434 7.30648 14.9829 7.41889 14.8748L10.1482 12.2326C10.526 11.8634 10.842 11.552 11.0968 11.2973C12.1833 10.2152 12.7937 8.74744 12.7937 7.21704C12.7937 5.68663 12.1833 4.21891 11.0968 3.13673M7.00005 5.03356C7.31698 5.03356 7.6308 5.09573 7.9236 5.21653C8.2164 5.33732 8.48245 5.51438 8.70655 5.73758C8.93065 5.96078 9.10842 6.22576 9.2297 6.51738C9.35098 6.80901 9.41341 7.12157 9.41341 7.43723C9.41341 7.75288 9.35098 8.06544 9.2297 8.35707C9.10842 8.6487 8.93065 8.91368 8.70655 9.13688C8.48245 9.36008 8.2164 9.53713 7.9236 9.65793C7.6308 9.77872 7.31698 9.8409 7.00005 9.8409C6.36772 9.8294 5.76519 9.57115 5.32209 9.1217C4.879 8.67225 4.63074 8.06752 4.63074 7.43763C4.63074 6.80773 4.879 6.20301 5.32209 5.75356C5.76519 5.30411 6.36772 5.04585 7.00005 5.03436M7.00005 6.23539C6.67981 6.23539 6.37268 6.3621 6.14623 6.58764C5.91979 6.81317 5.79257 7.11907 5.79257 7.43803C5.79257 7.75699 5.91979 8.06288 6.14623 8.28842C6.37268 8.51396 6.67981 8.64066 7.00005 8.64066C7.3148 8.63257 7.61392 8.50236 7.83366 8.27778C8.0534 8.0532 8.17638 7.75201 8.17638 7.43843C8.17638 7.12484 8.0534 6.82366 7.83366 6.59908C7.61392 6.3745 7.3148 6.24428 7.00005 6.23619" fill="#8A8782"/>
</svg>
