<svg width="297" height="100" viewBox="0 0 297 100" fill="none" xmlns="http://www.w3.org/2000/svg">
<path d="M141.289 26.4087V37.6529C141.289 37.6529 137.212 28.3313 122.747 27.8486L122.673 67.8152L121.477 67.8318H115.773V27.8402C101.192 28.273 97.0903 37.6529 97.0903 37.6529V26.4087H141.289Z" fill="#E0DBC7"/>
<path d="M154.748 26.4084L154.665 67.8149L153.469 67.8316H147.765V26.4084H154.748Z" fill="#E0DBC7"/>
<path d="M205.44 26.4084V37.6527C205.44 37.6527 201.363 28.331 186.898 27.8483L186.824 67.8149L185.628 67.8316H179.924V27.84C165.343 28.2728 161.241 37.6527 161.241 37.6527V26.4084H205.44Z" fill="#E0DBC7"/>
<path d="M257.194 26.4084V47.1158C257.086 64.0779 244.465 67.765 234.111 67.765C223.757 67.765 211.136 64.0863 211.028 47.1158V26.4084H218.343V47.1158C218.285 52.6423 219.804 63.5369 232.425 65.1433C247.047 67.0076 249.472 53.4745 249.837 49.4629C249.904 48.6806 249.92 47.8982 249.895 47.1242L249.879 26.4168H257.194V26.4084Z" fill="#E0DBC7"/>
<path d="M297 58.8845V67.8399H269.35L269.383 67.8149H265.854V26.4001H272.838L272.763 66.8828C292.068 66.4333 297 58.8761 297 58.8761V58.8845Z" fill="#E0DBC7"/>
<path d="M7.94261 99.8661L5.54563 96.1072C5.10298 95.4375 4.7522 95.0022 4.49329 94.7845C4.22603 94.5668 3.81679 94.4664 3.24887 94.4664H1.31124V99.8744H0V88.0203H1.31959V93.219H3.05678C3.61635 93.219 4.03394 93.1186 4.3012 92.9093C4.56846 92.7 4.91924 92.2563 5.35353 91.5782L7.63359 88.0203H9.13692L6.53114 92.0303C6.15531 92.5828 5.863 92.9846 5.6375 93.2441C5.412 93.4953 5.17814 93.6795 4.94429 93.7967C5.24496 93.8971 5.52057 94.0813 5.76277 94.3492C6.00498 94.6171 6.32235 95.0524 6.71488 95.6635L9.43759 99.8828H7.93425L7.94261 99.8661Z" fill="#E0DBC7"/>
<path d="M17.6391 90.4813L13.839 99.8659H12.3857L17.2883 88.0117H18.0316L22.9174 99.8659H21.4642L17.6474 90.4813H17.6391Z" fill="#E0DBC7"/>
<path d="M28.3129 99.866H26.8263L29.3402 95.6299L24.8135 88.0034H26.3168L30.1002 94.2737L33.8669 88.0034H35.3702L28.3045 99.8576L28.3129 99.866Z" fill="#E0DBC7"/>
<path d="M40.1893 92.6998H43.8223C45.1169 92.6998 46.1024 93.0179 46.7705 93.6458C47.4387 94.2737 47.7727 95.1611 47.7727 96.2912C47.7727 98.6771 46.4532 99.8659 43.814 99.8659H38.8613V88.0117H46.3613V89.2507H40.1726V92.7082L40.1893 92.6998ZM40.1893 98.6269H43.839C44.7995 98.6269 45.4843 98.4344 45.8936 98.0409C46.3028 97.6474 46.5116 97.0698 46.5116 96.2912C46.5116 94.7174 45.618 93.9388 43.839 93.9388H40.1893V98.6269Z" fill="#E0DBC7"/>
<path d="M60.25 99.8659H58.9304V94.483H52.6248V99.8659H51.3052V88.0117H52.6248V93.244H58.9304V88.0117H60.25V99.8659Z" fill="#E0DBC7"/>
<path d="M66.0296 92.6998H69.5958C70.8903 92.6998 71.8758 93.0179 72.544 93.6458C73.2121 94.2737 73.5462 95.1611 73.5462 96.2912C73.5462 98.6771 72.2266 99.8659 69.5958 99.8659H64.71V88.0117H66.0296V92.6998ZM66.0296 98.6269H69.6125C70.573 98.6269 71.2578 98.4344 71.6754 98.0409C72.093 97.6474 72.3018 97.0698 72.3018 96.2912C72.3018 94.7174 71.4081 93.9388 69.6125 93.9388H66.0296V98.6269ZM76.4944 99.8659H75.1748V88.0117H76.4944V99.8659Z" fill="#E0DBC7"/>
<path d="M89.9405 99.866H88.6209V90.5987L81.7223 99.866H80.979V88.0119H82.2986V97.2792L89.2139 88.0119H89.9405V99.866ZM87.1761 86.5385C86.7084 86.957 86.1404 87.1663 85.4639 87.1663C84.7874 87.1663 84.2195 86.957 83.7518 86.5385C83.2841 86.1199 83.0503 85.5925 83.0503 84.9646H83.9439C83.9439 85.3413 84.0942 85.6511 84.3866 85.9022C84.6789 86.1534 85.038 86.2873 85.4639 86.2873C85.8899 86.2873 86.2574 86.1617 86.558 85.9022C86.8587 85.6511 87.009 85.3329 87.009 84.9646H87.886C87.886 85.6008 87.6521 86.1199 87.1844 86.5385H87.1761Z" fill="#E0DBC7"/>
<path d="M109.768 99.8659H108.449V89.2423H102.21V99.8659H100.89V88.0117H109.76V99.8659H109.768Z" fill="#E0DBC7"/>
<path d="M115.28 89.6612C116.45 88.4808 117.869 87.8948 119.54 87.8948C121.21 87.8948 122.63 88.4892 123.807 89.6612C124.985 90.8416 125.57 92.2647 125.57 93.9391C125.57 95.6134 124.977 97.0366 123.807 98.2169C122.63 99.3973 121.21 99.9834 119.54 99.9834C117.869 99.9834 116.45 99.389 115.28 98.2169C114.111 97.0366 113.526 95.6134 113.526 93.9391C113.526 92.2647 114.111 90.8416 115.28 89.6612ZM122.889 90.5067C121.978 89.5858 120.859 89.1254 119.54 89.1254C118.22 89.1254 117.109 89.5858 116.199 90.5067C115.289 91.4276 114.838 92.5745 114.838 93.9391C114.838 95.3036 115.289 96.4505 116.199 97.3714C117.109 98.2923 118.22 98.7527 119.54 98.7527C120.859 98.7527 121.97 98.2923 122.889 97.3714C123.807 96.4505 124.258 95.3036 124.258 93.9391C124.258 92.5745 123.799 91.4276 122.889 90.5067Z" fill="#E0DBC7"/>
<path d="M134.907 87.8948C136.686 87.8948 138.173 88.5561 139.367 89.8788L138.507 90.6574C137.53 89.6444 136.327 89.1338 134.907 89.1338C133.588 89.1338 132.477 89.5942 131.567 90.5151C130.656 91.436 130.205 92.5829 130.205 93.9474C130.205 95.312 130.656 96.4589 131.567 97.3798C132.477 98.3007 133.588 98.7611 134.907 98.7611C136.352 98.7611 137.547 98.2504 138.507 97.2375L139.367 98.0495C138.181 99.3471 136.695 100 134.907 100C133.237 100 131.817 99.4057 130.648 98.2337C129.479 97.0533 128.894 95.6301 128.894 93.9558C128.894 92.2815 129.479 90.8583 130.648 89.6779C131.817 88.4975 133.237 87.9115 134.907 87.9115V87.8948Z" fill="#E0DBC7"/>
<path d="M144.27 93.2609H150.066V94.4999H144.27V98.6354H150.433V99.8744H142.95V88.0203H150.433V89.2593H144.27V93.2776V93.2609Z" fill="#E0DBC7"/>
<path d="M158.751 90.4813L154.951 99.8659H153.498L158.401 88.0117H159.144L164.03 99.8659H162.577L158.76 90.4813H158.751Z" fill="#E0DBC7"/>
<path d="M168.006 89.6612C169.175 88.4808 170.595 87.8948 172.265 87.8948C173.936 87.8948 175.355 88.4892 176.533 89.6612C177.711 90.8416 178.295 92.2647 178.295 93.9391C178.295 95.6134 177.702 97.0366 176.533 98.2169C175.355 99.3973 173.936 99.9834 172.265 99.9834C170.595 99.9834 169.175 99.389 168.006 98.2169C166.837 97.0366 166.252 95.6134 166.252 93.9391C166.252 92.2647 166.837 90.8416 168.006 89.6612ZM175.614 90.5067C174.704 89.5858 173.585 89.1254 172.265 89.1254C170.946 89.1254 169.835 89.5858 168.925 90.5067C168.014 91.4276 167.563 92.5745 167.563 93.9391C167.563 95.3036 168.014 96.4505 168.925 97.3714C169.835 98.2923 170.946 98.7527 172.265 98.7527C173.585 98.7527 174.696 98.2923 175.614 97.3714C176.533 96.4505 176.984 95.3036 176.984 93.9391C176.984 92.5745 176.525 91.4276 175.614 90.5067Z" fill="#E0DBC7"/>
<path d="M190.088 99.8661L187.691 96.1072C187.248 95.4375 186.898 95.0022 186.639 94.7845C186.372 94.5668 185.962 94.4664 185.394 94.4664H183.465V99.8744H182.146V88.0203H183.465V93.219H185.202C185.762 93.219 186.179 93.1186 186.447 92.9093C186.714 92.7 187.065 92.2563 187.499 91.5782L189.779 88.0203H191.282L188.677 92.0303C188.301 92.5828 188.009 92.9846 187.783 93.2441C187.558 93.4953 187.324 93.6795 187.09 93.7967C187.39 93.8971 187.666 94.0813 187.908 94.3492C188.15 94.6171 188.468 95.0524 188.86 95.6635L191.583 99.8828H190.08L190.088 99.8661Z" fill="#E0DBC7"/>
<path d="M201.747 88.0117H206.04C208.654 88.0117 209.957 89.0247 209.957 91.059C209.957 92.3901 209.364 93.2523 208.17 93.6542C208.938 93.7965 209.531 94.1314 209.949 94.6504C210.375 95.1694 210.583 95.814 210.583 96.5842C210.583 98.7776 209.205 99.8743 206.458 99.8743H201.739V88.0201L201.747 88.0117ZM203.067 89.2507V93.1602H206.157C207.861 93.1602 208.713 92.5073 208.713 91.2097C208.713 90.6153 208.537 90.1297 208.178 89.7781C207.827 89.4265 207.151 89.2423 206.157 89.2423H203.067V89.2507ZM203.067 94.2988V98.6353H206.7C208.454 98.6353 209.339 97.9153 209.339 96.467C209.339 95.7973 209.122 95.2699 208.679 94.8848C208.237 94.4913 207.577 94.2988 206.7 94.2988H203.067Z" fill="#E0DBC7"/>
<path d="M222.953 93.1103H224.556C226.26 93.1103 227.112 92.4574 227.112 91.1598C227.112 90.5403 226.903 90.0463 226.485 89.678C226.068 89.3096 225.425 89.1255 224.556 89.1255H224.456C223.804 89.1255 223.161 89.2594 222.535 89.5357C221.909 89.8036 221.391 90.1803 220.99 90.6491L220.13 89.8538C220.622 89.2427 221.249 88.7655 222.009 88.4139C222.76 88.0623 223.562 87.8865 224.406 87.8865H224.523C225.859 87.8948 226.836 88.2046 227.446 88.8157C228.056 89.4268 228.356 90.1552 228.356 91.0007C228.356 91.6537 228.198 92.223 227.88 92.7001C227.563 93.1773 227.095 93.5122 226.477 93.7047C227.212 93.8638 227.772 94.1987 228.164 94.7093C228.557 95.22 228.757 95.8562 228.757 96.618C228.757 97.631 228.39 98.4431 227.663 99.0458C226.928 99.6486 225.867 99.9583 224.489 99.9667H224.389C223.362 99.9667 222.451 99.749 221.641 99.3053C220.84 98.8616 220.213 98.2589 219.771 97.4887L220.631 96.6934C220.982 97.3296 221.491 97.8236 222.159 98.1835C222.827 98.5435 223.587 98.7277 224.431 98.7277H224.514C225.45 98.7277 226.185 98.5351 226.711 98.15C227.237 97.765 227.504 97.2041 227.504 96.4757C227.504 95.806 227.287 95.287 226.845 94.9019C226.402 94.5168 225.742 94.3242 224.865 94.3242H222.936V93.0852L222.953 93.1103Z" fill="#E0DBC7"/>
<path d="M234.553 99.866H233.067L235.58 95.6299L231.054 88.0034H232.557L236.34 94.2737L240.107 88.0034H241.61L234.545 99.8576L234.553 99.866Z" fill="#E0DBC7"/>
<path d="M246.421 92.6998H250.054C251.349 92.6998 252.334 93.0179 253.002 93.6458C253.671 94.2737 254.005 95.1611 254.005 96.2912C254.005 98.6771 252.685 99.8659 250.046 99.8659H245.093V88.0117H252.593V89.2507H246.405V92.7082L246.421 92.6998ZM246.421 98.6269H250.071C251.031 98.6269 251.716 98.4344 252.126 98.0409C252.535 97.6474 252.744 97.0698 252.744 96.2912C252.744 94.7174 251.85 93.9388 250.071 93.9388H246.421V98.6269Z" fill="#E0DBC7"/>
<path d="M258.891 89.6612C260.06 88.4808 261.48 87.8948 263.15 87.8948C264.82 87.8948 266.24 88.4892 267.418 89.6612C268.595 90.8416 269.18 92.2647 269.18 93.9391C269.18 95.6134 268.587 97.0366 267.418 98.2169C266.24 99.3973 264.82 99.9834 263.15 99.9834C261.48 99.9834 260.06 99.389 258.891 98.2169C257.721 97.0366 257.137 95.6134 257.137 93.9391C257.137 92.2647 257.721 90.8416 258.891 89.6612ZM266.499 90.5067C265.589 89.5858 264.47 89.1254 263.15 89.1254C261.83 89.1254 260.72 89.5858 259.809 90.5067C258.899 91.4276 258.448 92.5745 258.448 93.9391C258.448 95.3036 258.899 96.4505 259.809 97.3714C260.72 98.2923 261.83 98.7527 263.15 98.7527C264.47 98.7527 265.58 98.2923 266.499 97.3714C267.418 96.4505 267.869 95.3036 267.869 93.9391C267.869 92.5745 267.41 91.4276 266.499 90.5067Z" fill="#E0DBC7"/>
<path d="M273.03 88.0117H277.323C279.937 88.0117 281.24 89.0247 281.24 91.059C281.24 92.3901 280.647 93.2523 279.453 93.6542C280.221 93.7965 280.814 94.1314 281.232 94.6504C281.658 95.1694 281.867 95.814 281.867 96.5842C281.867 98.7776 280.489 99.8743 277.741 99.8743H273.022V88.0201L273.03 88.0117ZM274.35 89.2507V93.1602H277.44C279.144 93.1602 279.996 92.5073 279.996 91.2097C279.996 90.6153 279.82 90.1297 279.461 89.7781C279.11 89.4265 278.434 89.2423 277.44 89.2423H274.35V89.2507ZM274.35 94.2988V98.6353H277.983C279.737 98.6353 280.622 97.9153 280.622 96.467C280.622 95.7973 280.405 95.2699 279.962 94.8848C279.52 94.4913 278.86 94.2988 277.983 94.2988H274.35Z" fill="#E0DBC7"/>
<path d="M286.71 89.6612C287.88 88.4808 289.3 87.8948 290.97 87.8948C292.64 87.8948 294.06 88.4892 295.238 89.6612C296.415 90.8416 297 92.2647 297 93.9391C297 95.6134 296.407 97.0366 295.238 98.2169C294.06 99.3973 292.64 99.9834 290.97 99.9834C289.3 99.9834 287.88 99.389 286.71 98.2169C285.541 97.0366 284.957 95.6134 284.957 93.9391C284.957 92.2647 285.541 90.8416 286.71 89.6612ZM294.319 90.5067C293.409 89.5858 292.289 89.1254 290.97 89.1254C289.65 89.1254 288.539 89.5858 287.629 90.5067C286.719 91.4276 286.268 92.5745 286.268 93.9391C286.268 95.3036 286.719 96.4505 287.629 97.3714C288.539 98.2923 289.65 98.7527 290.97 98.7527C292.289 98.7527 293.4 98.2923 294.319 97.3714C295.238 96.4505 295.689 95.3036 295.689 93.9391C295.689 92.5745 295.229 91.4276 294.319 90.5067Z" fill="#E0DBC7"/>
<path d="M0 68.3477V40.4374C0.117668 21.3312 14.4311 17.1802 26.1643 17.1802C37.8974 17.1802 52.2109 21.3312 52.3286 40.429V68.3477H44.033V40.4374C44.1002 34.2109 42.3772 21.9505 28.0638 20.1428C11.4894 18.0505 8.74104 33.282 8.3208 37.8012C8.24515 38.6799 8.21994 39.5587 8.26196 40.4374L8.27877 68.3561H0V68.3477Z" fill="#725D4C"/>
<path d="M26.5044 67.8399V40.083C26.6206 21.0818 40.7611 16.9619 52.3525 16.9619C63.9439 16.9619 78.0844 21.0901 78.2006 40.083V67.8482H70.0053V40.083C70.0717 33.8907 68.3695 21.6977 54.229 19.8999C37.855 17.8192 35.1398 32.9669 34.7246 37.4612C34.6499 38.3351 34.625 39.2091 34.6665 40.083L34.6831 67.8482H26.4878L26.5044 67.8399Z" fill="#8A8782"/>
<path d="M13.252 67.84V23.121C13.3682 4.12816 27.5087 0 39.1001 0C50.6914 0 64.8319 4.12816 64.9482 23.121V67.84H56.7528V23.121C56.8193 16.9288 55.1171 4.73574 40.9766 2.93799C24.6191 0.85726 21.8957 16.005 21.4888 20.4993C21.4141 21.3732 21.3892 22.2471 21.4307 23.121L21.4473 67.84H13.252Z" fill="#E0DBC7"/>
</svg>
