<svg width="224" height="50" viewBox="0 0 224 50" fill="none" xmlns="http://www.w3.org/2000/svg">
<path d="M106.561 19.3169V27.5417C106.561 27.5417 103.486 20.7232 92.5774 20.3701L92.521 49.6043L91.6192 49.6165H87.317V20.364C76.3202 20.6806 73.2266 27.5417 73.2266 27.5417V19.3169H106.561Z" fill="#E0DBC7"/>
<path d="M116.712 19.3164L116.649 49.6039L115.748 49.616H111.445V19.3164H116.712Z" fill="#E0DBC7"/>
<path d="M154.945 19.3164V27.5412C154.945 27.5412 151.87 20.7227 140.961 20.3696L140.905 49.6039L140.003 49.616H135.701V20.3635C124.704 20.6801 121.61 27.5412 121.61 27.5412V19.3164H154.945Z" fill="#E0DBC7"/>
<path d="M193.978 19.3164V34.4632C193.897 46.8704 184.378 49.5673 176.569 49.5673C168.759 49.5673 159.241 46.8765 159.159 34.4632V19.3164H164.676V34.4632C164.633 38.5056 165.779 46.4747 175.297 47.6496C186.326 49.0133 188.154 39.1144 188.43 36.18C188.48 35.6077 188.492 35.0354 188.473 34.4693L188.461 19.3225H193.978V19.3164Z" fill="#E0DBC7"/>
<path d="M224 43.0717V49.6223H203.146L203.171 49.6041H200.51V19.3105H205.776L205.72 48.9222C220.28 48.5935 224 43.0656 224 43.0656V43.0717Z" fill="#E0DBC7"/>
<path d="M0 49.9937V29.5783C0.0887461 15.6027 10.8841 12.5664 19.7333 12.5664C28.5826 12.5664 39.3779 15.6027 39.4667 29.5722V49.9937H33.2101V29.5783C33.2608 25.0238 31.9613 16.0557 21.1659 14.7334C8.66542 13.203 6.59257 24.3443 6.27562 27.65C6.21857 28.2927 6.19955 28.9355 6.23124 29.5783L6.24392 49.9999H0V49.9937Z" fill="#725D4C"/>
<path d="M19.9901 49.6227V29.3195C20.0777 15.4208 30.7426 12.4072 39.4849 12.4072C48.2272 12.4072 58.8921 15.4268 58.9798 29.3195V49.6288H52.7988V29.3195C52.8489 24.7901 51.5651 15.8713 40.9002 14.5563C28.5508 13.0343 26.503 24.1143 26.1898 27.4018C26.1335 28.041 26.1147 28.6803 26.146 29.3195L26.1585 49.6288H19.9775L19.9901 49.6227Z" fill="#8A8782"/>
<path d="M9.99414 49.6227V16.9123C10.0818 3.01961 20.7467 0 29.489 0C38.2313 0 48.8962 3.01961 48.9839 16.9123V49.6227H42.8029V16.9123C42.853 12.3828 41.5692 3.46403 30.9043 2.14904C18.5674 0.627057 16.5133 11.7071 16.2064 14.9946C16.1501 15.6338 16.1313 16.273 16.1626 16.9123L16.1751 49.6227H9.99414Z" fill="#E0DBC7"/>
</svg>
