<svg width="30" height="31" viewBox="0 0 30 31" fill="none" xmlns="http://www.w3.org/2000/svg">
<path d="M15.5776 19.6258L16.5604 20.2908C17.6907 21.0667 18.8209 21.8426 19.9634 22.6061C20.0923 22.704 20.2443 22.7666 20.4045 22.7879C20.5648 22.8092 20.7278 22.7884 20.8776 22.7275C21.0274 22.6667 21.1589 22.5679 21.2593 22.4409C21.3596 22.3138 21.4253 22.1628 21.4499 22.0027L24.3246 9.21929C24.3564 9.10397 24.3615 8.98292 24.3397 8.86532C24.3178 8.74771 24.2695 8.63663 24.1985 8.54051C24.1275 8.44438 24.0356 8.36572 23.9297 8.31049C23.8238 8.25526 23.7068 8.22491 23.5875 8.22175C23.3858 8.2216 23.1858 8.25919 22.9978 8.33259C19.3123 9.56412 15.7496 10.9434 12.1255 12.2489L6.20402 14.3918C6.0236 14.4498 5.86506 14.5615 5.74946 14.712C5.52833 15.0568 5.74946 15.4139 6.22858 15.5494L10.1598 16.6085C10.2609 16.6293 10.3539 16.6785 10.4279 16.7506C10.5019 16.8226 10.5538 16.9143 10.5775 17.0149C11.0567 18.4435 11.5726 19.8475 12.0149 21.2761C12.0452 21.4285 12.1179 21.5693 12.2245 21.6821C12.3312 21.795 12.4675 21.8753 12.6177 21.9139C12.7679 21.9526 12.9259 21.9479 13.0736 21.9004C13.2212 21.8529 13.3525 21.7645 13.4523 21.6455C14.1279 20.9559 14.8528 20.3155 15.5776 19.6258ZM13.9682 0.5H16.069C16.5481 0.561577 17.0395 0.610838 17.5064 0.697046C21.2195 1.30603 24.5598 3.31514 26.8431 6.31286C28.1648 7.98156 29.106 9.92015 29.6005 11.9924C30.095 14.0647 30.1309 16.2204 29.7056 18.308C28.97 22.1627 26.758 25.5753 23.5433 27.8151C20.3285 30.0548 16.3667 30.9435 12.5063 30.2909C9.64272 29.8583 6.97558 28.5708 4.85264 26.5963C2.41951 24.3829 0.793735 21.418 0.233421 18.1726C0.13514 17.6553 0.073711 17.1135 0 16.5839V14.441C0 13.973 0.110568 13.4927 0.184279 13.0247C0.725312 9.70537 2.37061 6.66709 4.85264 4.40398C6.98561 2.4465 9.64857 1.16531 12.5063 0.721677C13.01 0.635469 13.5137 0.573892 14.0297 0.5" fill="#BFA779"/>
<path d="M12.5062 20.5002C12.4579 20.4134 12.4168 20.3228 12.3834 20.2292C12.0025 19.0962 11.634 17.9632 11.2531 16.8302C11.118 16.4361 11.1548 16.3376 11.4988 16.1405L20.5776 10.9188C20.5776 10.9188 20.6636 10.8572 20.7127 10.8572H21.0444C21.0444 10.9681 21.0444 11.1035 20.9338 11.1651C20.1967 11.7932 19.4473 12.3967 18.6979 13.0124C16.8552 14.5149 15.0124 16.0297 13.1696 17.5568C13.0268 17.6943 12.9357 17.877 12.9116 18.0741C12.8011 18.7883 12.7396 19.5273 12.6536 20.2416C12.6591 20.3154 12.6591 20.3894 12.6536 20.4632H12.5062" fill="#BFA779"/>
</svg>
