<svg width="30" height="31" viewBox="0 0 30 31" fill="none" xmlns="http://www.w3.org/2000/svg">
<path fill-rule="evenodd" clip-rule="evenodd" d="M15 30.5C23.2843 30.5 30 23.7843 30 15.5C30 7.21573 23.2843 0.5 15 0.5C6.71573 0.5 0 7.21573 0 15.5C0 23.7843 6.71573 30.5 15 30.5ZM11.6773 10.4253C11.3725 10.4584 11.138 10.6593 10.9932 10.9751L10.9939 10.9765C11.0157 10.9848 11.0347 10.9928 11.052 11.0001C11.0833 11.0133 11.109 11.0242 11.1359 11.0301C11.6821 11.1492 12.0294 11.4629 12.0746 12.0487C12.0847 12.1783 12.0955 12.308 12.1064 12.4377C12.1501 12.9607 12.1939 13.4847 12.1894 14.0077C12.1853 14.4462 12.1024 14.8945 11.9862 15.3196C11.8464 15.8321 11.5109 15.928 11.0934 15.603C10.8937 15.4479 10.7086 15.2576 10.5639 15.0496C9.7796 13.9231 9.2041 12.6796 8.6627 11.422C8.45742 10.9455 8.15123 10.7383 7.64672 10.7516C7.13215 10.7654 6.61733 10.7674 6.10256 10.7693C5.77081 10.7706 5.43907 10.7719 5.10744 10.7763C4.52082 10.7834 4.3719 11.0097 4.60502 11.5475C5.64954 13.9619 6.88542 16.2621 8.49013 18.3501C9.51516 19.6838 10.7782 20.6609 12.3571 21.2121C13.0835 21.4661 13.8338 21.4591 14.5842 21.452C14.7022 21.4509 14.8202 21.4498 14.9382 21.4497C15.6675 21.449 15.8205 21.2897 15.8748 20.5551C15.8757 20.5434 15.8766 20.5316 15.8774 20.5199C15.9133 20.0307 15.9497 19.5346 16.284 19.1312C16.5526 18.8076 16.785 18.7597 17.1288 18.993C17.3195 19.122 17.4948 19.2813 17.6535 19.4498C17.8505 19.658 18.0425 19.8709 18.2346 20.0839C18.4335 20.3043 18.6323 20.5247 18.8365 20.7398C19.2248 21.1487 19.6973 21.4314 20.2575 21.4856C20.5184 21.5107 20.7831 21.4948 21.0477 21.4788C21.1769 21.4711 21.3062 21.4633 21.4349 21.4603C21.6358 21.4556 21.8369 21.4546 22.0379 21.4535C22.4748 21.4513 22.9114 21.4491 23.3451 21.4095C23.9415 21.3552 24.1127 21.0098 23.8907 20.4459C23.8566 20.3592 23.8148 20.2725 23.7592 20.1991C23.6786 20.092 23.5996 19.9834 23.5205 19.8747C23.3108 19.5865 23.101 19.298 22.8615 19.0374C22.5385 18.6859 22.2005 18.3484 21.8626 18.0109C21.6224 17.771 21.3823 17.5312 21.1475 17.2864C20.7328 16.8542 20.6966 16.5356 21.016 16.0252C21.1639 15.7885 21.3292 15.5634 21.4945 15.3383C21.592 15.2056 21.6896 15.0728 21.7836 14.9375C21.9232 14.7363 22.0633 14.5354 22.2035 14.3346C22.6779 13.6545 23.1523 12.9745 23.6068 12.2806C23.7814 12.0135 23.8809 11.6871 23.9728 11.3755C24.0612 11.0759 23.9241 10.8729 23.6249 10.7975C23.5031 10.7665 23.3716 10.7643 23.2449 10.7643C22.9018 10.7653 22.5587 10.7681 22.2155 10.7709C21.5152 10.7767 20.8149 10.7825 20.1148 10.7721C19.7161 10.7665 19.5066 10.9314 19.3508 11.2888C19.0376 12.0057 18.7168 12.7233 18.3424 13.4085C17.9291 14.1663 17.4851 14.9065 16.8491 15.5142C16.4378 15.9068 15.9994 15.6996 15.9326 15.18C15.879 14.7634 15.8602 14.3397 15.8637 13.9196C15.8672 13.509 15.8802 13.0984 15.8933 12.6877C15.9063 12.2771 15.9194 11.8665 15.9228 11.4559C15.9284 10.7256 15.6953 10.4528 14.9931 10.3449L14.9763 10.3423C14.6386 10.2902 14.2951 10.2373 13.957 10.2519C13.1964 10.2843 12.4351 10.3428 11.6773 10.4253Z" fill="#BFA779"/>
</svg>
