<svg width="151" height="30" viewBox="0 0 151 30" fill="none" xmlns="http://www.w3.org/2000/svg">
<g clip-path="url(#clip0_141_3350)">
<path d="M25.4585 20.5795C25.0947 20.5795 24.8839 20.7967 24.8839 21.1897V24.2941H20.0964V21.1897C20.0964 20.7988 19.8856 20.5795 19.5218 20.5795C19.162 20.5795 18.9472 20.7967 18.9472 21.1897V28.6742C18.9472 29.0652 19.162 29.2824 19.5218 29.2824C19.8856 29.2824 20.0964 29.0652 20.0964 28.6742V25.3605H24.8839V28.6742C24.8839 29.0652 25.0947 29.2824 25.4585 29.2824C25.8183 29.2824 26.0291 29.0652 26.0291 28.6742V21.1897C26.0311 20.7967 25.8183 20.5795 25.4585 20.5795ZM31.3693 24.8292L34.6995 21.5215C34.8566 21.3655 34.9242 21.2391 34.9242 21.0614C34.9242 20.8007 34.7432 20.5795 34.4331 20.5795C34.272 20.5795 34.1428 20.6349 33.9977 20.7771L30.743 24.0098C30.5602 24.1914 30.3753 24.2921 30.1168 24.2921H29.4467V21.1878C29.4467 20.7967 29.236 20.5776 28.8721 20.5776C28.5123 20.5776 28.2976 20.7948 28.2976 21.1878V28.6722C28.2976 29.0632 28.5123 29.2804 28.8721 29.2804C29.236 29.2804 29.4467 29.0632 29.4467 28.6722V25.3585H30.0393C30.2957 25.3585 30.4806 25.4612 30.6635 25.6409L34.119 29.0731C34.272 29.2232 34.4053 29.2804 34.5762 29.2804C34.9023 29.2804 35.0911 29.0494 35.0911 28.7768C35.0911 28.5892 35.0196 28.457 34.8546 28.2931L31.3693 24.8292ZM38.5605 10.2751C38.0436 10.5457 37.3358 10.7392 36.6578 10.7392C35.5405 10.7392 34.8407 10.2594 34.8407 9.42207C34.8407 8.66772 35.4391 8.08315 36.6499 8.08315C37.2881 8.08315 37.8528 8.17595 38.5605 8.38528V10.2751ZM36.8109 3.32592C35.8387 3.32592 34.9619 3.57277 34.4013 3.79985C33.9281 3.99142 33.7273 4.26394 33.7293 4.62732C33.7333 5.05581 34.0593 5.3698 34.4649 5.3698C34.6598 5.3698 34.8765 5.29475 35.1071 5.20389C35.4729 5.05775 36.0753 4.89983 36.6777 4.89983C38.0158 4.89983 38.5605 5.40144 38.5605 6.42628V7.11745C37.7911 6.91208 37.1628 6.8213 36.4432 6.8213C34.2522 6.8213 33.1825 8.06144 33.1825 9.42207C33.1825 10.996 34.3814 12.1808 36.5048 12.1808C38.1549 12.1808 39.4115 11.6357 39.9145 11.2921C40.155 11.1263 40.2405 10.9683 40.2405 10.6464V6.46381C40.2386 4.3113 38.992 3.32592 36.8109 3.32592ZM57.7703 8.90271C57.3766 8.91062 57.1558 9.14358 57.0068 9.4023C56.7045 10.048 56.0663 10.5042 55.1935 10.5042C53.9609 10.5042 53.2352 9.76568 53.1338 8.67361C53.0802 8.08904 53.0802 7.41369 53.1338 6.82921C53.2352 5.73512 53.9708 4.99658 55.1935 4.99658C56.0663 4.99658 56.6986 5.44485 57.0068 6.1064C57.1618 6.35721 57.3766 6.59615 57.7703 6.60011C58.2752 6.60406 58.6152 6.292 58.6152 5.80032C58.6152 5.54556 58.5178 5.2908 58.3627 5.0124C57.8557 4.07438 56.7542 3.3239 55.1697 3.3239C53.0304 3.3239 51.591 4.66484 51.412 6.58235C51.3504 7.22018 51.3504 8.27666 51.412 8.9165C51.599 10.834 53.0304 12.1788 55.1697 12.1788C56.7542 12.1788 57.8557 11.4324 58.3686 10.4884C58.5238 10.208 58.6172 9.95523 58.6172 9.70047C58.6152 9.2167 58.2732 8.89084 57.7703 8.90271ZM18.7206 10.6207L15.7224 7.64279L18.5675 4.81687C18.7882 4.5977 18.9015 4.38046 18.9015 4.12966C18.9015 3.71294 18.5974 3.4029 18.1639 3.4029C17.9114 3.4029 17.7225 3.49377 17.478 3.73666L14.5872 6.60801C14.4301 6.76593 14.2611 6.85487 14.0365 6.85487H13.446V4.31526C13.446 3.7386 13.108 3.4029 12.5752 3.4029C12.0463 3.4029 11.7104 3.7386 11.7104 4.31526V11.1875C11.7104 11.7641 12.0483 12.1038 12.5752 12.1038C13.108 12.1038 13.446 11.7641 13.446 11.1875V8.44451H13.9391C14.1637 8.44451 14.3327 8.53344 14.4898 8.69136L17.5754 11.7543C17.8299 12.007 18.0287 12.1058 18.2931 12.1058C18.7504 12.1058 19.0705 11.7819 19.0705 11.3415C19.0705 11.0788 18.9532 10.8498 18.7206 10.6207ZM47.9924 8.67554C47.891 9.77156 47.2051 10.5121 45.9486 10.5121C45.2985 10.5121 44.4813 10.3147 44.0777 10.0322V5.47447C44.4813 5.18816 45.2964 4.99061 45.9486 4.99061C47.2051 4.99061 47.893 5.73511 47.9924 6.83114C48.0421 7.38214 48.046 8.07919 47.9924 8.67554ZM46.0022 3.32592C44.4832 3.32592 43.2685 3.85908 42.7794 4.14548C42.3798 4.38046 42.3381 4.56606 42.3381 5.22761V14.0351C42.3381 14.6078 42.6741 14.9474 43.2029 14.9474C43.7357 14.9474 44.0757 14.6078 44.0757 14.0351V11.7364C44.5966 11.9873 45.3938 12.1808 46.1533 12.1808C48.1614 12.1808 49.5412 10.8518 49.7221 8.93426C49.7838 8.28852 49.7838 7.22413 49.7221 6.57242C49.5452 4.65095 48.1634 3.32592 46.0022 3.32592ZM15.7145 27.6987C15.0783 28.0383 14.2134 28.2871 13.4121 28.2871C11.9787 28.2871 11.1695 27.6828 11.1695 26.6381C11.1695 25.7001 11.8813 24.9991 13.4121 24.9991C14.1716 24.9991 14.8139 25.1097 15.7145 25.3743V27.6987ZM13.6587 20.5045C12.6567 20.5045 11.6805 20.775 11.1517 21.014C10.7958 21.168 10.6347 21.3319 10.6427 21.6143C10.6526 21.9066 10.8792 22.1376 11.1596 22.1376C11.2967 22.1376 11.4618 22.0843 11.6228 22.0093C12.0284 21.8375 12.7938 21.6104 13.5434 21.6104C15.0266 21.6104 15.7145 22.2107 15.7145 23.5476V24.3434C14.784 24.0749 14.114 23.9821 13.3108 23.9821C11.1377 23.9821 10.0343 25.2243 10.0343 26.6283C10.0343 28.2773 11.2829 29.3614 13.2611 29.3614C14.8954 29.3614 16.146 28.7906 16.6072 28.457C16.7941 28.3246 16.8477 28.218 16.8477 27.9652V23.518C16.8477 21.4603 15.6489 20.5045 13.6587 20.5045ZM5.28058 28.0837H2.03188V23.5082H5.28058C6.98043 23.5082 7.68033 24.3355 7.68033 25.7653C7.68033 27.2267 6.98043 28.0837 5.28058 28.0837ZM5.4277 22.4102H2.03188V18.8792H7.69022C8.06798 18.8792 8.32839 18.6699 8.32839 18.3105C8.32839 17.9669 8.06798 17.7536 7.69022 17.7536H1.88679C1.23661 17.7536 0.864849 18.113 0.864849 18.7667V28.1903C0.864849 28.844 1.23467 29.2053 1.88679 29.2053H5.42575C7.60077 29.2053 8.86131 27.9494 8.86131 25.7554C8.86131 23.6207 7.6028 22.4102 5.4277 22.4102ZM25.3909 6.60204H28.2379C29.584 6.60204 30.1843 7.28336 30.1843 8.45839C30.1843 9.6531 29.584 10.366 28.2379 10.366H25.3909V6.60204ZM24.9614 12.0268H28.4249C30.6774 12.0268 32.0115 10.7273 32.0115 8.42087C32.0115 6.24464 30.6774 5.02813 28.4249 5.02813H25.3909V2.24765H30.4886C31.0452 2.24765 31.4071 1.92188 31.4071 1.40049C31.4071 0.904831 31.0452 0.577017 30.4886 0.577017H24.9614C24.0867 0.577017 23.6076 1.04899 23.6076 1.92188V10.6839C23.6055 11.5568 24.0847 12.0268 24.9614 12.0268ZM3.35997 6.85882L4.9505 2.35231C5.01214 2.19439 5.06388 2.13903 5.18318 2.13903C5.30045 2.13903 5.35211 2.19439 5.40977 2.35231L7.00834 6.85882H3.35997ZM10.3783 11.2724C10.3783 11.1124 10.3504 10.9564 10.259 10.7156L7.05002 2.01468C6.66236 0.952225 6.09775 0.5 5.19908 0.5C4.30438 0.5 3.73579 0.952225 3.35008 2.01468L0.119299 10.7195C0.0198687 10.99 0 11.152 0 11.2783C0 11.7306 0.36187 12.1058 0.864849 12.1058C1.27643 12.1058 1.58453 11.9004 1.75557 11.3988L2.80136 8.44055H7.57295L8.62669 11.4067C8.79367 11.9004 9.10185 12.1058 9.50743 12.1058C10.0184 12.1058 10.3783 11.7286 10.3783 11.2724Z" fill="#8A8782"/>
<path d="M150.511 14.1059C149.326 11.1176 146.397 9.49018 143.228 10.0597L136.715 11.2269C135.634 11.4206 134.916 12.4504 135.109 13.5264C135.303 14.6026 136.336 15.3178 137.416 15.1258L143.928 13.9585C145.478 13.6804 146.435 14.6043 146.814 15.5595C147.194 16.5164 147.128 17.8425 145.808 18.6951L136.249 24.8687C135.359 25.4416 134.279 25.4813 133.353 24.9797C132.427 24.478 131.871 23.5493 131.871 22.498V2.49379C131.871 1.39953 130.983 0.512108 129.885 0.512108C128.787 0.512108 127.899 1.39953 127.899 2.49379V22.5012C127.899 25.0277 129.228 27.256 131.455 28.4629C132.49 29.0226 133.604 29.3024 134.714 29.3024C135.994 29.3024 137.27 28.9331 138.409 28.1964L147.968 22.0228C150.676 20.2746 151.697 17.0942 150.511 14.1059ZM116.888 10.0614L110.375 11.2286C109.296 11.4223 108.578 12.452 108.77 13.5281C108.964 14.6043 109.998 15.3194 111.078 15.1274L117.59 13.9602C119.141 13.6821 120.097 14.6059 120.478 15.5612C120.856 16.5181 120.791 17.8442 119.469 18.6968L109.91 24.8704C109.023 25.4432 107.942 25.483 107.015 24.9813C106.088 24.4797 105.535 23.5509 105.535 22.4997V7.30155C105.535 4.77355 104.206 2.54511 101.979 1.33823C99.7517 0.132981 97.152 0.23232 95.0239 1.60481L70.9796 17.1323C68.2738 18.8789 67.2523 22.0592 68.4383 25.0475C69.6225 28.0342 72.5492 29.6599 75.7215 29.0921L96.7149 25.3306C97.7949 25.1369 98.5136 24.1071 98.3194 23.0311C98.1251 21.9549 97.0919 21.2381 96.012 21.4318L75.0191 25.1932C73.4677 25.4714 72.5126 24.5476 72.134 23.5923C71.7536 22.6354 71.8184 21.3093 73.1405 20.455L97.1803 4.93076C98.0651 4.35964 99.1486 4.31824 100.075 4.81986C101.002 5.32314 101.555 6.25193 101.555 7.30322V22.5012C101.555 25.0277 102.884 27.256 105.112 28.4629C106.146 29.0226 107.262 29.3024 108.372 29.3024C109.652 29.3024 110.927 28.9331 112.066 28.1964L121.626 22.0228C124.331 20.2762 125.352 17.0959 124.168 14.1076C122.987 11.1176 120.057 9.49351 116.888 10.0614Z" fill="#8A8782"/>
</g>
<defs>
<clipPath id="clip0_141_3350">
<rect width="151" height="29" fill="white" transform="translate(0 0.5)"/>
</clipPath>
</defs>
</svg>
