<svg width="121" height="26" viewBox="0 0 121 26" fill="none" xmlns="http://www.w3.org/2000/svg">
<g clip-path="url(#clip0_141_3342)">
<path d="M0 21.5588H15.9793V24.8824H0V21.5588ZM115.559 10.8897L120.597 5.31618H116.842L112.713 9.94853V5.31618H109.721V17.0294H112.728V12.0956L117.143 17.0294H121L115.559 10.8897ZM17.7393 11.6618C17.6587 13.8676 17.38 14.2868 16.1627 14.2868V17.0368H16.6173C19.6753 17.0368 20.4013 15.4559 20.5113 11.9338L20.6433 8.03676H23.4667V17.0294H26.4587V5.31618H17.9447L17.7393 11.6618ZM4.752 13.6765H11.0587L12.1073 17.0294H15.6053L10.89 2.94118C10.4353 1.58088 9.90733 0.5 8.10333 0.5C6.29933 0.5 5.74933 1.58088 5.26533 2.94118L0.322667 17.0294H3.608L4.752 13.6765V13.6765ZM7.94933 4.17647H8.03L10.142 10.8529H5.698L7.94933 4.17647ZM77.8433 6.97794H74.5067V3.66912H82.2507V0.727941H71.368V17.0294H77.8433C81.4293 17.0294 83.49 15.2353 83.49 11.9559C83.49 8.84559 81.4 6.97794 77.8433 6.97794V6.97794ZM77.6893 14.0809H74.5067V9.84559H77.6893C79.3467 9.84559 80.278 10.5809 80.278 11.9632C80.278 13.3456 79.3467 14.0809 77.6893 14.0809ZM48.0993 5.04412V0.705882H45.1147V5.04412C43.5475 5.09596 42.0648 5.76934 40.9923 6.91632C39.9199 8.06338 39.3452 9.59029 39.3947 11.1618C39.3413 12.7365 39.9139 14.2679 40.9866 15.4193C42.0592 16.5708 43.5442 17.2478 45.1147 17.3015V21.7132H48.1067V17.3015C48.8846 17.2758 49.6499 17.0966 50.3586 16.774C51.0674 16.4514 51.7056 15.9918 52.237 15.4215C52.7683 14.8511 53.1822 14.1813 53.455 13.4504C53.7278 12.7194 53.8541 11.9417 53.8267 11.1618C53.8581 10.3813 53.734 9.60243 53.4621 8.87059C53.19 8.13868 52.7753 7.46846 52.2422 6.89897C51.709 6.32956 51.0681 5.87221 50.3568 5.55375C49.6455 5.23529 48.8781 5.06206 48.0993 5.04412V5.04412ZM45.122 14.4706C44.3301 14.3834 43.6042 13.9876 43.1008 13.3686C42.5973 12.7496 42.3566 11.9571 42.4307 11.1618C42.3661 10.3685 42.6103 9.58088 43.112 8.96412C43.6137 8.34728 44.334 7.94912 45.122 7.85294V14.4706ZM48.114 14.4706V7.85294C48.902 7.94912 49.6223 8.34728 50.124 8.96412C50.6257 9.58088 50.8699 10.3685 50.8053 11.1618C50.8755 11.9562 50.6334 12.7468 50.1307 13.3649C49.628 13.983 48.9043 14.3798 48.114 14.4706ZM65.0393 13.4338V9.48529C65.0393 6.60294 63.2133 4.80147 60.148 4.80147C57.0827 4.80147 55.2933 6.71324 55.1467 8.70588H58.1753C58.278 8.27941 58.7327 7.52206 60.1407 7.52206C60.4039 7.48809 60.6709 7.51588 60.9209 7.60338C61.1717 7.69088 61.3983 7.83551 61.5831 8.02603C61.7679 8.21647 61.9065 8.4475 61.9872 8.70074C62.0679 8.95404 62.0884 9.22265 62.0473 9.48529H59.114C56.4593 9.48529 54.8827 10.8897 54.8827 13.2132C54.862 13.7677 54.9576 14.3204 55.1634 14.8354C55.3692 15.3505 55.6806 15.8165 56.0774 16.2032C56.4741 16.59 56.9475 16.8889 57.4669 17.0807C57.9861 17.2724 58.5398 17.3526 59.092 17.3162C59.7154 17.349 60.3372 17.2274 60.9026 16.9619C61.468 16.6964 61.9593 16.2954 62.3333 15.7941C62.5768 16.207 62.9317 16.5421 63.3578 16.7607C63.7831 16.9794 64.262 17.0726 64.7387 17.0294H65.7727V14.3235C65.2667 14.3235 65.0393 14.0809 65.0393 13.4338V13.4338ZM62.0473 12.6985C62.0598 12.9882 62.0107 13.2771 61.9029 13.5463C61.7958 13.8155 61.633 14.0589 61.4255 14.2604C61.2172 14.4618 60.9693 14.6168 60.6973 14.7152C60.4252 14.8135 60.1355 14.8529 59.8473 14.8309C58.7693 14.8309 57.9187 14.4412 57.9187 13.2721C57.9187 12.1029 58.8647 11.9338 59.664 11.9338H62.0473V12.6985V12.6985ZM33.9093 8.875H31.7607V5.31618H28.7687V17.0294H33.9607C37.2093 17.0294 38.3607 14.9118 38.3607 12.9118C38.3753 10.3309 36.762 8.875 33.9093 8.875ZM33.6893 14.4706H31.7607V11.5294H33.6893C34.7233 11.5294 35.3467 12 35.3467 13C35.3467 14 34.7527 14.4706 33.6893 14.4706V14.4706ZM94.908 13.4338V9.48529C94.908 6.60294 93.082 4.80147 90.0167 4.80147C86.9513 4.80147 85.162 6.71324 85.0153 8.70588H88.044C88.1467 8.27941 88.6013 7.52206 90.0093 7.52206C90.2726 7.48809 90.5395 7.51588 90.7896 7.60338C91.0404 7.69088 91.267 7.83551 91.4518 8.02603C91.6366 8.21647 91.7752 8.4475 91.8559 8.70074C91.9365 8.95404 91.9571 9.22265 91.916 9.48529H88.9827C86.328 9.48529 84.7513 10.8897 84.7513 13.2132C84.7308 13.7677 84.8261 14.3204 85.0322 14.8354C85.2375 15.3505 85.5492 15.8165 85.9459 16.2032C86.3427 16.59 86.8164 16.8889 87.3356 17.0807C87.8548 17.2724 88.4085 17.3526 88.9607 17.3162C89.5899 17.3552 90.2191 17.2365 90.7918 16.9709C91.3638 16.7051 91.861 16.3007 92.2387 15.7941C92.4785 16.1998 92.8268 16.5303 93.2441 16.7485C93.6613 16.9668 94.1307 17.064 94.6 17.0294H95.634V14.3235C95.1133 14.3235 94.908 14.0809 94.908 13.4338ZM91.9307 12.6985C91.9417 12.9879 91.8918 13.2762 91.784 13.5449C91.6762 13.8136 91.5134 14.0565 91.3059 14.2577C91.0983 14.4589 90.8505 14.614 90.5791 14.7128C90.3078 14.8115 90.0189 14.8518 89.7307 14.8309C88.6527 14.8309 87.802 14.4412 87.802 13.2721C87.802 12.1029 88.748 11.9338 89.5473 11.9338H91.9307V12.6985V12.6985ZM104.463 9.67647H100.335V5.31618H97.3427V17.0368H100.335V12.4191H104.463V17.0294H107.455V5.31618H104.463V9.67647Z" fill="#8A8782"/>
</g>
<defs>
<clipPath id="clip0_141_3342">
<rect width="121" height="25" fill="white" transform="translate(0 0.5)"/>
</clipPath>
</defs>
</svg>
