<svg width="120" height="46" viewBox="0 0 120 46" fill="none" xmlns="http://www.w3.org/2000/svg">
<g clip-path="url(#clip0_141_3348)">
<path d="M14.9778 40.2075H2.48712V34.915H14.9501V40.2075H14.9778ZM17.4925 32.2549H0V45.5H2.48712V42.8399H17.4373V32.2549H17.4925ZM2.48712 8.45258L7.48888 3.1601V21.6976H2.48712V8.45258ZM0 24.33H9.94829V0.5H6.24537L0 7.12253V24.33ZM14.9778 3.1601H19.9796V21.6976H14.9778V3.1601ZM12.4907 24.33H22.439V0.5H12.4907V24.33ZM39.8763 24.33H42.3633V0.5H38.6051V0.527714L34.8468 4.49015V0.5H31.0886L24.8984 7.12253V24.33H27.3856V8.45258L32.3873 3.1601V24.33H34.8744V8.45258L39.8763 3.1601V24.33ZM0 29.6225H42.3909V26.9624H0V29.6225ZM32.415 34.915H39.8763V40.2075H32.415V34.915ZM29.9279 40.2075H22.439V34.915H29.9279V40.2075ZM32.415 42.8399H42.3909V32.2549H19.9796V42.8399H29.9279V45.5H32.415V42.8399ZM79.4761 23.8867H81.6595C82.6263 23.8867 83.2068 24.5794 83.2068 25.5216C83.2068 26.5191 82.6263 27.1564 81.6595 27.1564H79.4761V23.8867ZM79.4761 21.8085V19.4255H84.6712V17.3473H77.238V29.2623H81.7424C83.9805 29.2623 85.3902 27.7106 85.3902 25.5492C85.3902 23.388 84.0078 21.8362 81.7424 21.8362C81.7698 21.8085 79.4761 21.8085 79.4761 21.8085ZM93.4868 25.1891H90.6956L92.1327 20.8664L93.4868 25.1891ZM94.758 29.2623H97.0517L92.9893 17.3473H91.2761L87.2137 29.2623H89.5073L90.1981 27.1564H94.1502L94.758 29.2623ZM105.314 29.2623H107.498V17.3473H105.314V22.2241H101.528V17.3473H99.3454V29.2623H101.528V24.2747H105.314V29.2623ZM115.539 22.9168L119.298 17.3473H116.7L113.107 23V17.3473H110.924V29.2623H113.107V23.0277L117.031 29.2623H119.711L115.539 22.9168Z" fill="#8A8782"/>
<path d="M61.7632 5.5708H59.8286V40.4292H61.7632V5.5708Z" fill="#8A8782"/>
</g>
<defs>
<clipPath id="clip0_141_3348">
<rect width="120" height="45" fill="white" transform="translate(0 0.5)"/>
</clipPath>
</defs>
</svg>
