<svg width="156" height="36" viewBox="0 0 156 36" fill="none" xmlns="http://www.w3.org/2000/svg">
<g clip-path="url(#clip0_141_3356)">
<path d="M146.246 10.2751H149.525L149.508 15.553H150.218L152.085 10.2751H155.633L153.089 17.2527L156 24.9784H152.159L150.267 19.0661H149.492L149.508 24.9784H146.23V10.2751H146.246ZM135.195 10.2751H138.458V15.5774H140.79V10.2751H144.044V24.9784H140.79V19.0825H138.458V24.9784H135.195V10.2751ZM123.835 25.0028H127.227L127.635 22.4573H129.967L130.375 25.0028H133.768L130.913 10.2995H126.705L123.835 25.0028ZM128.809 14.756L129.429 19.2288H128.174L128.809 14.756ZM114.733 24.9784H118.704C119.569 24.9784 123.182 24.6043 123.198 20.1477C123.198 16.4069 120.401 15.7563 118.59 15.7563H117.995V13.8046H122.415V10.2751H114.741L114.733 24.9784ZM117.987 22.0264V18.7002H118.468C118.876 18.7002 119.911 18.7164 119.911 20.2372C119.911 21.7743 118.868 22.0264 118.468 22.0264H117.987ZM101.79 10.2751H104.628L107.132 13.7476L109.66 10.2751H112.474V24.9784H109.139V16.0166L107.132 18.5782L105.125 16.0166V24.9784H101.79V10.2751ZM94.8987 25.1573C98.8543 25.1573 100.183 21.3676 100.183 17.6104C100.183 13.8533 98.8543 10.0637 94.8987 10.0637C90.9431 10.0637 89.6132 13.8452 89.6132 17.6104C89.6132 21.3758 90.9509 25.1573 94.8987 25.1573ZM94.8987 21.5872C93.7238 21.5872 93.1203 20.1885 93.1203 17.6104C93.1203 15.0325 93.716 13.6256 94.8987 13.6256C96.0814 13.6256 96.6683 15.0244 96.6683 17.6104C96.6683 20.1965 96.0814 21.5953 94.8987 21.5872ZM79.9578 24.9784H83.2933V20.1315H84.4106C87.7051 20.1315 88.7328 17.0982 88.7328 15.1627C88.7328 13.276 87.5589 10.2751 84.4106 10.2751H79.9578V24.9784ZM83.2933 13.5117H84.084C84.8347 13.5117 85.3154 13.9835 85.3154 15.2033C85.3154 16.7809 84.5003 16.8948 84.084 16.8948H83.2933V13.5117ZM68.9392 10.2751H78.041V24.9784H74.7053V13.829H72.2749V24.9784H68.9392V10.2751ZM62.0967 15.9758C62.635 15.9758 63.6218 15.6181 63.6218 14.5365C63.6218 13.2596 62.4881 13.1784 62.1538 13.1784C61.7704 13.1784 61.0365 13.2434 60.3188 13.5931L60.278 10.3971C61.4116 10.1043 62.2272 10.023 63.1896 10.023C65.9298 10.023 67.145 11.9747 67.145 13.8858C67.145 15.7401 66.1011 16.8623 65.0816 17.2933V17.4315C66.0684 17.7487 67.3734 18.7164 67.3734 20.961C67.3734 23.7422 65.4813 25.2793 63.0509 25.2793C61.7624 25.263 60.906 25.0841 59.8865 24.5149L59.9436 21.457C60.8897 21.8718 61.5258 21.9125 62.1619 21.9125C63.2385 21.9125 63.6625 21.0993 63.6625 20.5137C63.6625 19.6842 63.1406 19.1312 62.007 19.1312H60.6532V15.9758H62.0967ZM48.9825 24.9784H52.359L52.783 22.4329H55.1155L55.5233 24.9784H58.8998L56.0452 10.2751H51.8451C51.8369 10.2751 48.9825 24.9784 48.9825 24.9784ZM53.933 14.7153L54.5691 19.2044H53.2968L53.933 14.7153ZM42.5233 10.2751H49.3658V13.9428H45.9161V24.9784H42.5233V10.2751ZM0.848152 17.7975C0.848152 26.8407 8.06588 34.2086 16.9392 34.2086C25.7961 34.2086 33.0056 26.8407 33.0056 17.7975C33.0056 8.73803 25.7961 1.37016 16.9392 1.37016C8.05769 1.36203 0.848152 8.72996 0.848152 17.7975ZM0 17.7975C0 8.25824 7.59281 0.5 16.9392 0.5C26.2609 0.5 33.8539 8.25017 33.8539 17.7975C33.8539 27.3205 26.2609 35.0706 16.9392 35.0706C7.59281 35.0706 0 27.3205 0 17.7975Z" fill="#8A8782"/>
<path d="M11.8828 6.87574C11.2956 7.13601 10.741 7.46131 10.2273 7.83542C14.2561 6.0056 19.1739 6.11945 21.8163 7.32306C22.6482 7.71341 23.2028 7.95734 23.4556 8.42906C20.7153 7.68084 19.5409 7.54259 17.2492 7.59956C13.987 7.65644 9.64821 8.9739 7.99256 9.98229L7.25858 10.9176C9.64821 9.47809 14.1011 8.53474 16.5723 8.45347C19.3289 8.41283 21.4738 8.67299 23.4393 9.39681C23.3251 9.90917 23.0723 10.1613 22.6482 10.4214C14.7781 9.0227 10.1294 10.6735 5.92926 13.4711L5.61931 14.3982C10.3088 11.1127 16.0503 10.2019 21.588 11.1859C19.6062 11.8934 17.2328 12.056 15.243 12.5196C13.5465 12.9181 12.6413 13.032 10.3822 13.8045C8.09045 14.5689 6.73666 15.3578 5.88841 16.3662C5.48067 16.8379 5.17081 17.3909 5.09739 17.9845C5.06473 18.3343 5.08101 18.6596 5.19519 18.9685C5.28498 19.245 5.50514 19.5215 5.73348 19.798C5.46438 20.2698 5.22785 20.8796 5.61931 21.5953C5.79062 21.9288 6.23912 22.2621 6.66324 22.5794L6.54088 22.929C6.48384 23.3437 6.42671 23.8399 6.69591 24.2464C7.1526 24.9947 7.71527 25.4907 8.60427 25.9624C8.74292 26.5723 8.94679 27.0684 9.41167 27.4994C10.3985 28.4265 12.5923 30.1994 16.507 30.4759C19.4431 30.671 21.539 29.7684 22.3301 29.3699L23.2925 28.8575C21.6532 29.5243 18.8966 29.9229 16.6375 29.7196C13.359 29.4431 10.4311 27.2555 10.0641 26.6211C10.1783 26.7025 10.3332 26.7593 10.4637 26.8163C14.305 28.7111 19.2555 29.7358 25.6087 27.0928L26.1306 26.5805C20.3564 28.4102 15.3082 28.3533 9.88464 25.4582C9.94178 25.1817 10.0641 24.9377 10.3088 24.7506C11.6952 25.3768 13.0327 25.8974 14.6475 26.2226C16.5396 26.5805 18.7009 26.6617 20.4706 26.5805C22.2649 26.4991 25.8125 25.5965 27.4926 24.6856C27.6476 24.5473 27.7209 24.3115 27.8759 24.157C24.5974 25.3768 20.699 25.9461 18.3502 25.7672C16.0503 25.5883 14.0114 25.3118 11.3119 24.0513C11.8339 23.8399 12.3722 23.661 12.9105 23.4983C14.6884 24.0513 16.4988 24.3847 18.6357 24.4823C20.7561 24.5799 25.7146 23.7748 28.8383 21.8474C28.9361 21.5709 29.034 21.27 29.034 21.27C29.034 21.27 24.6952 23.6366 19.7774 23.6366C17.4776 23.6366 16.0748 23.3031 15.0309 23.0428C17.347 22.6118 20.2585 22.2541 23.5372 21.4082C25.1927 20.9772 27.2397 19.9851 28.1695 19.1638C28.9606 18.4319 29.5804 17.4885 29.3684 16.5208C29.3276 16.2605 28.9851 15.6505 28.5528 15.4392C28.9606 14.9105 28.9199 14.4551 28.8627 14.0647C28.822 13.7638 28.6833 13.4305 28.5202 13.1376C28.2511 12.7799 27.9982 12.5034 27.4763 12.1862C27.5579 11.7715 27.5008 11.3485 27.3214 10.9664C26.9135 10.2588 26.1877 9.64891 24.9317 8.9983C24.8747 8.73804 24.7197 8.40466 24.4506 8.07119C22.8684 6.47733 20.283 5.7047 18.1056 5.66406H17.7467C15.2021 5.68847 13.1551 6.27394 11.8828 6.87574ZM24.2304 10.82C24.4261 10.6004 24.7116 10.267 24.785 9.99045C25.3314 10.3483 25.943 10.8769 26.0164 11.4299C25.4455 11.2103 24.8257 10.9744 24.2304 10.82ZM24.7116 13.219C23.79 12.9587 22.9744 12.6498 21.8979 12.4545C22.5585 12.1943 22.9989 11.926 23.3822 11.6088C24.2467 11.8447 25.0541 12.1374 25.7146 12.4383C25.6005 12.609 24.9399 13.2352 24.736 13.2352C24.7278 13.2272 24.7197 13.2272 24.7116 13.219ZM26.3916 13.9103C26.6444 13.715 26.8727 13.4955 27.0848 13.2434C27.6067 13.6988 27.7618 14.0079 27.5089 14.5039C27.1582 14.2436 26.7912 14.1054 26.3916 13.9103ZM6.58164 18.7978C5.15443 16.7891 10.1049 15.3496 11.0509 15.0569C13.4569 14.325 16.2787 13.7802 18.8232 13.4629C20.5767 13.2434 21.5064 13.4467 23.162 13.894C18.8966 15.0569 14.6884 15.431 10.6839 16.6346C7.45436 17.586 6.59802 18.7978 6.58164 18.7978ZM7.64195 19.7656C9.15066 18.4643 12.2172 17.7325 13.3345 17.4804C16.8985 16.6915 20.2178 16.1955 21.588 15.8458C23.2435 15.431 24.4016 15.0407 25.209 14.6421C25.2498 14.5853 26.5629 15.2358 26.6934 15.3904C26.2529 15.7644 25.6331 16.0816 24.9562 16.3174C22.9337 17.0656 19.2473 17.8545 17.2982 18.1554C15.3327 18.4887 13.6852 18.7408 11.5158 19.3345C10.2598 19.6761 9.41167 20.0665 8.79186 20.4812C8.33517 20.1965 8.06598 20.1153 7.64195 19.7656ZM10.4392 21.3432C11.0754 21.0667 11.7686 20.8472 12.4374 20.6763C15.8301 19.8224 18.8232 19.668 22.9499 18.5294C24.9317 17.9927 26.3834 17.4234 27.2887 16.7159C27.4192 16.5939 27.5579 16.4964 27.6965 16.3825C28.8954 18.2773 24.4016 19.733 21.327 20.408C19.7203 20.7333 18.1136 21.0423 16.507 21.3351C14.5008 21.6685 13.8483 21.8474 12.4537 22.2621C11.7686 21.9694 11.0754 21.6767 10.4392 21.3432ZM6.82636 20.7495C7.13622 20.9528 7.36466 21.1073 7.73165 21.3025C7.593 21.4246 7.4217 21.5384 7.29124 21.6767C6.98948 21.4978 6.67953 21.1073 6.82636 20.7495ZM8.43297 22.563C8.62875 22.3841 8.87337 22.2133 9.14257 22.0344C9.72162 22.3109 10.317 22.563 10.8796 22.8233C10.5045 22.9615 10.1457 23.1404 9.80313 23.3601C9.33825 23.0916 8.88156 22.8315 8.43297 22.563ZM7.92733 23.5227C8.25357 23.7422 8.5798 23.9211 8.91413 24.092C8.77548 24.2871 8.67769 24.4417 8.62875 24.645C8.13939 24.2384 7.91105 23.9049 7.92733 23.5227Z" fill="#8A8782"/>
</g>
<defs>
<clipPath id="clip0_141_3356">
<rect width="156" height="35" fill="white" transform="translate(0 0.5)"/>
</clipPath>
</defs>
</svg>
