<svg width="148" height="38" viewBox="0 0 148 38" fill="none" xmlns="http://www.w3.org/2000/svg">
<path d="M28.5739 23.7666L27.9515 18.7694L26.929 23.7666H25.5107L24.377 18.7694L23.6968 23.7666H21.2026L22.6476 13.8299H25.2262L26.1643 18.2159L27.1557 13.8277H29.6521L31.0681 23.7666H28.5739V23.7666ZM37.1657 13.8299V16.3263H34.6427V17.6068H36.4277V20.1054H34.6427V21.2968H37.1657V23.7666H32.144V13.8299H37.1657ZM38.5261 13.8299H44.0279V16.5287H42.5252V23.7644H40V16.5309H38.5261V13.8277V13.8299V13.8299ZM44.9616 23.7666L47.429 13.8299H50.35L52.8175 23.7666H50.35L49.9521 22.3439H47.8269L47.458 23.7666H44.9616V23.7666ZM49.4986 20.3655L48.9051 17.8402L48.2538 20.3699H49.5008L49.4986 20.3655V20.3655ZM58.9128 13.8299L60.8979 23.7666H58.3749L57.2967 16.3575H57.0967L55.9919 23.7666H53.4977L55.425 13.8299H58.9128V13.8299ZM66.9933 13.8299L69.0073 23.7666H66.4842L65.4061 16.3575H65.2061L64.1012 23.7666H61.6071L63.5633 13.8299H66.9933ZM77.4277 13.8299V23.7666H74.905V19.2051L72.5796 23.7666H70.0854V13.8299H72.5796V18.6226L75.0737 13.8277H77.4277V13.8299V13.8299ZM81.7382 13.8299V17.6068H83.6385V13.8277H86.133V23.7666H83.6385V20.1076H81.7382V23.7688H79.2436V13.8322H81.7382V13.8299ZM91.6904 13.8299C91.9968 13.8214 92.3017 13.8821 92.5814 14.0076C92.8611 14.1331 93.109 14.3201 93.3066 14.5546C93.7018 15.0481 93.9023 15.6884 93.9023 16.4441C93.9023 17.0532 93.8179 17.5179 93.6463 17.8669C93.4753 18.187 93.2511 18.4204 92.9662 18.507C93.4043 18.6232 93.7861 18.8911 94.0444 19.2629C94.3559 19.6986 94.4958 20.2521 94.4958 20.8901C94.4958 21.7926 94.2982 22.5173 93.8734 23.013C93.4198 23.5354 92.8241 23.7688 92.0301 23.7688H87.8624V13.8255H91.6904V13.8299ZM90.3851 15.9774V17.4023H90.8121C91.1791 17.4023 91.3789 17.171 91.3789 16.7065C91.3789 16.2108 91.1791 15.9774 90.8121 15.9774H90.3851ZM90.3851 19.7564V21.2102H91.037C91.4366 21.2102 91.6616 20.9768 91.6616 20.4833C91.6616 20.2521 91.6061 20.0765 91.4921 19.9608C91.373 19.8356 91.2094 19.7622 91.037 19.7564H90.3851V19.7564ZM100.82 13.8277V16.3286H98.2972V17.609H100.791V20.1076H98.2994V21.2991H100.822V23.7688H95.8026V13.8322H100.822L100.82 13.8277V13.8277ZM106.549 17.0266C106.347 17.0191 106.147 17.0598 105.964 17.1453C105.782 17.2307 105.622 17.3584 105.5 17.5179C105.27 17.8379 105.159 18.2737 105.159 18.7983C105.159 19.2917 105.27 19.7275 105.526 20.0765C105.641 20.2382 105.795 20.3683 105.974 20.4545C106.153 20.5408 106.351 20.5805 106.549 20.5699C106.831 20.5699 107.031 20.5699 107.171 20.5122C107.34 20.4833 107.482 20.4233 107.595 20.3677V23.7688C107.54 23.7977 107.398 23.8266 107.256 23.8555C107.116 23.8844 106.86 23.8844 106.549 23.8844C105.244 23.8844 104.192 23.3909 103.401 22.315C102.692 21.3547 102.352 20.1921 102.352 18.7983C102.352 17.4312 102.692 16.2685 103.401 15.3082C104.165 14.2634 105.215 13.7411 106.549 13.7411C106.775 13.7411 106.971 13.7411 107.142 13.7699C107.313 13.8277 107.453 13.8589 107.595 13.8855V17.2578C107.484 17.2 107.34 17.1422 107.256 17.111C107.025 17.0527 106.787 17.0242 106.549 17.0266V17.0266ZM108.929 13.8277H114.458V16.5309H112.955V23.7666H110.432V16.5309H108.929V13.8277V13.8277ZM118.512 17.5179H120.044C120.753 17.5179 121.349 17.7801 121.8 18.3048C122.312 18.8561 122.54 19.583 122.54 20.5411C122.54 21.5014 122.312 22.2861 121.829 22.8974C121.619 23.1701 121.348 23.3904 121.039 23.5412C120.729 23.6919 120.388 23.7691 120.044 23.7666H115.989V13.8299H121.803V15.9196H118.512V17.5201V17.5179V17.5179ZM118.512 19.932V21.3547H119.137C119.562 21.3547 119.759 21.1235 119.759 20.63C119.759 20.3966 119.704 20.221 119.591 20.1054C119.531 20.046 119.46 19.9997 119.383 19.9698C119.304 19.9399 119.221 19.927 119.137 19.932H118.512ZM123.334 23.7666L125.801 13.8299H128.691L131.159 23.7666H128.691L128.325 22.3439H126.169L125.799 23.7666H123.332H123.334V23.7666ZM127.842 20.3099L127.247 17.898L126.593 20.3099H127.842V20.3099ZM134.958 13.8277V17.6068H136.83V13.8277H139.326V23.7666H136.83V20.1076H134.958V23.7688H132.435V13.8322H134.958V13.8277ZM143.605 13.8277V17.4312L145.337 13.8299H147.916L145.704 18.4493L148 23.7666H145.421L143.607 19.4941V23.7666H141.111V13.8299H143.607L143.605 13.8277V13.8277ZM8.30724 10.8601C12.5309 11.0157 15.9053 14.4924 15.932 18.7538C15.9415 20.8634 15.1148 22.8909 13.6329 24.3924C12.1509 25.8939 10.1345 26.7472 8.02493 26.7654C5.91378 26.7784 3.88357 25.9539 2.37931 24.4726C0.87505 22.9911 0.0194608 20.9738 8.35866e-05 18.8628C-0.00931031 16.8096 0.773418 14.8319 2.18537 13.3413C3.59732 11.8507 5.52971 10.9619 7.58034 10.8601L7.58922 13.1209C6.13407 13.217 4.77036 13.8646 3.77613 14.9315C2.7819 15.9984 2.23203 17.4044 2.2386 18.8628C2.24498 19.7132 2.44153 20.5514 2.81386 21.3162C3.1862 22.0808 3.72486 22.7525 4.39042 23.282L6.55113 17.5912L5.05064 17.6023C5.05064 17.6023 4.75498 17.5423 4.58604 17.6824L4.23037 18.0247C4.23037 18.0247 4.20147 17.0866 4.24371 16.9888C4.28594 16.8688 4.40598 15.9284 4.8239 15.4483C5.24626 14.9859 5.91982 14.9214 5.91982 14.9214L10.7214 14.8881L10.0278 15.6105L11.695 23.142C12.3217 22.6029 12.8237 21.9341 13.1661 21.1817C13.5085 20.4293 13.6831 19.6115 13.6779 18.7849C13.6646 17.333 13.1002 15.9404 12.099 14.8889C11.0979 13.8373 9.73455 13.2053 8.28504 13.1209L8.30724 10.8601ZM6.47333 15.5527C6.61782 15.5527 6.74008 15.6639 6.74008 15.8018C6.74008 15.9373 6.62227 16.0507 6.47777 16.0507C6.33106 16.0529 6.21102 15.9418 6.21102 15.8062C6.21102 15.6661 6.32662 15.555 6.47333 15.5527Z" fill="#8A8782"/>
</svg>
