<svg width="152" height="40" viewBox="0 0 152 40" fill="none" xmlns="http://www.w3.org/2000/svg">
<g clip-path="url(#clip0_141_3336)">
<path d="M15.3794 0.526127C12.49 0.526127 9.66559 1.38056 7.26315 2.98139C4.8607 4.58213 2.98825 6.85739 1.88256 9.5195C0.776863 12.1815 0.487533 15.1108 1.0512 17.9368C1.61487 20.7628 3.0063 23.3585 5.04933 25.396C7.09246 27.4334 9.69546 28.821 12.5293 29.3831C15.3632 29.9452 18.3006 29.6567 20.97 28.554C23.6395 27.4514 25.921 25.5841 27.5262 23.1883C29.1315 20.7925 29.9883 17.9759 29.9883 15.0945C29.9897 13.181 29.6127 11.286 28.8791 9.51781C28.1454 7.74971 27.0694 6.14307 25.7126 4.79002C24.3558 3.43697 22.7447 2.36392 20.9716 1.63226C19.1985 0.900621 17.2983 0.524748 15.3794 0.526127V0.526127ZM13.2683 21.2735L12.2128 24.4314C10.2378 23.745 8.52686 22.4612 7.31835 20.759C6.10985 19.0567 5.46416 17.0209 5.47113 14.9352C5.4781 12.8496 6.1374 10.818 7.3573 9.12392C8.5771 7.42971 10.2966 6.15729 12.2761 5.48402L13.3316 8.64192C12.0252 9.08171 10.8917 9.92234 10.0935 11.0435C9.2953 12.1648 8.87318 13.5091 8.88775 14.884C8.80499 16.2854 9.19281 17.6743 9.98996 18.8314C10.787 19.9884 11.948 20.8478 13.2894 21.2735H13.2683ZM18.2505 24.5682L17.195 21.3472C18.5227 20.9187 19.6809 20.0833 20.5047 18.9599C21.3283 17.8367 21.7756 16.4827 21.7826 15.0911C21.7896 13.6995 21.3561 12.3412 20.5437 11.2096C19.7314 10.0781 18.5815 9.23108 17.2583 8.78929L18.3139 5.56823C20.3208 6.23476 22.0646 7.5176 23.2955 9.23308C24.5263 10.9485 25.1811 13.0085 25.1658 15.1179C25.1506 17.2273 24.4662 19.2777 23.2107 20.9753C21.9551 22.673 20.193 23.9307 18.1766 24.5682H18.2505V24.5682Z" fill="#8A8782"/>
<path d="M40.3643 39.4105H38.0738V32.6947H42.0427V33.3683H38.876V35.4736H40.3538C41.7049 35.4736 42.581 36.0105 42.581 37.3578V37.421C42.581 38.7368 41.7049 39.4105 40.3643 39.4105V39.4105ZM40.3643 38.8105C41.4199 38.8105 41.7788 38.3368 41.7788 37.5368V37.4736C41.7788 36.6631 41.3038 36.1999 40.301 36.1999H38.876V38.821L40.3643 38.8105ZM43.3304 38.0736C43.3304 36.9368 44.5443 36.5262 45.8215 36.5262H46.5604V36.1894C46.5604 35.3789 46.286 35.0526 45.5049 35.0526C44.7238 35.0526 44.4493 35.3262 44.3649 35.9262H43.5521C43.5755 35.6956 43.6451 35.472 43.7566 35.2687C43.8681 35.0653 44.0193 34.8861 44.2013 34.7419C44.3832 34.5977 44.5924 34.4913 44.8162 34.429C45.0401 34.3667 45.2742 34.3496 45.5049 34.3789C45.7455 34.3457 45.9906 34.3675 46.2217 34.4427C46.4527 34.5178 46.6636 34.6442 46.8385 34.8126C47.0133 34.9809 47.1475 35.1866 47.231 35.4141C47.3145 35.6417 47.345 35.8852 47.3204 36.1262V39.3473H46.4443V38.7368C46.2716 38.9829 46.0379 39.1801 45.7659 39.3093C45.494 39.4385 45.1931 39.4951 44.8927 39.4736C44.0693 39.4736 43.2777 39.0736 43.2777 38.0631L43.3304 38.0736V38.0736ZM46.5604 37.7368V37.1368H45.8849C44.8293 37.1368 44.2065 37.4105 44.2065 38.0736C44.2065 38.7368 44.481 38.8841 45.146 38.8841C45.811 38.8841 46.5604 38.4631 46.5604 37.7262V37.7368ZM51.8382 37.2631H49.4104V39.4736H48.5554V34.5683H49.3682V36.6736H51.796V34.5683H52.6088V39.4736H51.796L51.8382 37.2631V37.2631ZM54.8043 36.9262V39.4105H53.9915V34.5052H54.8043V36.7894L56.8204 34.5052H57.7599L55.6488 36.7894L57.9393 39.4105H56.9999L54.8043 36.9262ZM149.108 17.7157L150.723 19.6631C150.014 20.3869 149.165 20.9576 148.226 21.3397C147.287 21.7218 146.279 21.9072 145.265 21.8841C143.969 21.9274 142.68 21.6754 141.497 21.1473C140.451 20.5856 139.591 19.7341 139.02 18.6957C138.449 17.6572 138.191 16.4759 138.278 15.2947C138.278 11.3368 140.969 8.37888 144.949 8.37888C149.393 8.37888 151.546 11.6736 151.208 15.9684H141.106C141.14 16.496 141.299 17.0082 141.569 17.4636C141.838 17.919 142.212 18.3047 142.658 18.5894C143.494 19.0797 144.456 19.314 145.424 19.2631C146.111 19.2696 146.793 19.1357 147.426 18.8696C148.059 18.6035 148.631 18.2108 149.108 17.7157V17.7157ZM141.233 13.621H148.369C148.254 12.7896 147.829 12.0318 147.18 11.4976C146.531 10.9635 145.704 10.6919 144.864 10.7368C144.013 10.7065 143.18 10.9805 142.513 11.5094C141.848 12.0384 141.394 12.7873 141.233 13.621ZM73.361 21.5473H76.992L71.271 14.8947L76.9287 8.65256H73.361L69.0543 13.621H67.7665V8.65256H65.0115V21.4736H67.7665V16.3789H69.0438L73.361 21.5473V21.5473ZM85.2781 11.021C84.7461 11.0157 84.2194 11.1195 83.7307 11.326C83.2409 11.5326 82.7986 11.8374 82.4323 12.2215C82.0661 12.6056 81.7832 13.0608 81.6005 13.5587C81.4179 14.0566 81.3409 14.5866 81.3725 15.1157C81.3409 15.6449 81.4179 16.1749 81.6005 16.6728C81.7832 17.1707 82.0661 17.6258 82.4323 18.0099C82.7986 18.394 83.2409 18.6988 83.7307 18.9053C84.2194 19.1119 84.7461 19.2157 85.2781 19.2105C85.808 19.2196 86.3337 19.1179 86.8224 18.9118C87.31 18.7058 87.7492 18.3999 88.1112 18.014C88.4733 17.6281 88.7498 17.1709 88.924 16.6716C89.0982 16.1724 89.1647 15.6424 89.1203 15.1157C89.1678 14.5874 89.1034 14.0551 88.9314 13.5533C88.7583 13.0515 88.4817 12.5916 88.1197 12.2033C87.7576 11.8151 87.3174 11.5073 86.8277 11.3C86.3379 11.0927 85.8101 10.9905 85.2781 10.9999V11.021V11.021ZM85.7531 8.39993C89.3842 8.39993 92.0864 11.221 92.0864 15.1157C92.0864 19.0105 89.4581 21.8947 85.7531 21.8947C84.9709 21.9303 84.1898 21.7996 83.4615 21.5111C82.7332 21.2225 82.0755 20.7827 81.5309 20.221V26.9368H78.7442V8.65256H81.5098V10.1999C82.027 9.59446 82.6793 9.11825 83.414 8.8093C84.1497 8.50035 84.9467 8.3674 85.7426 8.42098L85.7531 8.39993V8.39993ZM122.381 8.67361H110.833V11.221H115.214V21.4736H118.043V11.2631H122.444V8.65256L122.381 8.67361ZM63.0588 8.67361H51.5427V11.221H55.9443V21.4736H58.7732V11.2631H63.1221V8.65256L63.0588 8.67361V8.67361ZM48.1015 15.0947C48.1015 14.0254 47.6755 12.9999 46.9174 12.2439C46.1592 11.4878 45.1309 11.0631 44.0588 11.0631C42.9865 11.0631 41.9582 11.4878 41.2 12.2439C40.4419 12.9999 40.016 14.0254 40.016 15.0947C40.016 16.1639 40.4419 17.1893 41.2 17.9454C41.9582 18.7015 42.9865 19.1262 44.0588 19.1262C45.1309 19.1262 46.1592 18.7015 46.9174 17.9454C47.6755 17.1893 48.1015 16.1639 48.1015 15.0947ZM37.1977 15.0947C37.1703 13.7213 37.5538 12.371 38.299 11.2159C39.0443 10.0608 40.1176 9.15309 41.3822 8.60856C42.6467 8.06403 44.0453 7.9074 45.3994 8.15867C46.7536 8.40982 48.0021 9.05751 48.9858 10.019C49.9695 10.9806 50.6437 12.2124 50.9226 13.5575C51.2015 14.9027 51.0724 16.3001 50.5518 17.5718C50.0312 18.8435 49.1426 19.9317 47.9994 20.6979C46.8561 21.464 45.51 21.8733 44.1327 21.8736C43.2238 21.9096 42.3172 21.76 41.4685 21.4339C40.62 21.1077 39.8471 20.612 39.1976 19.9771C38.5481 19.3422 38.0357 18.5816 37.6917 17.7419C37.3478 16.9024 37.1796 16.0014 37.1977 15.0947V15.0947ZM136.05 8.65256V21.4736H133.285V13.221L126.55 21.4841H124.323V8.65256H127.089V16.9789L133.823 8.71572H136.05V8.65256V8.65256ZM108.975 21.5473H106.21V8.65256H108.975V21.5473V21.5473ZM101.766 17.1157C101.779 16.8619 101.739 16.6081 101.65 16.3701C101.561 16.1321 101.423 15.9151 101.245 15.7325C101.068 15.5497 100.856 15.4054 100.62 15.3083C100.384 15.2113 100.131 15.1637 99.8764 15.1684H97.1109V19.1262H99.9398C100.195 19.1212 100.446 19.0643 100.679 18.9592C100.911 18.8541 101.12 18.7029 101.292 18.5148C101.463 18.3266 101.595 18.1055 101.678 17.865C101.762 17.6245 101.795 17.3695 101.776 17.1157H101.766V17.1157ZM104.595 17.1157C104.607 17.7101 104.497 18.3007 104.269 18.8499C104.041 19.3991 103.7 19.895 103.269 20.3058C102.838 20.7168 102.326 21.0337 101.766 21.2366C101.205 21.4394 100.609 21.5237 100.014 21.4841H94.2926V8.65256H97.1109V12.8631H100.278C100.85 12.8286 101.423 12.9143 101.959 13.115C102.495 13.3156 102.984 13.6266 103.391 14.0276C103.8 14.4287 104.119 14.9109 104.328 15.4429C104.537 15.975 104.632 16.5449 104.605 17.1157H104.595V17.1157Z" fill="#8A8782"/>
</g>
<defs>
<clipPath id="clip0_141_3336">
<rect width="152" height="40" fill="white"/>
</clipPath>
</defs>
</svg>
