<svg width="146" height="36" viewBox="0 0 146 36" fill="none" xmlns="http://www.w3.org/2000/svg">
<g clip-path="url(#clip0_141_3340)">
<path d="M39.5165 15.0193C40.3796 15.0193 41.3403 15.0491 42.1734 15.6101C42.7288 15.9767 43.3818 16.7022 43.3818 17.9962C43.3818 19.4174 42.4812 21.0928 39.9818 21.0928H37.8803V24.9898H36.0415V15.0193H39.5165V15.0193ZM39.5916 19.6343C39.9968 19.6343 40.5823 19.6492 41.0476 19.2154C41.3704 18.9237 41.543 18.43 41.543 18.0112C41.543 17.6222 41.3853 17.151 41.0626 16.8743C40.7398 16.5975 40.2295 16.4628 39.6591 16.4628H37.8803V19.6343H39.5916V19.6343ZM45.0781 18.3328C45.5885 17.8541 46.3465 17.4352 47.4799 17.4352C48.6207 17.4352 49.3788 17.8541 49.8891 18.3328C50.6471 19.0433 51.0374 20.1503 51.0374 21.2798C51.0374 22.4093 50.6471 23.5163 49.8891 24.2268C49.3788 24.7055 48.6207 25.1318 47.4799 25.1318C46.3465 25.1318 45.5885 24.7055 45.0781 24.2268C44.3201 23.5163 43.9298 22.4093 43.9298 21.2798C43.9223 20.1429 44.3201 19.0433 45.0781 18.3328V18.3328ZM46.3165 23.3741C46.4741 23.5611 46.8419 23.9126 47.4799 23.9126C48.1253 23.9126 48.4856 23.5686 48.6432 23.3741C48.7633 23.247 49.1986 22.6636 49.1986 21.2798C49.1986 19.8961 48.7633 19.3201 48.6432 19.1855C48.4856 18.9985 48.1178 18.647 47.4799 18.647C46.8419 18.647 46.4741 18.991 46.3165 19.1855C46.2039 19.3201 45.7611 19.8961 45.7611 21.2798C45.7611 22.6561 46.2039 23.2395 46.3165 23.3741ZM56.8541 20.2925C56.8241 19.9185 56.6815 19.4772 56.4863 19.2005C56.3062 18.9386 55.9609 18.647 55.3755 18.647C54.8051 18.647 54.4298 18.9386 54.1971 19.3276C53.8293 19.9259 53.8068 20.8535 53.8068 21.2798C53.8068 21.9605 53.9045 22.7758 54.1971 23.2395C54.3847 23.5312 54.7676 23.9052 55.3755 23.9052C55.8108 23.9052 56.1786 23.7332 56.4563 23.3517C56.6739 23.045 56.8241 22.6112 56.8466 22.2297L58.3927 22.4168C58.3026 23.0974 58.0024 23.8603 57.462 24.3465C57.0117 24.7504 56.3062 25.1169 55.3155 25.1169C54.2122 25.1169 53.4917 24.6831 53.0713 24.2867C52.5009 23.7481 51.9605 22.7907 51.9605 21.2798C51.9605 19.8736 52.4408 19.0284 52.8237 18.5796C53.364 17.9363 54.2797 17.4203 55.3605 17.4203C56.2836 17.4203 57.0417 17.7419 57.5146 18.2356C57.9949 18.7142 58.2876 19.4398 58.3927 20.0906L56.8541 20.2925V20.2925ZM64.0894 20.2925C64.0594 19.9185 63.9167 19.4772 63.7216 19.2005C63.549 18.9386 63.1962 18.647 62.6108 18.647C62.0404 18.647 61.6651 18.9386 61.4325 19.3276C61.0722 19.9259 61.0422 20.8535 61.0422 21.2798C61.0422 21.9605 61.1473 22.7758 61.4325 23.2395C61.6201 23.5312 62.0029 23.9052 62.6108 23.9052C63.0462 23.9052 63.4139 23.7332 63.6916 23.3517C63.9093 23.045 64.0594 22.6112 64.0819 22.2297L65.628 22.4168C65.5455 23.0974 65.2377 23.8603 64.6973 24.3465C64.247 24.7504 63.549 25.1169 62.5583 25.1169C61.4475 25.1169 60.7345 24.6831 60.3142 24.2867C59.7438 23.7481 59.2033 22.7907 59.2033 21.2798C59.2033 19.8736 59.6837 19.0284 60.0665 18.5796C60.6068 17.9363 61.5226 17.4203 62.6033 17.4203C63.519 17.4203 64.277 17.7419 64.7574 18.2356C65.2377 18.7142 65.5304 19.4398 65.6355 20.0906L64.0894 20.2925V20.2925ZM73.4338 22.8356C73.1712 23.7032 72.6456 24.2119 72.2103 24.5186C71.6249 24.9074 70.8668 25.1318 70.0637 25.1318C69.058 25.1318 68.0373 24.7055 67.4218 24.0847C66.8514 23.5088 66.4311 22.499 66.4311 21.3097C66.4311 19.7988 67.0615 18.7965 67.7446 18.2281C68.1423 17.8915 68.8854 17.4278 70.0037 17.4278C71.4222 17.4278 72.3229 18.0785 72.8032 18.7517C73.3134 19.4473 73.5535 20.4197 73.5535 21.2648V21.6014H68.2775C68.2775 21.6837 68.2624 22.3569 68.5251 22.8954C68.9154 23.7107 69.636 23.9126 70.1313 23.9126C70.5216 23.9126 71.0169 23.793 71.4297 23.3741C71.6774 23.1123 71.7825 22.8655 71.82 22.6337L73.4338 22.8356V22.8356ZM71.7149 20.4944C71.7149 20.0756 71.6099 19.5968 71.3922 19.2752C71.1145 18.8713 70.6191 18.5945 70.0788 18.5945C69.5234 18.5945 69.043 18.8713 68.7502 19.2154C68.5176 19.5071 68.315 19.9559 68.315 20.4944H71.7149V20.4944ZM80.7511 17.5773V24.9898H79.0556V18.8339H77.1335C77.0891 19.8362 77.059 20.2401 77.0289 20.9282C76.9837 21.6986 76.9311 23.3218 76.2711 24.2119C75.903 24.6905 75.4522 24.8776 75.1301 24.9673C74.942 25.0271 74.7396 25.0496 74.5296 25.0496C74.3866 25.0496 74.2368 25.0346 74.0938 24.9898V23.7107H74.2368C74.4543 23.6957 74.7471 23.5835 74.9345 23.434C75.52 22.9702 75.5727 21.923 75.6329 21.0928C75.7081 20.0008 75.7232 19.35 75.7299 18.3627L75.745 17.5773H80.7511V17.5773ZM84.2265 20.2177H86.0952C86.5753 20.2177 87.5063 20.2775 88.1219 20.8834C88.6773 21.4219 88.73 22.1774 88.73 22.5813C88.73 23.6434 88.2942 24.182 87.9563 24.4587C87.8367 24.5485 87.2888 24.9823 86.2382 24.9823H82.5378V17.5773H84.2265V20.2177V20.2177ZM84.2265 23.7631H85.5548C85.8777 23.7631 86.2231 23.7481 86.5159 23.5013C86.6882 23.3367 86.8982 23.0675 86.8982 22.5962C86.8982 22.1924 86.7785 21.8707 86.4482 21.6538C86.1554 21.4668 85.7874 21.4369 85.5624 21.4369H84.2341V23.7631H84.2265V23.7631ZM91.1916 17.5773L92.5651 19.8811L93.9912 17.5773H95.537L93.3606 20.9282L95.9427 24.9823H93.9611L92.2723 22.1924L90.4933 24.9823H88.9475L91.4844 21.1377L89.2101 17.5773H91.1916V17.5773ZM97.2484 18.3328C97.7586 17.8541 98.5172 17.4352 99.6499 17.4352C100.791 17.4352 101.549 17.8541 102.06 18.3328C102.817 19.0433 103.208 20.1503 103.208 21.2798C103.208 22.4093 102.81 23.5163 102.06 24.2268C101.549 24.7055 100.791 25.1318 99.6499 25.1318C98.5172 25.1318 97.7586 24.7055 97.2484 24.2268C96.4905 23.5163 96.1 22.4093 96.1 21.2798C96.1 20.1429 96.4905 19.0433 97.2484 18.3328ZM98.4871 23.3741C98.6444 23.5611 99.0124 23.9126 99.6499 23.9126C100.296 23.9126 100.656 23.5686 100.821 23.3741C100.934 23.247 101.376 22.6636 101.376 21.2798C101.376 19.8961 100.941 19.3201 100.821 19.1855C100.664 18.9985 100.296 18.647 99.6499 18.647C99.0124 18.647 98.6444 18.991 98.4871 19.1855C98.3667 19.3201 97.9317 19.8961 97.9317 21.2798C97.9317 22.6561 98.3742 23.2395 98.4871 23.3741ZM104.116 19.5819C104.334 18.6843 104.904 18.1907 105.309 17.9438C105.557 17.7868 106.24 17.4352 107.41 17.4352C108.139 17.4352 108.882 17.5624 109.437 17.8691C110.255 18.3179 110.458 18.9686 110.458 19.4398C110.458 19.9484 110.21 20.9208 108.942 21.0629V21.0928C109.377 21.1526 109.858 21.3396 110.151 21.6463C110.413 21.923 110.616 22.3868 110.616 22.8805C110.616 23.621 110.18 24.2717 109.625 24.6382C108.957 25.0721 108.034 25.1318 107.351 25.1318C106.66 25.1318 105.617 25.0571 104.882 24.4811C104.476 24.1595 104.093 23.606 103.981 22.9104L105.512 22.6486C105.572 22.8805 105.7 23.232 105.872 23.434C106.255 23.8753 106.848 23.9126 107.231 23.9126C107.614 23.9126 108.019 23.8678 108.341 23.6509C108.634 23.4489 108.777 23.1722 108.777 22.8056C108.777 22.499 108.717 22.2521 108.454 22.0352C108.116 21.7585 107.666 21.7136 107.246 21.7136H106.473V20.5767H107.246C107.538 20.5767 107.958 20.5169 108.192 20.4047C108.499 20.2476 108.672 19.9858 108.672 19.5595C108.672 19.3276 108.581 19.1032 108.364 18.9311C108.026 18.6544 107.546 18.6395 107.298 18.6395C106.96 18.6395 106.465 18.6843 106.06 19.0284C105.887 19.1705 105.655 19.4473 105.579 19.8811L104.116 19.5819V19.5819ZM119.27 16.7621H114.443V18.9686H116.59C117.363 18.9686 118.106 19.0284 118.864 19.552C119.607 20.0606 120.073 20.816 120.073 21.9081C120.073 22.9253 119.689 23.6808 119.209 24.1595C118.482 24.885 117.648 24.9898 116.778 24.9898H112.11V15.0193H119.27V16.7621ZM114.443 23.2395H116.327C116.68 23.2395 117.003 23.2245 117.333 22.8879C117.656 22.5663 117.7 22.2073 117.7 21.9305C117.7 21.6164 117.611 21.2948 117.333 21.018C117.003 20.6889 116.575 20.6515 116.268 20.6515H114.443V23.2395V23.2395ZM121.274 19.6343C121.506 18.632 122.159 18.1233 122.557 17.8915C123.135 17.5549 123.908 17.4278 124.876 17.4278C126.099 17.4278 127.338 17.5848 127.893 18.7367C128.186 19.3351 128.156 19.9709 128.156 20.5244V23.3891C128.156 23.9875 128.238 24.541 128.373 24.9898H126.257C126.197 24.698 126.152 24.3091 126.144 23.8154C125.867 24.3091 125.191 25.1393 123.653 25.1393C122.969 25.1393 122.264 24.9673 121.784 24.5709C121.318 24.1894 121.025 23.5835 121.025 22.9178C121.025 22.1774 121.348 21.2873 122.617 20.7637C123.435 20.4271 124.763 20.3149 125.356 20.285L126.054 20.2551V20.098C126.054 19.896 126.039 19.4622 125.837 19.2229C125.559 18.9012 125.003 18.8863 124.786 18.8863C124.486 18.8863 124.118 18.9162 123.81 19.1032C123.622 19.2154 123.375 19.4547 123.285 19.8587L121.274 19.6343V19.6343ZM125.402 21.4817C124.673 21.5416 123.945 21.6164 123.532 22.1175C123.42 22.2596 123.3 22.484 123.3 22.7832C123.3 23.1049 123.458 23.3218 123.622 23.434C123.825 23.591 124.133 23.6658 124.425 23.6658C124.861 23.6658 125.371 23.4788 125.664 23.1273C125.709 23.0824 126.054 22.6486 126.054 21.8034V21.4145L125.402 21.4817ZM132.014 17.5773V20.3523H134.362V17.5773H136.532V24.9823H134.362V21.8707H132.014V24.9823H129.845V17.5773H132.014V17.5773ZM140.397 17.5773V20.4271H140.983C141.613 20.4271 141.875 20.1204 142.034 19.7839C142.341 19.1331 142.326 18.6245 142.604 18.1159C142.821 17.7119 143.114 17.6072 143.302 17.5773H145.096C144.863 17.8241 144.66 18.1159 144.525 18.3776C144.293 18.8564 144.075 19.6418 143.94 19.9784C143.767 20.4421 143.475 20.9058 142.731 20.9657V20.9956C143.129 21.0554 143.535 21.2573 143.842 21.7061C144.03 21.9829 144.157 22.3419 144.368 22.9104C144.57 23.4938 144.66 23.6957 144.848 24.1445C144.998 24.4811 145.081 24.6831 145.328 24.9898H143.287C142.964 24.885 142.746 24.6681 142.484 23.9126C142.281 23.3367 142.251 23.1273 142.116 22.8056L142.011 22.5439C141.793 21.9904 141.501 21.8782 141.05 21.8782H140.397V24.9898H138.228V17.5773H140.397V17.5773Z" fill="#8A8782"/>
<path d="M16.0467 36C7.19773 36 0 28.8344 0 20.0158C0 14.952 2.33419 10.2921 6.40218 7.24043L6.56729 7.10573V0H15.7764V4.03158H16.0467C24.888 4.03158 32.0858 11.2046 32.0858 20.0233C32.0858 28.8344 24.888 36 16.0467 36Z" fill="#8A8782"/>
<path d="M11.4007 20.2701L14.7406 17.0015V14.78L11.4007 18.0337V20.2701ZM11.4007 11.99L14.7406 8.71389V6.61959L11.4007 9.87324V11.99ZM11.4007 14.7276L14.7406 11.459V9.36467L11.4007 12.6183V14.7276ZM10.4475 6.64203L10.0047 6.21569V1.03223H9.4944V5.72203L9.05904 5.2882V1.03223H8.54872V4.80202L8.1059 4.36819V1.03223H7.60303V5.97634L10.9504 9.24497V1.03223H10.4475V6.64203ZM11.4007 17.4652L14.7406 14.1965V12.1022L11.4007 15.3559V17.4652ZM7.60303 17.0015L10.9504 20.2701V18.0337L7.60303 14.78V17.0015V17.0015ZM14.2377 4.36819L13.7949 4.80202V1.03223H13.2921V5.29568L12.8492 5.72203V1.03223H12.3464V6.20821L11.9036 6.64203V1.03223H11.4007V9.24497L14.7406 5.97634V1.03223H14.2377V4.36819V4.36819ZM7.60303 8.71389L10.9504 11.99V9.87324L7.60303 6.61959V8.71389V8.71389ZM7.60303 11.459L10.9504 14.7276V12.6183L7.60303 9.36467V11.459V11.459ZM7.60303 14.1965L10.9504 17.4652V15.3559L7.60303 12.1022V14.1965V14.1965ZM27.5149 15.9244H19.3866C19.5592 15.6551 19.6568 15.341 19.6568 15.0044C19.6568 14.0395 18.8687 13.2616 17.9005 13.2616C16.9323 13.2616 16.1517 14.047 16.1517 15.0044C16.1517 15.3859 16.2718 15.7299 16.4819 16.0142C16.3319 16.1114 16.2267 16.2834 16.2267 16.4854C16.2267 16.6799 16.3319 16.8519 16.4819 16.9491C16.2793 17.2334 16.1517 17.5849 16.1517 17.9589C16.1517 18.9238 16.9323 19.7017 17.9005 19.7017C18.8687 19.7017 19.6568 18.9238 19.6568 17.9589C19.6568 17.6223 19.5592 17.3006 19.3866 17.0389H25.4359V17.4054H24.8355V17.9215H25.4359V18.4526H24.8355V19.4324H25.4359V18.9911H26.3216V19.4324H26.9145V18.4526H26.3216V17.9215H26.9145V17.4054H26.3216V17.0389H27.5149C27.7476 17.0389 27.9353 16.8444 27.9353 16.6125V16.3508C27.9353 16.1189 27.7401 15.9244 27.5149 15.9244V15.9244ZM18.8087 17.9589C18.8087 18.4526 18.4033 18.8564 17.9005 18.8564C17.4051 18.8564 16.9999 18.4526 16.9999 17.9589C16.9999 17.7794 17.0524 17.6073 17.1499 17.4652L17.3976 17.0389C17.24 16.9043 17.1424 16.7023 17.1424 16.4779C17.1424 16.2535 17.24 16.0516 17.3976 15.9169L17.1499 15.4906C17.0524 15.3485 16.9999 15.1839 16.9999 14.9969C16.9999 14.5032 17.4051 14.0993 17.9005 14.0993C18.3958 14.0993 18.8087 14.5032 18.8087 14.9969C18.8087 15.3634 18.3808 16.2386 18.3808 16.2386V16.7098C18.3808 16.7173 18.8087 17.5924 18.8087 17.9589V17.9589Z" fill="#2F2D30"/>
<path d="M4.56348 14.8621V17.0387C4.56348 19.1181 5.47163 20.4569 5.997 20.9731C6.30473 21.2722 9.41197 24.324 9.45705 24.3613C10.4252 25.3038 10.5904 25.6105 10.808 26.149V23.7406C10.808 21.5938 9.7197 20.7636 9.15677 20.2176C7.84337 18.946 6.97272 18.1083 6.25973 17.4052C4.92373 16.0663 4.56348 14.8621 4.56348 14.8621V14.8621ZM9.15685 25.5955C7.8509 24.3165 6.97272 23.4862 6.26725 22.7831C4.92377 21.4443 4.57101 20.5392 4.57101 20.5392V22.4166C4.57101 24.496 5.51671 25.8199 5.99708 26.3659C6.30473 26.6651 9.4195 29.7019 9.45705 29.7393C10.4252 30.6817 10.5904 31.1305 10.808 31.6616V29.1184C10.808 26.9718 9.71225 26.1415 9.15685 25.5955V25.5955Z" fill="#2F2D30"/>
<path d="M16.0465 5.0564C15.8064 5.0564 15.5662 5.06387 15.326 5.07136V6.0886C15.5662 6.07364 15.7989 6.07364 16.0465 6.07364C23.7696 6.07364 30.0292 12.3117 30.0292 20.0159C30.0292 27.7125 23.7696 33.9506 16.0465 33.9506C8.32344 33.9506 2.05639 27.7125 2.05639 20.0159C2.05639 15.7449 3.98529 11.9228 7.02502 9.36475V8.06327C3.38485 10.7933 1.03564 15.1316 1.03564 20.0159C1.03564 28.2735 7.75298 34.9679 16.0465 34.9679C24.3326 34.9679 31.0499 28.2735 31.0499 20.0159C31.0499 11.7582 24.3326 5.0564 16.0465 5.0564Z" fill="#2F2D30"/>
<path d="M26.6597 27.8247C26.8923 27.5105 27.11 27.1815 27.3201 26.8449V24.8403H26.6597V27.8247ZM28.5811 24.1073C28.6786 23.8156 28.7612 23.5239 28.8362 23.2322H26.6597V23.7633H26.9899C27.5678 23.7483 28.2208 23.7408 28.5811 24.1073Z" fill="#2F2D30"/>
<path d="M14.0876 23.1575H13.4946V29.1188H14.0876V23.1575V23.1575Z" fill="#2F2D30"/>
<path d="M12.1364 22.013H14.0878C14.5906 22.013 14.9435 22.1177 15.146 22.3121C15.3487 22.5066 15.4463 22.8582 15.4463 23.3594V28.9317C15.4463 29.4329 15.3487 29.7845 15.146 29.9789C14.8383 30.2855 14.2679 30.2855 13.7951 30.2855C13.69 30.2781 13.585 30.2781 13.4949 30.2781V32.9184C13.69 32.9558 13.8852 32.9933 14.0878 33.0232V30.854C14.9885 30.854 15.5739 30.5474 15.8516 29.934V33.1652H16.0467C16.1668 33.1652 16.2944 33.1652 16.4145 33.1578V23.4566C16.4145 22.9405 16.5196 22.5815 16.7147 22.3795C16.9099 22.1775 17.2626 22.0728 17.7579 22.0728C18.2608 22.0728 19.0039 21.998 19.3867 22.3795C19.5818 22.5815 19.6718 22.9479 19.6718 23.4566V26.3138H18.3359V23.2621H17.7579V33.0531C17.9531 33.0306 18.1408 33.0007 18.3359 32.9633V26.8898H19.6718V32.6567C19.9495 32.5819 20.2198 32.4921 20.4899 32.3948V27.1142C20.4899 26.5158 20.6326 26.067 21.2405 25.865L20.565 22.1925H21.916L22.1412 26.2016H22.3063L22.5315 22.1925H23.9574L23.1919 25.865C23.8299 26.0894 23.9574 26.4784 23.9574 27.1142V30.5249C24.3553 30.2258 24.7305 29.9116 25.0908 29.5675V22.1551H29.0537C29.0837 21.9756 29.1062 21.8036 29.1287 21.6166H19.867L19.9946 22.2822C19.7018 21.7437 19.1464 21.4745 18.3284 21.4745H17.7505C16.7672 21.4745 16.1743 21.8634 15.9417 22.6413C15.7315 21.826 15.1086 21.4221 14.0803 21.4221H11.5435V32.3649C11.7386 32.4323 11.9337 32.4995 12.1289 32.5594V22.013H12.1364V22.013ZM24.4378 26.2241L23.7999 25.6182L24.4378 22.3271V26.2241Z" fill="#2F2D30"/>
<path d="M21.9233 31.7889C22.126 31.6842 22.3286 31.5795 22.5313 31.4673V26.957H21.9233V31.7889Z" fill="#2F2D30"/>
</g>
<defs>
<clipPath id="clip0_141_3340">
<rect width="146" height="36" fill="white"/>
</clipPath>
</defs>
</svg>
