<svg width="150" height="24" viewBox="0 0 150 24" fill="none" xmlns="http://www.w3.org/2000/svg">
<g clip-path="url(#clip0_141_3334)">
<path d="M67.0832 7.48222L70.2499 5.18222H59.7499V18.8179H70.2499V16.5179H62.7499V13.0679H69.0832V10.7679H62.7499V7.48222H67.0832ZM53.9999 7.48222L57.1665 5.18222H45.1665V18.8179H51.4165C54.9165 18.8179 56.9165 17.2572 56.9165 14.5465C56.9165 11.9179 55.0832 10.5215 51.7499 10.5215H48.0832V7.48222H53.9999V7.48222ZM51.3332 12.7394C53.2499 12.7394 54.0832 13.3965 54.0832 14.6286C54.0832 15.8608 53.1665 16.5179 51.3332 16.5179H48.1665V12.7394H51.3332ZM78.6665 5.18222H72.9999V18.8179H75.9999V14.9572H78.7499C82.4165 14.9572 84.6665 13.0679 84.6665 10.0286C84.6665 6.98936 82.3332 5.18222 78.6665 5.18222V5.18222ZM78.6665 12.6572H75.9999V7.40008H78.6665C80.5832 7.40008 81.6665 8.30365 81.6665 10.0286C81.5832 11.7536 80.5832 12.6572 78.6665 12.6572ZM40.0832 15.8608C39.2499 16.2715 38.4165 16.5179 37.4999 16.5179C34.8332 16.5179 32.8332 14.6286 32.8332 12.0001C32.8332 9.37151 34.7499 7.48222 37.4999 7.48222C38.4999 7.48222 39.4165 7.81079 40.2499 8.30365L42.4165 6.74293L42.2499 6.57865C40.9999 5.51079 39.3332 4.93579 37.4165 4.93579C35.3332 4.93579 33.4999 5.59293 32.0832 6.90722C30.7499 8.22151 29.9165 10.0286 29.9999 11.9179C29.9999 13.8072 30.7499 15.6144 32.0832 17.0108C33.4999 18.3251 35.4165 19.0644 37.3332 18.9822C39.4999 18.9822 41.3332 18.2429 42.6665 16.9286L40.7499 15.5322L40.0832 15.8608ZM130 10.7679H123.583V5.18222H120.583V18.8179H123.583V13.2322H130V18.8179H133V5.18222H130V10.7679ZM109.75 5.18222L103.75 18.8179H106.75L107.917 16.1072H114.25L115.417 18.8179H118.583L112.75 5.18222H109.75V5.18222ZM108.917 13.8072L111.25 8.30365L113.417 13.8072H108.917ZM143.833 11.7536L149.25 5.18222H145.833L141.333 11.0144H139.667V5.18222H136.667V18.8179H139.667V13.3144H141.583L146.167 18.8179H150L143.833 11.7536ZM97.4999 10.5215H93.8332V7.48222H101.667V5.18222H90.8332V18.8179H97.0832C100.583 18.8179 102.583 17.2572 102.583 14.5465C102.667 11.9179 100.833 10.5215 97.4999 10.5215V10.5215ZM96.9999 16.6001H93.8332V12.8215H96.9999C98.9165 12.8215 99.7499 13.4786 99.7499 14.7108C99.8332 15.9429 98.8332 16.6001 96.9999 16.6001V16.6001Z" fill="#8A8782"/>
<path d="M20.4006 4.92041C20.9416 5.61914 21.3997 6.37825 21.7653 7.1825L11.3913 14.822L7.05566 12.107V8.84065L11.3913 11.5557L20.4006 4.92041Z" fill="#8A8782"/>
<path d="M2.63108 11.8763C2.63108 11.7298 2.63466 11.5842 2.64181 11.4394L0.0143098 11.3108C0.00536667 11.4984 3.17521e-06 11.6878 3.17521e-06 11.879C-0.00111475 13.3726 0.292978 14.8517 0.865419 16.2315C1.43786 17.6114 2.27737 18.8647 3.3358 19.9196L5.19955 18.0587C4.38481 17.248 3.73847 16.2845 3.29768 15.2236C2.8569 14.1626 2.63036 13.025 2.63108 11.8763Z" fill="#8A8782"/>
<path d="M11.3888 3.12808C11.5354 3.12808 11.6812 3.13344 11.8261 3.14058L11.9575 0.514874C11.7692 0.50594 11.5795 0.501473 11.3888 0.501473C9.8929 0.499651 8.41147 0.79302 7.02945 1.36474C5.64743 1.93645 4.39207 2.77525 3.33545 3.83298L5.1992 5.69483C6.01069 4.88065 6.97528 4.23474 8.03752 3.79425C9.09975 3.35375 10.2386 3.12735 11.3888 3.12808Z" fill="#8A8782"/>
<path d="M11.389 20.6256C11.2423 20.6256 11.0965 20.6256 10.9508 20.614L10.8193 23.2388C11.0083 23.2484 11.1982 23.2532 11.389 23.2532C12.8842 23.2547 14.365 22.9611 15.7462 22.3893C17.1275 21.8174 18.3821 20.9785 19.4379 19.9208L17.5777 18.0598C16.7661 18.8736 15.8016 19.5191 14.7396 19.9594C13.6775 20.3998 12.5389 20.6262 11.389 20.6256Z" fill="#8A8782"/>
<path d="M16.3255 4.65434L18.5398 3.02388C16.5159 1.38668 13.9895 0.495455 11.3853 0.500017V3.12751C13.1488 3.12533 14.8713 3.65772 16.3255 4.65434Z" fill="#8A8782"/>
<path d="M22.7775 11.8766C22.7789 11.1931 22.719 10.5108 22.5986 9.83789L20.1473 11.6426C20.1473 11.7203 20.1473 11.798 20.1473 11.8766C20.1479 13.0991 19.8914 14.308 19.3944 15.425C18.8974 16.5421 18.1709 17.5423 17.2622 18.3609L19.0303 20.3131C20.2117 19.2476 21.1558 17.946 21.8013 16.4927C22.4469 15.0393 22.7794 13.4666 22.7775 11.8766Z" fill="#8A8782"/>
<path d="M11.3894 20.626C10.1656 20.6264 8.95538 20.3701 7.83704 19.8736C6.71876 19.3772 5.71729 18.6516 4.89752 17.7439L2.94434 19.5093C4.01077 20.6897 5.31365 21.6329 6.7685 22.278C8.22334 22.923 9.79764 23.2554 11.3894 23.2535V20.626Z" fill="#8A8782"/>
<path d="M5.51615 5.39203L3.74898 3.43994C2.5672 4.50521 1.62277 5.80673 0.976914 7.2601C0.331071 8.71345 -0.0017608 10.2862 7.00531e-06 11.8763H2.63108C2.63054 10.654 2.88709 9.44504 3.38408 8.328C3.88109 7.21099 4.60746 6.21072 5.51615 5.39203Z" fill="#8A8782"/>
</g>
<defs>
<clipPath id="clip0_141_3334">
<rect width="150" height="23" fill="white" transform="translate(0 0.5)"/>
</clipPath>
</defs>
</svg>
