<svg width="144" height="18" viewBox="0 0 144 18" fill="none" xmlns="http://www.w3.org/2000/svg">
<g clip-path="url(#clip0_141_3354)">
<path d="M67.176 3.384L62.64 7.992H60.84V3.384H59.04V14.4H60.84V9.792H62.64L67.176 14.4H69.552L64.152 8.928L69.624 3.384H67.176ZM24.48 6.552C24.84 6.048 25.344 5.616 25.92 5.328C26.496 5.04 27.144 4.896 27.792 4.896C28.728 4.896 29.736 5.256 30.456 5.904L31.896 4.464C31.176 3.816 30.312 3.312 29.376 3.096C28.44 2.88 27.432 2.808 26.496 3.096C25.56 3.312 24.696 3.744 23.904 4.392C23.184 5.04 22.608 5.832 22.248 6.768C21.888 7.704 21.744 8.64 21.888 9.648C22.032 10.584 22.32 11.52 22.896 12.312C23.472 13.104 24.192 13.752 25.056 14.256C25.92 14.76 26.856 14.976 27.864 14.976C29.304 14.976 30.744 14.472 31.824 13.464L30.384 12.096C29.88 12.528 29.304 12.816 28.656 12.888C28.008 13.032 27.36 13.032 26.784 12.816C26.136 12.672 25.632 12.312 25.128 11.88C24.624 11.448 24.336 10.872 24.12 10.296C23.904 9.72 23.832 9.072 23.904 8.424C23.904 7.704 24.12 7.056 24.48 6.552ZM2.592 2.592C0.936 4.248 0 6.552 0 8.856C0 11.16 0.936 13.464 2.592 15.12C4.248 16.776 6.552 17.712 8.856 17.712H9.216V14.4H8.856C7.416 14.328 6.048 13.752 5.112 12.744C4.104 11.736 3.6 10.368 3.6 8.928C3.6 7.488 4.176 6.12 5.112 5.112C6.12 4.104 7.488 3.456 8.856 3.456H9.216V0H8.856C6.552 0 4.248 0.936 2.592 2.592ZM43.344 4.608C42.192 3.456 40.68 2.88 39.096 2.88C37.944 2.88 36.72 3.24 35.784 3.888C34.776 4.536 34.056 5.472 33.552 6.552C33.12 7.632 32.976 8.856 33.192 10.008C33.408 11.16 33.984 12.24 34.848 13.104C35.712 13.968 36.72 14.544 37.944 14.76C39.096 14.976 40.32 14.904 41.4 14.4C42.48 13.968 43.416 13.176 44.064 12.168C44.712 11.16 45.072 10.008 45.072 8.856C45.144 7.272 44.496 5.76 43.344 4.608ZM42.84 10.44C42.624 10.944 42.336 11.376 41.976 11.736C41.616 12.096 41.184 12.384 40.68 12.6C40.176 12.816 39.672 12.888 39.168 12.888C38.376 12.888 37.584 12.672 36.936 12.24C36.288 11.808 35.784 11.16 35.424 10.44C35.136 9.72 35.064 8.928 35.208 8.136C35.352 7.344 35.712 6.624 36.288 6.048C36.864 5.472 37.584 5.112 38.376 4.968C39.168 4.824 39.96 4.896 40.68 5.184C41.4 5.472 42.048 5.976 42.48 6.696C42.912 7.344 43.128 8.136 43.128 8.928C43.128 9.432 42.984 9.936 42.84 10.44Z" fill="#8A8782"/>
<path d="M79.8482 4.60813C78.6962 3.45613 77.1842 2.88013 75.6002 2.88013C74.4482 2.88013 73.2242 3.24013 72.2882 3.88813C71.2802 4.53613 70.5602 5.47213 70.0562 6.55213C69.6242 7.63213 69.4802 8.85613 69.6962 10.0081C69.9122 11.1601 70.4882 12.2401 71.3522 13.1041C72.2162 13.9681 73.2242 14.5441 74.4482 14.7601C75.6002 14.9761 76.8242 14.9041 77.9042 14.4001C78.9842 13.9681 79.9202 13.1761 80.5682 12.1681C81.2162 11.1601 81.5762 10.0081 81.5762 8.85613C81.6482 7.27213 81.0002 5.76013 79.8482 4.60813ZM79.3442 10.4401C79.1282 10.9441 78.8402 11.3761 78.4802 11.7361C78.1202 12.0961 77.6882 12.3841 77.1842 12.6001C76.6802 12.8161 76.1762 12.8881 75.6722 12.8881C74.8802 12.8881 74.0882 12.6721 73.4402 12.2401C72.7922 11.8081 72.2882 11.1601 71.9282 10.4401C71.6402 9.72013 71.5682 8.92813 71.7122 8.13613C71.8562 7.34413 72.2162 6.62413 72.7922 6.04813C73.3682 5.47213 74.0882 5.11213 74.8802 4.96813C75.6722 4.82413 76.4642 4.89613 77.1842 5.18413C77.9042 5.47213 78.5522 5.97613 78.9842 6.69613C79.4162 7.34413 79.6322 8.13613 79.6322 8.92813C79.6322 9.43213 79.5602 9.93613 79.3442 10.4401ZM94.1762 3.38413L89.7122 8.71213L85.2482 3.38413V3.45613V3.38413H83.4482V14.4001H85.2482V6.33613L89.7122 11.6641L94.1762 6.40813V14.4001H95.9042V3.38413H94.1762ZM55.8002 8.85613C56.0882 8.56813 56.3762 8.20813 56.5202 7.77613C56.6642 7.34413 56.8082 6.98413 56.8082 6.55213C56.8082 6.12013 56.7362 5.68813 56.5922 5.32813C56.4482 4.96813 56.2322 4.60813 55.8722 4.32013C55.5842 4.03213 55.2242 3.81613 54.8642 3.60013C54.5042 3.45613 54.0722 3.38413 53.6402 3.38413H47.1602V14.4001H53.6402C54.5042 14.4001 55.2962 14.0401 55.8722 13.4641C56.4482 12.8881 56.8082 12.0961 56.8082 11.2321C56.8082 10.8001 56.7362 10.3681 56.5202 9.93613C56.3762 9.50413 56.0882 9.14413 55.8002 8.85613ZM54.6482 12.2401C54.3602 12.5281 54.0002 12.6721 53.6402 12.6721H48.9602V9.79213H53.6402C54.0002 9.79213 54.3602 9.93613 54.6482 10.2241C54.9362 10.5121 55.0802 10.8721 55.0802 11.2321C55.0802 11.5921 54.9362 11.9521 54.6482 12.2401ZM55.2242 7.20013C55.1522 7.41613 55.0082 7.56013 54.8642 7.70413C54.7202 7.84813 54.5042 7.92013 54.2882 7.99213C54.0722 8.06413 53.8562 8.06413 53.6402 7.99213H48.9602V5.18413H53.6402C53.8562 5.11213 54.0722 5.11213 54.2882 5.18413C54.5042 5.25613 54.7202 5.32813 54.8642 5.47213C55.0082 5.61613 55.1522 5.76013 55.2242 5.97613C55.2962 6.19213 55.3682 6.40813 55.3682 6.62413C55.3682 6.84013 55.2962 6.98413 55.2242 7.20013Z" fill="#8A8782"/>
<path d="M10.656 0.216064V4.82406H8.85595C7.77595 4.82406 6.76795 5.25606 5.97595 6.04806C5.18395 6.84006 4.75195 7.84806 4.75195 8.92806C4.75195 10.0081 5.18395 11.0161 5.97595 11.8081C6.76795 12.6001 7.77595 13.0321 8.85595 13.0321H10.656V17.6401C12.672 17.2081 14.472 16.1281 15.768 14.5441C17.064 12.9601 17.784 10.9441 17.784 8.92806C17.784 6.91206 17.064 4.89606 15.768 3.31206C14.472 1.65606 12.672 0.576064 10.656 0.216064ZM115.128 3.38406H113.112L108.288 14.4001H110.16L111.24 12.0241H116.928L118.008 14.4001H119.952L115.128 3.38406ZM112.032 10.2961L114.12 5.61606L116.208 10.2961H112.032ZM144 3.38406H141.624L137.016 7.99206H135.216V3.38406H133.416V14.4001H135.216V9.79206H137.016L141.552 14.4001H143.928L138.6 8.92806L144 3.38406ZM107.352 9.93606C107.208 9.57606 106.92 9.21606 106.632 8.92806C106.344 8.64006 105.984 8.42406 105.552 8.20806C105.192 8.06406 104.76 7.99206 104.328 7.99206H99.6479V5.11206H106.488V3.31206H97.9199V14.4001H104.328C105.192 14.4001 105.984 14.0401 106.56 13.4641C107.136 12.8881 107.496 12.0241 107.496 11.2321C107.64 10.8001 107.568 10.3681 107.352 9.93606ZM105.408 12.2401C105.12 12.5281 104.76 12.6721 104.4 12.6721H99.7919V9.79206H104.4C104.76 9.79206 105.12 9.93606 105.408 10.2241C105.696 10.5121 105.84 10.8721 105.84 11.2321C105.84 11.5921 105.696 11.9521 105.408 12.2401ZM129.456 7.99206H123.048V3.38406H121.248V14.4001H123.048V9.79206H129.456V14.4001H131.256V3.38406H129.456V7.99206Z" fill="#8A8782"/>
</g>
<defs>
<clipPath id="clip0_141_3354">
<rect width="144" height="18" fill="white"/>
</clipPath>
</defs>
</svg>
