<svg width="138" height="24" viewBox="0 0 138 24" fill="none" xmlns="http://www.w3.org/2000/svg">
<g clip-path="url(#clip0_141_3346)">
<path d="M44.2271 21.6074C44.2271 21.7124 44.2271 21.7424 44.0928 21.7424H43.3469C43.2648 21.7499 43.2648 21.7499 43.2648 21.6074V17.1074C43.2648 17.0024 43.2648 16.9724 43.3991 16.8974C43.8729 16.7056 44.3802 16.6112 44.891 16.6199C46.2038 16.6199 46.6514 17.4524 46.6514 18.5249C46.6514 19.5974 46.1367 20.4299 45.0327 20.4299C44.768 20.4231 44.504 20.4006 44.242 20.3624L44.2271 21.6074ZM44.7567 17.4449C44.5833 17.4506 44.411 17.4731 44.242 17.5124V19.4249C44.4338 19.478 44.6326 19.5008 44.8313 19.4924C45.2789 19.4924 45.622 19.2149 45.622 18.4499C45.622 17.6849 45.3012 17.4449 44.7567 17.4449ZM50.7243 18.1349C50.7243 18.6224 50.5154 18.7574 50.2096 18.7574H48.4864C48.4858 18.8633 48.5075 18.968 48.55 19.0649C48.5924 19.1617 48.6549 19.2484 48.7331 19.3192C48.8113 19.3901 48.9035 19.4435 49.0037 19.4759C49.1039 19.5083 49.2098 19.5191 49.3144 19.5074C49.5868 19.5035 49.8556 19.4448 50.1051 19.3349H50.2767L50.5154 19.8224C50.5228 19.8381 50.5268 19.8551 50.5274 19.8725C50.528 19.8898 50.525 19.907 50.5188 19.9232C50.5125 19.9394 50.503 19.9541 50.4909 19.9664C50.4788 19.9787 50.4642 19.9884 50.4483 19.9949C50.0747 20.2187 49.6444 20.3281 49.21 20.3099C48.0016 20.3099 47.4197 19.7174 47.4197 18.4349C47.3875 18.19 47.4082 17.9409 47.4804 17.7047C47.5527 17.4686 47.6748 17.2509 47.8384 17.0665C48.0019 16.8821 48.2031 16.7354 48.4282 16.6363C48.6534 16.5372 48.8971 16.4882 49.1429 16.4924C49.3594 16.4782 49.5764 16.5116 49.7787 16.5904C49.9811 16.6691 50.1639 16.7913 50.3144 16.9484C50.465 17.1055 50.5797 17.2937 50.6505 17.4999C50.7212 17.7062 50.7464 17.9254 50.7243 18.1424V18.1349ZM48.4491 18.1349H49.7247C49.7247 17.7224 49.5904 17.3849 49.1056 17.3849C48.924 17.4039 48.7572 17.4941 48.6413 17.6359C48.5254 17.7776 48.4697 17.9597 48.4864 18.1424L48.4491 18.1349ZM52.4474 20.3174H51.7015C51.6343 20.3174 51.5672 20.3174 51.5672 20.2124V16.7849C51.5672 16.6799 51.5672 16.6799 51.7015 16.6799H52.4474C52.5518 16.6799 52.5817 16.6799 52.5817 16.7849V17.9999H52.9621C53.098 18.0099 53.2328 17.9697 53.3413 17.8869C53.4498 17.804 53.5245 17.6843 53.5514 17.5499L53.7901 16.7999C53.7901 16.7324 53.8572 16.6949 53.9244 16.6949H54.6703C54.7748 16.6949 54.7747 16.7624 54.7375 16.8299L54.4987 17.7299C54.4769 17.8664 54.421 17.9952 54.3361 18.104C54.2513 18.2129 54.1405 18.2984 54.0139 18.3524C54.1637 18.383 54.3006 18.4591 54.406 18.5704C54.5114 18.6818 54.5802 18.823 54.6032 18.9749L54.9463 20.1899C54.9463 20.1899 54.9463 20.3249 54.8419 20.3249H54.0288C54.0023 20.3284 53.9753 20.3238 53.9515 20.3118C53.9275 20.2998 53.9077 20.2808 53.8945 20.2574L53.5812 19.1849C53.5411 19.0632 53.4608 18.9589 53.3537 18.8893C53.2465 18.8198 53.1188 18.7891 52.9919 18.8024H52.6115V20.2499C52.6115 20.2499 52.6115 20.3174 52.4772 20.3174H52.4474ZM57.2737 20.3849C56.0652 20.3849 55.5505 19.6949 55.5505 18.4799C55.5349 18.2403 55.5684 18 55.6489 17.774C55.7293 17.5478 55.8551 17.3408 56.0184 17.1655C56.1816 16.9903 56.3789 16.8506 56.5981 16.7551C56.8172 16.6595 57.0535 16.6103 57.2923 16.6103C57.5312 16.6103 57.7674 16.6595 57.9866 16.7551C58.2057 16.8506 58.403 16.9903 58.5662 17.1655C58.7295 17.3408 58.8553 17.5478 58.9358 17.774C59.0163 18 59.0497 18.2403 59.0341 18.4799C59.0639 19.7024 58.4746 20.3924 57.3035 20.3924L57.2737 20.3849ZM57.2737 17.4374C56.7888 17.4374 56.5277 17.8499 56.5277 18.4799C56.5277 19.1099 56.7366 19.5524 57.214 19.5524C57.6914 19.5524 57.9599 19.1024 57.9599 18.5099C57.9599 17.9174 57.8182 17.4449 57.3408 17.4449L57.2737 17.4374ZM60.7199 20.3174H60.0337C59.9292 20.3174 59.8994 20.3174 59.8994 20.1824V16.8224C59.8994 16.7174 59.8994 16.6874 60.0337 16.6874H60.7199C60.8542 16.6874 60.8915 16.6874 60.8915 16.8224V17.9999H62.1671V16.8224C62.1671 16.7174 62.1671 16.6874 62.3013 16.6874H62.9876C63.1219 16.6874 63.1219 16.6874 63.1219 16.8224V20.1899C63.1219 20.3249 63.1219 20.3249 62.9876 20.3249H62.3013C62.1969 20.3249 62.1671 20.3249 62.1671 20.1899V18.8024H60.9586V20.1899C60.9586 20.2949 60.9288 20.3249 60.7871 20.3249L60.7199 20.3174ZM66.6875 19.3124C66.8218 19.3124 66.8218 19.3124 66.8591 19.3799L67.0679 19.8974V20.1074C66.6744 20.3109 66.2344 20.4066 65.7924 20.3849C64.7257 20.3849 64.1364 19.7624 64.1364 18.4799C64.1042 18.235 64.1249 17.9859 64.1971 17.7497C64.2694 17.5136 64.3914 17.2959 64.555 17.1115C64.7186 16.9271 64.9198 16.7804 65.1449 16.6813C65.3701 16.5822 65.6138 16.5332 65.8595 16.5374C66.2414 16.5263 66.6203 16.6087 66.9635 16.7774C67.0978 16.8449 67.0978 16.8449 67.0306 16.9874L66.8218 17.5049C66.8218 17.6099 66.7173 17.6099 66.6129 17.5724C66.3909 17.4979 66.1602 17.4525 65.9266 17.4374C65.3746 17.4374 65.1807 17.9249 65.1807 18.4799C65.1807 19.0349 65.3523 19.4474 65.9714 19.4474C66.2276 19.471 66.4854 19.4243 66.7173 19.3124H66.6875ZM69.6191 17.4749V20.1824C69.6191 20.3174 69.6191 20.3174 69.4475 20.3174H68.7612C68.627 20.3174 68.5897 20.3174 68.5897 20.1824V17.4824H67.6871C67.5826 17.4824 67.5528 17.4824 67.5528 17.3474V16.8299C67.5528 16.6949 67.5528 16.6574 67.6871 16.6574H70.6709C70.7753 16.6574 70.8051 16.6574 70.8051 16.8299V17.3474C70.8051 17.4524 70.8051 17.4824 70.6709 17.4824L69.6191 17.4749ZM72.4164 21.5999C72.4164 21.7049 72.4164 21.7349 72.2821 21.7349H71.5362C71.4317 21.7349 71.4019 21.7349 71.4019 21.5999V17.0999C71.4019 16.9949 71.4019 16.9649 71.5362 16.8899C72.0098 16.6981 72.5171 16.6037 73.028 16.6124C74.3409 16.6124 74.7885 17.4449 74.7885 18.5174C74.7885 19.5899 74.2738 20.4224 73.1698 20.4224C72.905 20.4156 72.6409 20.3931 72.3791 20.3549L72.4164 21.5999ZM72.9311 17.4374C72.758 17.4431 72.5857 17.4656 72.4164 17.5049V19.4249C72.6387 19.4915 72.8714 19.5169 73.1026 19.4999C73.5502 19.4999 73.8933 19.2224 73.8933 18.4574C73.8933 17.6924 73.5204 17.4449 72.9982 17.4449L72.9311 17.4374ZM77.6604 20.9024C77.597 21.1774 77.4366 21.42 77.2091 21.5854C76.9808 21.7508 76.7018 21.8279 76.4221 21.8024C76.1901 21.7963 75.9596 21.761 75.7358 21.6974C75.6314 21.6974 75.6016 21.6299 75.6314 21.5624L75.7657 21.0074C75.7657 20.9024 75.8328 20.9024 75.8999 20.9399C76.0141 20.9553 76.1289 20.9553 76.2431 20.9399C76.3087 20.9528 76.3766 20.9524 76.4422 20.9385C76.5079 20.9246 76.5698 20.8976 76.625 20.8592C76.6795 20.8207 76.7264 20.7715 76.7623 20.7145C76.7981 20.6576 76.8219 20.5939 76.8324 20.5274L76.9666 20.1449H76.8324C76.6235 20.1449 76.5564 20.1449 76.4892 19.8299L75.4524 16.7399C75.4524 16.6349 75.4524 16.6049 75.5568 16.6049H76.3475C76.4818 16.6049 76.5191 16.6049 76.5564 16.7399L76.9368 18.1274L77.2501 19.3424L77.5932 18.0974L78.0035 16.7474C78.0035 16.6424 78.0706 16.6124 78.2124 16.6124H79.0702C79.1373 16.6124 79.1746 16.6124 79.1373 16.7174L77.7201 20.8799L77.6604 20.9024ZM80.5919 20.3099H79.846C79.7789 20.3099 79.7117 20.3099 79.7117 20.2049V16.7849C79.7117 16.6799 79.7117 16.6799 79.846 16.6799H80.5919C80.6964 16.6799 80.7262 16.6799 80.7262 16.7849V17.9999H81.0395C81.1753 18.0099 81.3103 17.9697 81.4184 17.8869C81.5274 17.804 81.602 17.6843 81.6288 17.5499L81.8675 16.7999C81.8675 16.7324 81.9346 16.6949 82.0018 16.6949H82.7477C82.8522 16.6949 82.8522 16.7624 82.8149 16.8299L82.5762 17.7299C82.5545 17.8664 82.4986 17.9952 82.4135 18.104C82.3285 18.2129 82.2181 18.2984 82.0913 18.3524C82.2412 18.383 82.3777 18.4591 82.4837 18.5704C82.5888 18.6818 82.6575 18.823 82.6806 18.9749L83.0237 20.1899C83.0237 20.1899 83.0237 20.3249 82.9193 20.3249H82.1286C82.1114 20.3181 82.0965 20.308 82.0838 20.2951C82.0712 20.2822 82.0607 20.2669 82.054 20.2499L81.7407 19.1774C81.7004 19.0557 81.6206 18.9514 81.5132 18.8818C81.4058 18.8123 81.2782 18.7816 81.1514 18.7949H80.771V20.2499C80.7546 20.2703 80.7344 20.2868 80.7113 20.2985C80.6882 20.3102 80.6628 20.3166 80.6367 20.3174L80.5919 20.3099ZM87.1786 19.4999H87.4919C87.7008 19.4999 87.7306 19.6349 87.7306 19.7774L87.6635 21.2774C87.6665 21.2918 87.665 21.3066 87.6613 21.3206C87.6568 21.3346 87.6493 21.3473 87.6389 21.3576C87.6284 21.368 87.6158 21.3756 87.6023 21.38C87.5882 21.3842 87.5732 21.3851 87.5591 21.3824H86.9399C86.9258 21.3851 86.9108 21.3842 86.8967 21.38C86.8832 21.3756 86.8706 21.368 86.8601 21.3576C86.8497 21.3473 86.8422 21.3346 86.8377 21.3206C86.834 21.3066 86.8325 21.2918 86.8355 21.2774V20.3099H84.2918C84.2359 20.3174 84.1799 20.3117 84.1262 20.2937C84.0733 20.2755 84.0248 20.2454 83.9852 20.2055C83.9457 20.1656 83.9159 20.117 83.898 20.0636C83.8801 20.0102 83.8741 19.9534 83.8816 19.8974V16.8224C83.8816 16.7174 83.8816 16.6874 84.0158 16.6874H84.7618C84.896 16.6874 84.896 16.6874 84.896 16.8224V19.4999H86.2089V16.8224C86.2089 16.7174 86.2089 16.6874 86.3432 16.6874H87.0891C87.1936 16.6874 87.2234 16.6874 87.2234 16.8224V19.4999H87.1786ZM88.4915 16.7924C88.4915 16.7249 88.4915 16.6874 88.6258 16.6874H89.3717C89.4762 16.6874 89.506 16.6874 89.506 16.7924V18.9074C89.8491 18.3149 89.9163 18.2174 90.058 18.0074C90.1997 17.7974 90.4384 17.3849 90.7443 16.8974C90.8785 16.7249 90.9531 16.6574 91.1545 16.6574H91.4977C91.7364 16.6574 91.8781 16.7249 91.8781 17.0399V20.1974C91.8781 20.3024 91.8781 20.3024 91.7438 20.3024H90.9979C90.8935 20.3024 90.8636 20.3024 90.8636 20.1974V18.1049C90.6547 18.4199 90.4832 18.7649 90.2743 19.0724C90.0655 19.3799 89.864 19.7624 89.6179 20.0774C89.3717 20.3924 89.409 20.3174 89.2076 20.3174H88.8943C88.581 20.3174 88.5139 20.1824 88.5139 19.9349L88.4915 16.7924ZM92.9672 16.7924C92.9672 16.7249 92.9672 16.6874 93.1014 16.6874H93.8474C93.9518 16.6874 93.9817 16.6874 93.9817 16.7924V18.9074C94.3248 18.3149 94.3919 18.2174 94.5337 18.0074C94.6754 17.7974 94.9141 17.3849 95.2199 16.8974C95.3542 16.7249 95.4288 16.6574 95.6302 16.6574H95.9733C96.212 16.6574 96.3538 16.7249 96.3538 17.0399V20.1974C96.3538 20.3024 96.3538 20.3024 96.2195 20.3024H95.4736C95.3691 20.3024 95.3393 20.3024 95.3393 20.1974V18.1049C95.1304 18.4199 94.9589 18.7649 94.75 19.0724C94.5411 19.3799 94.3397 19.7624 94.0936 20.0774C93.8474 20.3924 93.8847 20.3174 93.6833 20.3174H93.37C93.0567 20.3174 92.9896 20.1824 92.9896 19.9349L92.9672 16.7924ZM99.5539 16.7924C99.5539 16.7249 99.5539 16.6874 99.6882 16.6874H100.434C100.539 16.6874 100.568 16.6874 100.568 16.7924V18.9074C100.912 18.3149 100.979 18.2174 101.12 18.0074C101.262 17.7974 101.501 17.3849 101.807 16.8974C101.941 16.7249 102.016 16.6574 102.217 16.6574H102.56C102.799 16.6574 102.94 16.7249 102.94 17.0399V20.1974C102.94 20.3024 102.94 20.3024 102.806 20.3024H102.06C101.956 20.3024 101.926 20.3024 101.926 20.1974V18.1049C101.717 18.4199 101.546 18.7649 101.337 19.0724C101.128 19.3799 100.926 19.7624 100.68 20.0774C100.434 20.3924 100.471 20.3174 100.27 20.3174H99.9567C99.6434 20.3174 99.5763 20.1824 99.5763 19.9349L99.5539 16.7924ZM107.11 21.6149C107.11 21.7199 107.11 21.7499 106.976 21.7499H106.23C106.126 21.7499 106.096 21.7499 106.096 21.6149V17.1149C106.096 17.0099 106.096 16.9799 106.23 16.9049C106.704 16.7131 107.211 16.6187 107.722 16.6274C109.035 16.6274 109.482 17.4599 109.482 18.5324C109.482 19.6049 108.968 20.4374 107.864 20.4374C107.599 20.4306 107.335 20.4081 107.073 20.3699L107.11 21.6149ZM107.625 17.4524C107.452 17.4581 107.28 17.4806 107.11 17.5199V19.4249C107.302 19.478 107.501 19.5008 107.7 19.4924C108.147 19.4924 108.49 19.2149 108.49 18.4499C108.49 17.6849 108.125 17.4449 107.603 17.4449L107.625 17.4524ZM113.354 20.1599C112.879 20.3471 112.371 20.429 111.862 20.3999C110.624 20.3999 110.243 19.8824 110.243 19.2524C110.243 18.6224 110.728 18.0074 111.69 18.0074H112.436V17.9024C112.436 17.6624 112.332 17.4149 111.847 17.4149C111.523 17.4236 111.2 17.4689 110.885 17.5499C110.751 17.5499 110.751 17.5499 110.713 17.4449L110.609 16.9574C110.609 16.8524 110.609 16.8224 110.676 16.7849C111.11 16.6452 111.563 16.5744 112.019 16.5749C113.018 16.5749 113.466 17.0249 113.466 17.8574V19.8749C113.477 19.9296 113.47 19.9863 113.445 20.0364C113.421 20.0865 113.381 20.1273 113.331 20.1524L113.354 20.1599ZM112.489 18.6599H111.892C111.653 18.6599 111.273 18.6599 111.273 19.1474C111.273 19.4624 111.511 19.5974 111.862 19.5974C112.062 19.5881 112.26 19.5528 112.451 19.4924V18.6599H112.489ZM114.764 17.5874H114.592L114.421 17.1374C114.421 17.0324 114.353 17.0024 114.488 16.9274C114.911 16.7392 115.368 16.6445 115.83 16.6499C116.696 16.6499 117.248 16.9649 117.248 17.6174C117.236 17.7829 117.182 17.9425 117.092 18.0815C117.002 18.2205 116.878 18.3344 116.733 18.4124C116.911 18.4678 117.066 18.5781 117.177 18.7277C117.288 18.8772 117.349 19.0583 117.352 19.2449C117.352 20.0399 116.606 20.4224 115.733 20.4224C115.262 20.4332 114.794 20.3517 114.353 20.1824C114.249 20.1824 114.249 20.0774 114.286 20.0099L114.458 19.4924C114.458 19.4249 114.525 19.3874 114.629 19.4249C114.953 19.527 115.29 19.5851 115.629 19.5974C116.181 19.5974 116.375 19.3574 116.375 19.1474C116.375 18.9374 116.136 18.7649 115.584 18.7649C115.413 18.7649 115.308 18.6974 115.308 18.5249V18.3149C115.308 18.1424 115.413 18.1049 115.584 18.1049C116.032 18.1049 116.241 17.9699 116.241 17.7224C116.241 17.4749 116.002 17.4074 115.651 17.4074C115.356 17.4239 115.065 17.482 114.786 17.5799L114.764 17.5874ZM120.94 18.3374C121.116 18.4029 121.268 18.5219 121.373 18.6778C121.479 18.8337 121.533 19.0188 121.529 19.2074C121.521 19.3733 121.479 19.5356 121.406 19.6846C121.333 19.8335 121.231 19.9658 121.105 20.0734C120.979 20.1809 120.833 20.2613 120.675 20.3098C120.517 20.3582 120.351 20.3736 120.187 20.3549H118.605C118.292 20.3549 118.195 20.2199 118.195 20.0099V17.0624C118.195 16.8224 118.262 16.6799 118.576 16.6799H120.194C120.851 16.6799 121.365 16.9199 121.365 17.6174C121.368 17.7651 121.326 17.91 121.246 18.0341C121.167 18.1582 121.052 18.2559 120.918 18.3149L120.94 18.3374ZM119.127 17.9999H119.955C119.997 18.0033 120.04 17.9975 120.079 17.9829C120.119 17.9683 120.155 17.9452 120.185 17.9152C120.214 17.8853 120.237 17.8491 120.252 17.8094C120.267 17.7696 120.273 17.7272 120.269 17.6849C120.273 17.6477 120.267 17.61 120.255 17.5748C120.242 17.5395 120.222 17.5076 120.196 17.481C120.17 17.4545 120.138 17.4342 120.102 17.4215C120.067 17.4088 120.03 17.404 119.993 17.4074H119.127V17.9999ZM120.023 18.6899H119.127V19.5224H119.993C120.05 19.5289 120.108 19.523 120.163 19.505C120.217 19.4871 120.267 19.4576 120.31 19.4185C120.352 19.3794 120.386 19.3316 120.408 19.2785C120.431 19.2252 120.442 19.1678 120.44 19.1099C120.475 18.8349 120.338 18.6974 120.03 18.6974L120.023 18.6899ZM122.335 16.7849C122.335 16.7174 122.335 16.6799 122.469 16.6799H123.215C123.32 16.6799 123.35 16.6799 123.35 16.7849V18.8999C123.693 18.3074 123.76 18.2099 123.902 17.9999C124.043 17.7899 124.282 17.3774 124.588 16.8899C124.722 16.7174 124.797 16.6499 124.998 16.6499H125.341C125.58 16.6499 125.722 16.7174 125.722 17.0324V20.1899C125.722 20.2949 125.722 20.2949 125.587 20.2949H124.841C124.737 20.2949 124.707 20.2949 124.707 20.1899V18.1049C124.498 18.4199 124.327 18.7649 124.118 19.0724C123.909 19.3799 123.708 19.7624 123.461 20.0774C123.215 20.3924 123.253 20.3174 123.051 20.3174H122.738C122.425 20.3174 122.357 20.1824 122.357 19.9349V16.7849H122.335ZM128.541 17.4749V20.1824C128.541 20.3174 128.541 20.3174 128.37 20.3174H127.683C127.549 20.3174 127.512 20.3174 127.512 20.1824V17.4824H126.55C126.445 17.4824 126.415 17.4824 126.415 17.3474V16.8299C126.415 16.6949 126.415 16.6574 126.55 16.6574H129.533C129.638 16.6574 129.668 16.6574 129.668 16.8299V17.3474C129.668 17.4524 129.668 17.4824 129.533 17.4824H128.534L128.541 17.4749ZM130.332 16.7849C130.332 16.7174 130.332 16.6799 130.466 16.6799H131.212C131.316 16.6799 131.346 16.6799 131.346 16.7849V18.8999C131.689 18.3074 131.756 18.2099 131.898 17.9999C132.04 17.7899 132.279 17.3774 132.584 16.8899C132.719 16.7174 132.793 16.6499 132.995 16.6499H133.338C133.576 16.6499 133.718 16.7174 133.718 17.0324V20.1899C133.718 20.2949 133.718 20.2949 133.584 20.2949H132.838C132.734 20.2949 132.704 20.2949 132.704 20.1899V18.1049C132.495 18.4199 132.323 18.7649 132.114 19.0724C131.906 19.3799 131.704 19.7624 131.458 20.0774C131.212 20.3924 131.249 20.3174 131.048 20.3174H130.734C130.421 20.3174 130.354 20.1824 130.354 19.9349L130.332 16.7849ZM136.993 18.9374H136.508C136.195 18.9374 135.993 19.0049 135.889 19.3499C135.784 19.6949 135.717 19.9049 135.65 20.1824C135.65 20.3174 135.516 20.3174 135.411 20.3174H134.725C134.658 20.3174 134.621 20.3174 134.621 20.2499V20.1824L134.934 19.2449C134.957 19.1123 135.018 18.9894 135.11 18.8909C135.201 18.7924 135.319 18.7226 135.449 18.6899C135.256 18.6377 135.089 18.5186 134.975 18.3539C134.862 18.1891 134.81 17.9894 134.83 17.7899C134.833 17.6353 134.87 17.4831 134.936 17.3433C135.002 17.2035 135.096 17.0792 135.213 16.9781C135.329 16.8772 135.466 16.8018 135.613 16.7569C135.76 16.712 135.915 16.6985 136.068 16.7174H137.619C137.858 16.7174 138 16.8224 138 16.9949V20.2499C138 20.3174 138 20.3549 137.866 20.3549H137.12C136.985 20.3549 136.985 20.3549 136.985 20.2499L137.053 18.9299L136.993 18.9374ZM136.247 18.2774H136.993V17.4449H136.247C136.188 17.4388 136.128 17.4446 136.072 17.4622C136.015 17.4798 135.962 17.5087 135.917 17.5472C135.872 17.5858 135.834 17.6331 135.808 17.6864C135.781 17.7398 135.766 17.7979 135.762 17.8574C135.762 18.1049 135.963 18.2774 136.307 18.2774H136.247ZM49.9783 3.22494C50.1126 3.22494 50.1499 3.29244 50.1126 3.43494L47.6659 10.2299C47.5482 10.7403 47.2469 11.189 46.82 11.4894C46.3931 11.7899 45.8707 11.921 45.3535 11.8574C44.9663 11.861 44.5811 11.8028 44.2122 11.6849C44.0033 11.6174 43.9735 11.5799 44.0033 11.4074L44.1749 10.4024C44.1749 10.2299 44.2793 10.2299 44.4509 10.2674C44.6694 10.283 44.8887 10.283 45.1073 10.2674C45.622 10.2674 45.898 10.1999 46.0696 9.67494L46.2411 9.15744H45.9502C45.5698 9.15744 45.4653 9.08994 45.2938 8.63994L43.1902 3.38994C43.1231 3.21744 43.1902 3.14994 43.3618 3.14994H44.7567C45.0327 3.14994 45.0998 3.14994 45.1371 3.38994L46.0323 5.81994L46.6887 7.79994H46.7558L47.375 5.72244L48.1209 3.39744C48.1881 3.18744 48.2552 3.15744 48.5013 3.15744L49.9783 3.22494ZM52.2535 13.9049C52.2535 14.0774 52.2535 14.1149 52.0148 14.1149H50.7839C50.6124 14.1149 50.5452 14.1149 50.5452 13.9049V6.06744C50.5357 5.98584 50.5541 5.90349 50.5975 5.83389C50.6409 5.76429 50.7067 5.71171 50.7839 5.68494C51.6163 5.35059 52.506 5.18491 53.4022 5.19744C55.64 5.19744 56.386 6.65244 56.386 8.45994C56.386 10.2674 55.4909 11.7224 53.5887 11.7224C53.1375 11.7271 52.6873 11.6819 52.246 11.5874L52.2535 13.9049ZM53.2008 6.74994C52.897 6.74401 52.5944 6.78961 52.3057 6.88494V10.1249C52.6319 10.2119 52.9678 10.2572 53.3052 10.2599C54.0959 10.2599 54.6479 9.77244 54.6479 8.45994C54.6479 7.14744 54.0586 6.74994 53.2008 6.74994ZM62.8981 11.3624C62.0975 11.6853 61.2391 11.8385 60.3768 11.8124C58.2359 11.8124 57.5795 10.9424 57.5795 9.80244C57.5795 8.66244 58.4075 7.64994 60.1008 7.64994H61.4137V7.47744C61.4137 7.02744 61.2421 6.64494 60.3768 6.64494C59.8047 6.65394 59.2358 6.73456 58.6835 6.88494C58.4746 6.88494 58.4075 6.88494 58.3702 6.71244L58.1837 5.86494C58.1837 5.69244 58.1837 5.62494 58.318 5.58744C59.065 5.34669 59.8461 5.23014 60.6304 5.24244C62.3536 5.24244 63.1517 5.99244 63.1517 7.49244V10.9574C63.1514 11.0402 63.1263 11.1209 63.0797 11.1891C63.0332 11.2573 62.9673 11.3099 62.8906 11.3399L62.8981 11.3624ZM61.4062 8.82744H60.4738C60.0262 8.82744 59.4071 8.89494 59.4071 9.65994C59.4071 10.2149 59.8173 10.4099 60.4439 10.4099C60.7844 10.4093 61.1223 10.351 61.4435 10.2374V8.81244L61.4062 8.82744ZM69.6489 5.39244C70.2009 5.39244 70.3949 5.63244 70.3949 6.14244V11.4824C70.3949 11.6549 70.3277 11.7224 70.1189 11.7224H68.9104C68.7016 11.7224 68.6344 11.6549 68.6344 11.4824V6.74994H67.1351V7.37244C66.9635 10.1849 66.7546 11.2949 64.8972 11.8724C64.6884 11.9399 64.5839 11.8724 64.5541 11.7374L64.2408 10.9049C64.1737 10.6949 64.1737 10.6274 64.3751 10.5224C65.2031 10.1399 65.3746 9.77244 65.5462 7.33494L65.5835 5.99994C65.5835 5.48244 65.7924 5.30994 66.3295 5.30994H69.6788L69.6489 5.39244ZM72.752 11.6699C72.1329 11.6699 72.0061 11.3924 72.0061 10.9799V5.58744C72.0061 5.41494 72.0732 5.34744 72.2821 5.34744H73.4532C73.6919 5.34744 73.7292 5.34744 73.7292 5.58744V7.31994H75.2211C77.5634 7.31994 77.7723 8.81994 77.7723 9.47244C77.7596 9.76869 77.6895 10.0595 77.5649 10.3282C77.4403 10.5969 77.2635 10.8383 77.0465 11.0383C76.8286 11.2383 76.5735 11.3931 76.296 11.4938C76.0193 11.5945 75.7246 11.639 75.43 11.6249H72.7744L72.752 11.6699ZM75.1689 8.66994H73.7516V10.2974H75.1316C75.2435 10.3107 75.3569 10.2983 75.4636 10.2611C75.5702 10.2239 75.6665 10.163 75.7463 10.0829C75.8261 10.0028 75.8865 9.90556 75.9238 9.79854C75.9604 9.69151 75.973 9.57744 75.9596 9.46494C75.9663 9.35881 75.9499 9.25254 75.9126 9.15309C75.8753 9.05364 75.8171 8.96334 75.7425 8.88819C75.668 8.81296 75.5777 8.75469 75.4792 8.71704C75.38 8.67939 75.2741 8.66334 75.1689 8.66994ZM83.3743 9.95244C83.5832 9.88494 83.613 9.88494 83.6876 10.0574L84.0308 10.9574C84.0979 11.1299 84.0979 11.1974 83.9636 11.3024C83.2684 11.6462 82.5001 11.8136 81.7258 11.7899C79.8609 11.7899 78.8613 10.6799 78.8613 8.52744C78.8613 6.37494 80.0026 5.19744 81.8451 5.19744C82.4993 5.19039 83.1468 5.33131 83.7398 5.60994C83.9487 5.71494 83.9487 5.74494 83.8741 5.95494L83.5459 6.89994C83.4787 7.07244 83.3743 7.07244 83.1655 7.00494C82.788 6.87399 82.3934 6.80311 81.9943 6.79494C81.0619 6.79494 80.6815 7.62744 80.6815 8.56494C80.6815 9.50244 80.9575 10.2674 82.0242 10.2674C82.4844 10.2276 82.9365 10.1215 83.3669 9.95244H83.3743ZM86.8206 11.6549H85.5077C85.3735 11.6549 85.2989 11.6549 85.2989 11.4824V5.54994C85.2989 5.37744 85.366 5.37744 85.5077 5.37744H86.8206C86.9922 5.37744 87.0294 5.37744 87.0294 5.54994V7.62744H87.5815C87.8164 7.64199 88.0477 7.56886 88.2327 7.42216C88.4169 7.27546 88.5407 7.06546 88.581 6.83244L88.9913 5.51244C89.0002 5.46346 89.0264 5.41921 89.0644 5.38764C89.1024 5.35606 89.1509 5.33911 89.2002 5.33994H90.513C90.5391 5.33514 90.566 5.33829 90.5906 5.34894C90.6152 5.35951 90.6354 5.37721 90.6503 5.39971C90.6644 5.42221 90.6719 5.44854 90.6712 5.47524C90.6712 5.50201 90.6622 5.52796 90.6473 5.54994L90.1997 7.10994C90.1542 7.35189 90.055 7.58026 89.9088 7.77781C89.7633 7.97529 89.5739 8.13676 89.3568 8.24994C89.6201 8.31046 89.8588 8.44839 90.0438 8.64609C90.2281 8.84379 90.3504 9.09226 90.3937 9.35994L91.0128 11.4374C91.0128 11.5049 91.0128 11.6474 90.8412 11.6474H89.4612C89.4157 11.6564 89.3687 11.6474 89.3299 11.6222C89.2912 11.5971 89.2628 11.5577 89.2524 11.5124L88.7004 9.67494C88.6377 9.46209 88.5042 9.27736 88.3222 9.15174C88.1402 9.02611 87.9209 8.96724 87.7008 8.98494H87.0145V11.4824C87.0071 11.6174 86.9698 11.6549 86.7982 11.6549H86.8206ZM92.2734 5.54994C92.2734 5.41494 92.3406 5.37744 92.4823 5.37744H93.7579C93.9295 5.37744 93.9966 5.37744 93.9966 5.54994V9.22494H94.0637C94.6829 8.18244 94.8097 8.00994 94.9962 7.72494C95.3095 7.23744 95.6526 6.65244 96.1673 5.78244C96.2396 5.65096 96.3485 5.54424 96.4821 5.47599C96.6148 5.40781 96.7648 5.38134 96.9132 5.39994H97.5025C97.9501 5.39994 98.159 5.53494 98.159 6.05994V11.5049C98.159 11.6774 98.0918 11.6774 97.9501 11.6774H96.6745C96.503 11.6774 96.4358 11.6774 96.4358 11.5049V7.87494H96.3687L95.3318 9.53994L94.1831 11.2499C93.9742 11.5949 93.8399 11.6324 93.4371 11.6324H92.8851C92.3331 11.6324 92.2287 11.3924 92.2287 10.9724L92.2734 5.54994ZM99.8299 5.54994C99.8299 5.41494 99.897 5.37744 100.039 5.37744H101.314C101.486 5.37744 101.553 5.37744 101.553 5.54994V9.22494H101.62C102.239 8.18244 102.366 8.00994 102.553 7.72494C102.866 7.23744 103.209 6.65244 103.724 5.78244C103.796 5.65096 103.905 5.54424 104.039 5.47599C104.171 5.40781 104.321 5.38134 104.47 5.39994H105.059C105.507 5.39994 105.715 5.53494 105.715 6.05994V11.5049C105.715 11.6774 105.648 11.6774 105.507 11.6774H104.231C104.059 11.6774 103.992 11.6774 103.992 11.5049V7.87494H103.925L102.888 9.53994L101.74 11.2499C101.531 11.5949 101.396 11.6324 100.994 11.6324H100.442C99.8896 11.6324 99.7851 11.3924 99.7851 10.9724V5.54994H99.8299ZM100.516 3.39744C100.516 3.39744 100.412 3.26244 100.516 3.11994L101.001 2.66994C101.173 2.53494 101.173 2.60244 101.314 2.66994C101.495 2.90191 101.72 3.09504 101.977 3.23806C102.233 3.38101 102.515 3.47094 102.806 3.50244C103.187 3.50244 103.552 3.39744 104.298 2.66994C104.47 2.53494 104.47 2.56494 104.574 2.66994L105.022 3.05244C105.193 3.18744 105.126 3.26244 105.022 3.32994C104.774 3.74169 104.432 4.08834 104.025 4.34131C103.618 4.59429 103.157 4.74631 102.679 4.78494C102.224 4.74654 101.784 4.60089 101.396 4.35984C101.007 4.11879 100.68 3.78909 100.442 3.39744H100.516ZM110.072 10.8974V4.09494C110.072 3.53994 110.243 3.26244 110.818 3.26244H115.472C115.644 3.26244 115.681 3.32994 115.681 3.53994V4.61244C115.681 4.78494 115.681 4.85244 115.472 4.85244H111.892V6.35244H113.615C116.442 6.35244 116.651 8.25744 116.651 9.05994C116.643 9.42444 116.561 9.78354 116.411 10.1155C116.261 10.4474 116.046 10.7454 115.778 10.9914C115.51 11.2374 115.196 11.4263 114.854 11.5468C114.512 11.6673 114.148 11.7168 113.787 11.6924H110.803C110.191 11.6549 110.057 11.4449 110.057 10.9274L110.072 10.8974ZM113.622 7.80744H111.892V10.0574H113.615C113.767 10.0673 113.92 10.0445 114.063 9.99031C114.206 9.93616 114.336 9.85194 114.444 9.74334C114.552 9.63474 114.635 9.50424 114.69 9.36054C114.744 9.21684 114.766 9.06324 114.756 8.90994C114.761 8.76054 114.735 8.61174 114.677 8.47374C114.62 8.33566 114.535 8.21154 114.426 8.10984C114.317 8.00814 114.187 7.93111 114.046 7.88416C113.905 7.83714 113.755 7.82124 113.608 7.83744L113.622 7.80744ZM123.044 11.3099C122.243 11.6328 121.385 11.786 120.522 11.7599C118.382 11.7599 117.725 10.8899 117.725 9.74994C117.725 8.60994 118.553 7.59744 120.246 7.59744H121.559V7.42494C121.559 6.97494 121.388 6.59244 120.522 6.59244C119.95 6.60144 119.381 6.68206 118.829 6.83244C118.62 6.83244 118.553 6.83244 118.516 6.65994L118.344 5.82744C118.344 5.65494 118.344 5.58744 118.479 5.54994C119.225 5.30919 120.007 5.19264 120.791 5.20494C122.514 5.20494 123.312 5.95494 123.312 7.45494V10.9199C123.318 11.0126 123.292 11.1046 123.239 11.1808C123.187 11.257 123.11 11.3131 123.021 11.3399L123.044 11.3099ZM121.552 8.77494H120.619C120.172 8.77494 119.553 8.84244 119.553 9.60744C119.553 10.1624 119.963 10.3574 120.59 10.3574C120.93 10.3568 121.268 10.2985 121.589 10.1849V8.75994L121.552 8.77494ZM126.415 11.6174H125.244C125.073 11.6174 124.968 11.5499 124.968 11.3774V5.58744C124.968 5.41494 125.035 5.34744 125.244 5.34744H126.415C126.654 5.34744 126.691 5.34744 126.691 5.58744V7.63494H128.929V5.58744C128.929 5.41494 128.996 5.34744 129.205 5.34744H130.376C130.615 5.34744 130.652 5.34744 130.652 5.58744V11.4149C130.652 11.6249 130.652 11.6549 130.376 11.6549H129.198C129.026 11.6549 128.922 11.5874 128.922 11.4149V8.99994H126.684V11.3924C126.684 11.6174 126.609 11.6549 126.408 11.6549L126.415 11.6174ZM133.8 11.6174H132.48C132.346 11.6174 132.271 11.6174 132.271 11.4449V5.54994C132.271 5.37744 132.338 5.37744 132.48 5.37744H133.793C133.964 5.37744 134.002 5.37744 134.002 5.54994V7.62744H134.554C134.789 7.64199 135.02 7.56886 135.205 7.42216C135.389 7.27546 135.513 7.06546 135.553 6.83244L135.964 5.51244C135.972 5.46346 135.998 5.41921 136.037 5.38764C136.075 5.35606 136.123 5.33911 136.172 5.33994H137.485C137.511 5.33514 137.538 5.33829 137.563 5.34894C137.587 5.35951 137.608 5.37721 137.622 5.39971C137.637 5.42221 137.644 5.44854 137.643 5.47524C137.643 5.50201 137.634 5.52796 137.619 5.54994L137.172 7.10994C137.129 7.35046 137.031 7.57794 136.888 7.77541C136.745 7.97281 136.559 8.13504 136.344 8.24994C136.607 8.31046 136.846 8.44839 137.031 8.64609C137.215 8.84379 137.338 9.09226 137.381 9.35994L138 11.4374C138 11.5049 138 11.6474 137.828 11.6474H136.448C136.403 11.6564 136.356 11.6474 136.317 11.6222C136.278 11.5971 136.25 11.5577 136.24 11.5124L135.687 9.67494C135.625 9.46209 135.491 9.27736 135.309 9.15174C135.127 9.02611 134.908 8.96724 134.688 8.98494H134.002V11.4824C133.994 11.6174 133.927 11.6549 133.785 11.6549L133.8 11.6174Z" fill="#8A8782"/>
<path d="M8.38443 20.535C7.00742 20.4907 5.70052 19.9138 4.73616 18.9246C3.77173 17.9354 3.22413 16.6101 3.20757 15.225V4.50003C3.20555 4.15773 3.33729 3.8284 3.5745 3.58285C3.81171 3.33738 4.13538 3.1954 4.47568 3.18753C3.55115 3.18445 2.64371 3.43855 1.85382 3.92163C1.06397 4.40478 0.422377 5.09815 0 5.92503V15.3675C0.828567 16.8888 2.03815 18.1658 3.50878 19.0722C4.97949 19.9786 6.66025 20.4829 8.38443 20.535Z" fill="#8A8782"/>
<path d="M4.47568 3.1875H7.64595C8.04756 3.15975 8.42374 2.97983 8.69847 2.68403C8.97321 2.38815 9.12598 1.99853 9.12598 1.59375C9.12598 1.18897 8.97321 0.79935 8.69847 0.503512C8.42374 0.207675 8.04756 0.02772 7.64595 0H4.47568C3.28865 0 2.15026 0.474105 1.3109 1.31805C0.471543 2.16195 0 3.30652 0 4.5V5.955C0.416917 5.12138 1.05644 4.42095 1.84696 3.93217C2.63744 3.4434 3.54764 3.18555 4.47568 3.1875Z" fill="#8A8782"/>
<path d="M28.9129 5.685C28.6292 4.09875 27.8028 2.6622 26.5768 1.62398C25.3507 0.585803 23.8022 0.01131 22.1994 0H14.173V15.225C14.1436 16.6593 13.5501 18.0234 12.5225 19.0187C11.4949 20.0138 10.1169 20.5592 8.69027 20.535H8.41427C6.68017 20.4888 4.98896 19.9832 3.51154 19.0693C2.03405 18.1553 0.822749 16.8655 0 15.33C0.060541 17.5913 1.00225 19.7382 2.62222 21.308C4.24212 22.8779 6.41066 23.7449 8.66043 23.7225C10.9324 23.7425 13.1197 22.8562 14.743 21.2579C16.3664 19.6595 17.2933 17.4793 17.3209 15.195V3.195H22.4977C24.8669 3.20925 27.1488 4.095 28.9129 5.685Z" fill="#8A8782"/>
<path d="M31.33 15.4726C31.3202 14.3266 31.073 13.1951 30.6042 12.1504C30.1355 11.1058 29.4553 10.1708 28.6073 9.40507C28.8854 8.63872 29.0244 7.82834 29.0175 7.01257C29.0261 6.56872 28.981 6.12547 28.8833 5.69257C27.1137 4.08637 24.8148 3.19649 22.4308 3.19507H22.2593C23.2288 3.24172 24.142 3.66659 24.805 4.37939C25.468 5.09219 25.8286 6.03682 25.81 7.01257C25.8042 7.26382 25.7817 7.51432 25.7428 7.76257C25.6467 8.25569 25.4595 8.72632 25.1908 9.15007C25.0693 9.30157 24.9821 9.47789 24.9351 9.66667C24.8881 9.85552 24.8825 10.0523 24.9187 10.2435C24.9549 10.4347 25.032 10.6157 25.1447 10.774C25.2574 10.9322 25.4029 11.064 25.5713 11.1601C26.0567 11.4032 26.4921 11.7366 26.8543 12.1426C27.7068 13.0803 28.1757 14.3071 28.1672 15.5776C28.1893 16.7808 27.7681 17.9497 26.9845 18.8595C26.2009 19.7692 25.1104 20.3553 23.9227 20.5051C25.5058 20.4623 27.0438 19.966 28.356 19.0745C29.6682 18.183 30.6999 16.9334 31.33 15.4726Z" fill="#8A8782"/>
<path d="M23.9444 20.4976C23.7732 20.5146 23.6009 20.5146 23.4297 20.4976H18.2529C18.0355 20.4826 17.8175 20.5126 17.6123 20.586C17.407 20.6593 17.2189 20.7742 17.0597 20.9236C16.9005 21.0731 16.7735 21.2539 16.6868 21.4548C16.5999 21.6556 16.5552 21.8723 16.5552 22.0913C16.5552 22.3103 16.5999 22.527 16.6868 22.7278C16.7735 22.9287 16.9005 23.1095 17.0597 23.259C17.2189 23.4084 17.407 23.5234 17.6123 23.5966C17.8175 23.67 18.0355 23.7001 18.2529 23.6851H23.3924C25.5142 23.6476 27.5362 22.7723 29.0213 21.2482C30.5065 19.7242 31.3355 17.6737 31.3293 15.5401V15.4351C30.7091 16.9008 29.6836 18.1569 28.3746 19.0543C27.0656 19.9516 25.5281 20.4525 23.9444 20.4976Z" fill="#8A8782"/>
</g>
<defs>
<clipPath id="clip0_141_3346">
<rect width="138" height="24" fill="white"/>
</clipPath>
</defs>
</svg>
