<svg width="144" height="30" viewBox="0 0 144 30" fill="none" xmlns="http://www.w3.org/2000/svg">
<g clip-path="url(#clip0_141_3352)">
<path d="M134.615 18.7143H131.678V15.8571H130.173V23.1429H131.678V20H134.615V23.1429H136.12V15.7857H134.615V18.7143ZM126.376 15.8571H124.657L121.72 23.2143H123.367L123.94 21.5714H127.093L127.666 23.2143H129.314L126.376 15.8571ZM124.37 20.2143L125.445 17.2857L126.52 20.2143H124.37ZM144 23.1429L140.776 19.1429L143.857 15.7857H141.994L139.343 18.9286V15.7857H137.839V23.1429H139.343V19.4286L142.137 23.1429H144ZM120.573 19.2857C120.143 18.8571 119.57 18.6429 118.997 18.5714H117.421V17.1429H120.645V15.8571H115.917V23.1429H118.997C119.284 23.1429 119.57 23.0714 119.857 23C120.143 22.9286 120.358 22.7143 120.573 22.5C120.788 22.2857 120.931 22.0714 121.075 21.7857C121.218 21.5 121.218 21.2143 121.218 20.9286C121.218 20.2857 120.931 19.7143 120.573 19.2857ZM119.284 21.6429C119.069 21.8571 118.854 21.9286 118.567 22H117.349V19.8571H118.567C118.711 19.8571 118.854 19.8571 118.997 19.9286C119.14 20 119.284 20.0714 119.355 20.1429C119.427 20.2143 119.57 20.3571 119.57 20.5C119.642 20.6429 119.642 20.7857 119.642 20.9286C119.642 21.1429 119.499 21.4286 119.284 21.6429ZM31.021 24.3571H27.5106L29.0867 21.5714L25.1464 14.6429H28.7285L30.8061 18.7143L32.812 14.6429H36.2508L31.021 24.3571ZM74.8658 24.3571H70.4956C68.1314 24.3571 66.1971 22.3571 66.1971 19.6429C66.1971 16.5 68.1314 14.6429 70.4956 14.6429H74.8658V17.0714H72.0717C70.424 17.0714 69.421 17.5714 69.421 19.5714C69.421 21.5714 70.3523 22 72.0717 22H74.8658V24.3571ZM86.2568 24.3571H83.0329V17.5L79.3792 24.3571H75.5106V14.6429H78.7344V21.2857L82.3882 14.6429H86.2568V24.3571ZM62.9016 14.6429H59.3912L55.9523 22.7143L52.5135 14.6429H48.9314L44.7762 24.4286H48.1434L48.8598 22.3571H52.4419L53.23 24.4286H58.5314L61.1106 17.3571L63.618 24.4286H66.9852L62.9016 14.6429ZM49.7911 20.1429L50.8658 17.3571L51.8688 20.1429H49.7911ZM43.1285 14.6429H36.5374V24.4286H39.6897V21.5714H43.1285C46.424 21.5714 46.424 18.6429 46.424 18C46.424 17.3571 46.424 14.6429 43.1285 14.6429ZM42.0538 19.1429H39.7613V17.0714H42.0538C42.412 17.0714 43.3434 17.0714 43.3434 18.0714C43.3434 19.0714 42.412 19.1429 42.0538 19.1429ZM93.3494 18.2857H90.1255V17H96.215V14.5714H86.9016V24.3571H93.3494C96.7165 24.3571 96.7165 22.3571 96.7165 21.2857C96.7165 20.2143 96.7165 18.3571 93.3494 18.2857ZM92.7762 22.1429H90.0538V20.5714H92.7762C93.4926 20.5714 93.4926 21.0714 93.4926 21.2857C93.4926 21.5 93.4926 22.1429 92.7762 22.1429ZM10.9613 9.71429C11.1762 9.71429 11.4628 9.71429 11.6777 9.78571L11.6061 3.14286H12.3941C12.3225 5.42857 12.4658 7.64286 12.6807 9.92857C14.5434 10.3571 16.2628 11.2857 17.624 12.7143C18.9852 14.1429 19.8449 15.8571 20.2031 17.7857C20.5613 19.7143 20.2747 21.6429 19.4867 23.4286C18.6986 25.2143 17.4091 26.6429 15.7613 27.7143C15.6897 27.6429 15.618 27.5 15.4747 27.3571C12.5374 23.6429 11.821 18.1429 11.6061 13.3571C12.0359 13.4286 12.3941 13.5 12.824 13.5714C13.4688 17.6429 15.2598 21.5 18.1255 24.5C19.1285 23.2857 19.7016 21.6429 19.5583 20.0714C19.4867 18.4286 18.7703 16.9286 17.6956 15.7857C16.4061 14.4286 14.83 13.4286 13.0389 13C12.1792 12.7857 11.3195 12.6429 10.4598 12.6429C9.6001 12.6429 8.66876 12.7857 7.80906 13C4.08369 13.9286 1.28966 16.8571 1.28966 20.3571C1.28966 21.8571 1.79115 23.2857 2.72249 24.5C5.58816 21.5 7.37921 17.6429 8.02398 13.5714C8.45384 13.5 8.81204 13.5 9.31354 13.3571C9.09861 18.2143 8.38219 23.6429 5.44488 27.2857C5.37324 27.4286 5.22995 27.5714 5.15831 27.6429C3.51055 26.5714 2.29264 25.0714 1.50458 23.2857C0.716521 21.5 0.501596 19.5714 0.859805 17.6429C1.21801 15.7143 2.14936 14 3.43891 12.6429C4.72846 11.2857 6.51951 10.2857 8.38219 9.92857C8.66876 5 8.59712 3.14286 8.59712 3.14286H9.38518L9.31354 9.78571C9.52846 9.71429 9.74339 9.64286 9.95831 9.71429V0H10.818C10.8897 0 10.8897 9.71429 10.9613 9.71429Z" fill="#8A8782"/>
<path d="M10.9613 13.2857C11.0329 17.9285 11.3911 23.6428 12.8956 27.5714C13.0389 28 13.2538 28.4285 13.5404 28.8571C12.5374 29.1428 11.5344 29.2857 10.5314 29.3571C9.52843 29.3571 8.52545 29.2143 7.52246 28.8571C7.80903 28.3571 8.02395 27.9285 8.23888 27.4285C9.60007 23.5714 9.95828 17.8571 10.0299 13.2857H10.9613ZM105.887 12.1428H106.531V26.8571H105.887V12.1428Z" fill="#8A8782"/>
</g>
<defs>
<clipPath id="clip0_141_3352">
<rect width="144" height="30" fill="white"/>
</clipPath>
</defs>
</svg>
