<svg width="97" height="36" viewBox="0 0 97 36" fill="none" xmlns="http://www.w3.org/2000/svg">
<g clip-path="url(#clip0_141_3344)">
<path d="M28.13 5.09861H4.9955L6.6736 0.5H29.779L28.13 5.09861ZM27.3055 7.38333H4.171L2.5026 11.9722H25.608L27.3055 7.38333ZM24.8029 14.2375H1.6781L0 18.8264H23.086L24.8029 14.2375Z" fill="#8A8782"/>
<path d="M83.1583 30.2987H87.3002C87.8919 30.3734 88.4933 30.2987 89.0491 30.0813C89.604 29.864 90.0967 29.511 90.4818 29.0543C91.0599 28.3065 91.3461 27.3733 91.2869 26.4293C91.3218 25.8281 91.2093 25.2275 90.9591 24.68C90.7088 24.1326 90.3286 23.655 89.8513 23.289C89.0763 22.783 88.1548 22.5503 87.2323 22.6279H83.1098V30.289L83.1583 30.2987ZM77.6972 34.9168V7.38344H95.5743L93.9932 12.0015H83.1583V18.0973H87.5718C91.1414 18.0973 92.9844 18.9529 94.2648 20.0418C95.1795 20.8575 95.8983 21.8694 96.3688 23.0022C96.8392 24.1351 97.0487 25.3597 96.9808 26.5848C97.0477 27.8987 96.7878 29.2086 96.2233 30.3966C95.6597 31.5846 94.81 32.6134 93.7507 33.3904C92.0241 34.5862 90.2296 34.9265 86.5727 34.9265L77.6972 34.9168ZM61.8571 34.9168V12.0015H53.9031V7.38344H75.9706L74.3895 12.0015H67.357V34.9459H61.8474L61.8571 34.9168ZM39.8381 18.389H42.9712C43.6215 18.4433 44.2764 18.3941 44.9112 18.2432C45.5615 18.0326 46.1216 17.6077 46.5003 17.0375C46.879 16.4673 47.0539 15.7855 46.9967 15.1029C47.0859 14.4247 46.9224 13.7374 46.5376 13.1723C46.1529 12.6074 45.5738 12.2044 44.9112 12.0404C44.2285 11.8783 43.5265 11.8129 42.8257 11.8459H39.9157V18.389H39.8381ZM39.8381 23.1529V30.3765H43.6502C44.6874 30.49 45.7287 30.2013 46.5602 29.5696C46.9508 29.2152 47.2586 28.7786 47.4614 28.2913C47.6644 27.8039 47.7574 27.2776 47.7339 26.7501C47.7543 25.9043 47.4989 25.0748 47.0064 24.3876C46.2013 23.3376 45.1828 23.1432 43.4853 23.1432H39.8478L39.8381 23.1529ZM48.6457 20.2362V20.3334C49.5818 20.7142 50.4519 21.2391 51.2259 21.889C52.0116 22.5405 52.6315 23.369 53.0359 24.3068C53.4404 25.2446 53.6179 26.2652 53.5539 27.2848C53.5539 31.057 51.5654 33.7793 48.2868 34.5765C46.9774 34.9008 45.6279 35.0318 44.2807 34.9654H34.3867V7.38344H43.1943C44.5956 7.33074 45.9978 7.46141 47.3653 7.77233C50.5469 8.62788 52.6324 10.8348 52.6324 14.3154C52.6596 15.1405 52.518 15.9625 52.2182 16.7315C51.9175 17.5003 51.4645 18.1998 50.8864 18.7876C50.2705 19.4145 49.5352 19.9105 48.7233 20.2459H48.6457V20.2362Z" fill="#8A8782"/>
</g>
<defs>
<clipPath id="clip0_141_3344">
<rect width="97" height="35" fill="white" transform="translate(0 0.5)"/>
</clipPath>
</defs>
</svg>
