<svg width="16" height="16" viewBox="0 0 16 16" fill="none" xmlns="http://www.w3.org/2000/svg">
<path d="M15.7332 12.5334C15.804 12.5334 15.8718 12.5053 15.9218 12.4553C15.9718 12.4053 15.9999 12.3374 15.9999 12.2667C15.9999 12.196 15.9718 12.1282 15.9218 12.0782C15.8718 12.0282 15.804 12.0001 15.7332 12.0001H15.4666C15.4666 11.8528 15.3472 11.7334 15.1999 11.7334C15.0527 11.7334 14.9333 11.8528 14.9333 12.0001H10.6667C10.6667 11.9293 10.6386 11.8615 10.5886 11.8115C10.5386 11.7615 10.4708 11.7334 10.4 11.7334C10.3293 11.7334 10.2615 11.7615 10.2115 11.8115C10.1615 11.8615 10.1334 11.9293 10.1334 12.0001H9.86673C9.79601 12.0001 9.72819 12.0282 9.67818 12.0782C9.62817 12.1282 9.60008 12.196 9.60008 12.2667C9.60008 12.3374 9.62817 12.4053 9.67818 12.4553C9.72819 12.5053 9.79601 12.5334 9.86673 12.5334H10.1334V13.3334H9.86673C9.71945 13.3334 9.60008 13.4528 9.60008 13.6C9.60008 13.7473 9.71945 13.8667 9.86673 13.8667H10.1334V14.1333H9.86673C9.79601 14.1333 9.72819 14.1614 9.67818 14.2114C9.62817 14.2615 9.60008 14.3293 9.60008 14.4C9.60008 14.4707 9.62817 14.5385 9.67818 14.5886C9.72819 14.6386 9.79601 14.6667 9.86673 14.6667H10.1334V15.4667H5.60009V13.2604C5.99455 13.4827 6.4396 13.5996 6.89238 13.6C8.40673 13.5782 9.6178 12.335 9.60002 10.8206C9.60824 9.76766 9.02028 8.80063 8.08167 8.32344C8.39066 7.90274 8.55623 7.39385 8.55394 6.87188C8.56322 5.71991 7.75515 4.72278 6.62623 4.49322C6.76687 4.18308 6.82853 3.84295 6.80571 3.50318C6.78289 3.16341 6.6763 2.83458 6.49545 2.54603C6.31462 2.25748 6.06515 2.01819 5.76932 1.84953C5.47349 1.68086 5.1405 1.58807 4.80007 1.57944C4.79217 1.57944 4.78454 1.58057 4.77667 1.58066C4.6347 0.662941 3.8395 -0.0106842 2.91095 0.000128327C1.98241 0.0109408 1.20314 0.702941 1.08258 1.62372C0.407343 1.75316 -0.0588049 2.37485 0.00616262 3.05935C0.0711302 3.74385 0.645932 4.26669 1.33351 4.26672H2.88789C2.91195 4.34341 2.94048 4.41862 2.97333 4.49197C1.84447 4.72231 1.0368 5.71982 1.04627 6.87191C1.04399 7.39388 1.20954 7.90276 1.51851 8.32347C0.579933 8.80069 -0.00802462 9.76769 0.000193984 10.8206C-0.0176182 12.335 1.19348 13.5782 2.70783 13.6C3.16061 13.5997 3.60567 13.4827 4.00012 13.2604V15.4667H0.266877C0.119598 15.4667 0.000225233 15.5861 0.000225233 15.7333C0.000225233 15.8806 0.119598 16 0.266877 16H15.7332C15.804 16 15.8718 15.9719 15.9218 15.9219C15.9718 15.8719 15.9999 15.8041 15.9999 15.7333C15.9999 15.6626 15.9718 15.5948 15.9218 15.5448C15.8718 15.4948 15.804 15.4667 15.7332 15.4667H15.4666V14.6667H15.7332C15.804 14.6667 15.8718 14.6386 15.9218 14.5886C15.9718 14.5386 15.9999 14.4708 15.9999 14.4C15.9999 14.3293 15.9718 14.2615 15.9218 14.2115C15.8718 14.1615 15.804 14.1334 15.7332 14.1334H15.4666V13.8667H15.7332C15.804 13.8667 15.8718 13.8386 15.9218 13.7886C15.9718 13.7386 15.9999 13.6708 15.9999 13.6001C15.9999 13.5293 15.9718 13.4615 15.9218 13.4115C15.8718 13.3615 15.804 13.3334 15.7332 13.3334H15.4666V12.5334L15.7332 12.5334ZM2.78986 3.64119C2.78986 3.67216 2.79336 3.7026 2.79474 3.73338H1.33351C0.891709 3.73338 0.533528 3.37522 0.533528 2.93338C0.533528 2.49153 0.891709 2.13338 1.33351 2.13338C1.36854 2.13339 1.40322 2.12651 1.43559 2.11311C1.46795 2.09971 1.49736 2.08007 1.52212 2.0553C1.54689 2.03054 1.56653 2.00113 1.57993 1.96877C1.59333 1.9364 1.60021 1.90172 1.6002 1.86669C1.59882 1.17075 2.1339 0.591316 2.82774 0.537378C3.52157 0.483409 4.13977 0.973191 4.24602 1.66097C3.37629 1.92663 2.78421 2.73182 2.78986 3.64119ZM5.06679 15.4667H4.53345V12.8684C4.62902 12.7794 4.71813 12.6838 4.80011 12.5821C4.88207 12.6837 4.97118 12.7794 5.06676 12.8684L5.06679 15.4667ZM5.09916 12.0781L6.85529 10.3219C6.904 10.2716 6.93099 10.2042 6.93045 10.1342C6.9299 10.0642 6.90185 9.99727 6.85235 9.94778C6.80286 9.89828 6.73589 9.87023 6.66589 9.86969C6.5959 9.86914 6.5285 9.89613 6.47823 9.94485L5.06679 11.3563V8.64378L6.32195 7.3886C6.37122 7.33844 6.39868 7.27085 6.39837 7.20054C6.39805 7.13024 6.36999 7.0629 6.32027 7.01318C6.27056 6.96347 6.20322 6.9354 6.13292 6.93508C6.06261 6.93477 5.99502 6.96223 5.94487 7.0115L5.06676 7.88963V6.66672C5.06676 6.596 5.03866 6.52817 4.98866 6.47817C4.93865 6.42816 4.87083 6.40006 4.80011 6.40006C4.72939 6.40006 4.66156 6.42816 4.61155 6.47817C4.56155 6.52817 4.53345 6.596 4.53345 6.66672V7.88963L3.65535 7.0115C3.60504 6.96295 3.53769 6.9361 3.46778 6.93672C3.39788 6.93734 3.33101 6.96538 3.28157 7.01482C3.23214 7.06425 3.20409 7.13112 3.20347 7.20103C3.20285 7.27094 3.22971 7.33829 3.27826 7.3886L4.53342 8.64382V11.3563L3.12198 9.94485C3.07168 9.8963 3.00432 9.86944 2.93442 9.87006C2.86451 9.87068 2.79764 9.89873 2.74821 9.94816C2.69878 9.99759 2.67073 10.0645 2.67011 10.1344C2.66949 10.2043 2.69634 10.2716 2.74489 10.3219L4.50102 12.0781C4.3089 12.38 4.04399 12.6287 3.73065 12.8014C3.41731 12.9742 3.06557 13.0654 2.70777 13.0667C1.48785 13.0453 0.515341 12.0406 0.533465 10.8206C0.522153 9.85584 1.13195 8.99297 2.04516 8.68156C2.08856 8.66725 2.12756 8.64202 2.1584 8.60829C2.18924 8.57457 2.2109 8.53347 2.22128 8.48897C2.23166 8.44446 2.23043 8.39803 2.21769 8.35413C2.20496 8.31024 2.18115 8.27035 2.14856 8.23831C1.96713 8.06021 1.82329 7.8475 1.72555 7.61279C1.62782 7.37808 1.57818 7.12615 1.57957 6.87191C1.56213 5.85438 2.36684 5.01231 3.3841 4.98363C3.43795 4.98838 3.49201 4.97719 3.53954 4.95144C3.58707 4.92569 3.62598 4.88652 3.65141 4.83882C3.6737 4.79487 3.68336 4.7456 3.67929 4.69649C3.67522 4.64738 3.6576 4.60037 3.62838 4.56069C3.43072 4.29481 3.32372 3.97246 3.32316 3.64116C3.31016 2.81172 3.97071 2.12816 4.80007 2.11278C5.62947 2.12816 6.29002 2.81172 6.27699 3.64116C6.27642 3.97246 6.16943 4.29481 5.97177 4.56069C5.94315 4.60069 5.92622 4.64787 5.92289 4.69695C5.91955 4.74602 5.92994 4.79506 5.9529 4.83857C5.97602 4.88273 6.01081 4.91971 6.05349 4.94547C6.09617 4.97123 6.1451 4.98479 6.19496 4.98466C7.21959 5.0031 8.03611 5.84719 8.02058 6.87191C8.02196 7.12615 7.97232 7.37808 7.87458 7.61279C7.77685 7.84749 7.63301 8.0602 7.45159 8.23831C7.41897 8.27034 7.39514 8.31022 7.38239 8.35412C7.36964 8.39802 7.3684 8.44447 7.37879 8.48899C7.38917 8.5335 7.41083 8.5746 7.44169 8.60833C7.47255 8.64206 7.51157 8.66728 7.55499 8.68156C8.57916 9.03969 9.20349 10.076 9.04137 11.1488C8.87925 12.2216 7.97664 13.0272 6.89238 13.0667C6.53458 13.0654 6.18285 12.9742 5.86952 12.8014C5.55618 12.6287 5.29128 12.3799 5.09916 12.0781ZM14.9333 15.4667H10.6667V14.6667H14.9333V15.4667ZM14.9333 14.1334H10.6667V13.8667H14.9333V14.1334ZM14.9333 13.3334H10.6667V12.5334H14.9333V13.3334ZM11.4667 6.66672H14.6666C15.3542 6.66669 15.929 6.14385 15.994 5.45935C16.0589 4.77485 15.5928 4.15316 14.9175 4.02375C14.7955 3.09469 14.0037 2.40007 13.0666 2.40007C12.1296 2.40007 11.3378 3.09469 11.2158 4.02375C10.5405 4.15316 10.0744 4.77485 10.1393 5.45935C10.2043 6.14385 10.7791 6.66669 11.4667 6.66672ZM11.4667 4.53338C11.5017 4.53339 11.5364 4.52651 11.5687 4.51311C11.6011 4.49971 11.6305 4.48007 11.6553 4.4553C11.68 4.43054 11.6997 4.40113 11.7131 4.36877C11.7265 4.3364 11.7334 4.30172 11.7334 4.26669C11.7334 3.53032 12.3303 2.93335 13.0667 2.93335C13.803 2.93335 14.4 3.53028 14.4 4.26669C14.4 4.30172 14.4069 4.3364 14.4203 4.36877C14.4337 4.40113 14.4533 4.43054 14.4781 4.4553C14.5028 4.48007 14.5322 4.49971 14.5646 4.51311C14.597 4.52651 14.6316 4.53339 14.6667 4.53338C15.1085 4.53338 15.4667 4.89156 15.4667 5.33338C15.4667 5.77519 15.1085 6.13338 14.6667 6.13338H11.4667C11.0249 6.13338 10.6667 5.77522 10.6667 5.33338C10.6667 4.89153 11.0248 4.53338 11.4667 4.53338Z" fill="#2F2D30"/>
</svg>
