<svg width="17" height="17" viewBox="0 0 17 17" fill="none" xmlns="http://www.w3.org/2000/svg">
<path d="M16.5834 15.1647H14.8742C14.6831 15.1647 14.527 15.1224 14.3832 15.0318C13.865 14.7048 13.4522 13.6574 13.2055 13.0316C13.1778 12.9613 13.1501 12.8912 13.122 12.8211C12.7162 11.8061 12.2111 10.543 11.2078 9.89093C10.7586 9.59817 10.2479 9.44976 9.69013 9.44976H9.01867V6.55779C9.25726 6.55715 9.48129 6.46234 9.64943 6.29087C9.81843 6.11916 9.91163 5.89003 9.91186 5.6457C9.9121 5.40092 9.81903 5.17101 9.64946 4.99812L7.79344 3.112C7.77028 3.08845 7.7428 3.06979 7.71256 3.05707C7.68233 3.04436 7.64993 3.03785 7.61723 3.03791C7.58453 3.03797 7.55216 3.0446 7.52197 3.05742C7.49178 3.07024 7.46436 3.08901 7.44129 3.11264C7.4182 3.13626 7.3999 3.16429 7.38744 3.19512C7.37497 3.22595 7.36859 3.25899 7.36865 3.29234C7.3687 3.32568 7.37521 3.3587 7.38778 3.38948C7.40035 3.42027 7.41875 3.44823 7.44192 3.47176L9.29764 5.35754C9.33472 5.39526 9.36409 5.44011 9.38404 5.48949C9.40399 5.53888 9.41412 5.59181 9.41385 5.64522C9.41375 5.75371 9.37258 5.85522 9.29764 5.93141C9.14248 6.0896 8.8901 6.0896 8.73495 5.93141L5.13201 2.25804C5.10889 2.23446 5.08144 2.21575 5.05123 2.20299C5.02102 2.19023 4.98865 2.18366 4.95595 2.18366C4.92325 2.18366 4.89087 2.19023 4.86066 2.20299C4.83045 2.21575 4.80301 2.23446 4.77989 2.25804L1.17695 5.93141C1.14002 5.96918 1.09611 5.99911 1.04777 6.01946C0.999418 6.03981 0.947593 6.05017 0.895289 6.04995C0.843072 6.05012 0.790945 6.0397 0.742716 6.01929C0.694486 5.99888 0.650718 5.96889 0.613959 5.93107C0.539286 5.85522 0.498147 5.75371 0.498047 5.64522C0.49778 5.59181 0.507918 5.53888 0.527873 5.48949C0.547828 5.44011 0.577203 5.39526 0.614291 5.35754L4.67493 1.21643C4.74931 1.14031 4.84885 1.09833 4.9552 1.09822C5.06188 1.09822 5.16232 1.14031 5.2373 1.21677L6.67542 2.68343C6.77264 2.7826 6.93032 2.7826 7.02757 2.68343C7.12483 2.58425 7.12483 2.42348 7.02757 2.32431L5.58945 0.857647C5.42038 0.685265 5.19533 0.590354 4.9556 0.590354H4.95474C4.71518 0.590591 4.49049 0.685603 4.32245 0.857647L0.262139 4.99842C0.0928696 5.17104 -0.000231988 5.40089 4.34119e-07 5.6457C0.000232856 5.89 0.093434 6.11913 0.261774 6.29019C0.429881 6.46227 0.654069 6.55725 0.893198 6.55779V16.4921H0.249024C0.182979 16.4921 0.119639 16.5189 0.0729377 16.5665C0.0262368 16.6141 4.34119e-07 16.6787 4.34119e-07 16.746C4.34119e-07 16.8134 0.0262368 16.878 0.0729377 16.9256C0.119639 16.9732 0.182979 17 0.249024 17H16.5938C16.8178 17 17 16.8146 17 16.5867V15.5894C17 15.3552 16.8131 15.1647 16.5834 15.1647ZM1.99345 16.4921H1.39124V11.2851H1.99345V16.4921ZM3.7055 16.4921H2.4915V11.2851H3.7055V16.4921ZM5.70835 16.4921H4.20355V15.6812H5.70835V16.4921ZM5.70835 15.1733H4.20355V14.2165H5.70835V15.1733ZM5.70835 13.7086H4.20355V12.7508H5.70835V13.7086ZM5.70835 12.2429H4.20355V11.2851H5.70835V12.2429ZM6.20341 10.7772H3.70846V9.51843C3.70846 8.81695 4.26806 8.24623 4.95593 8.24623C5.6438 8.24623 6.20341 8.81695 6.20341 9.51843V10.7772ZM7.41944 16.4921H6.20639V11.2851H7.41944V16.4921ZM6.70145 10.7772V9.51843C6.70145 8.53689 5.91842 7.73833 4.95593 7.73833C3.99344 7.73833 3.21041 8.53686 3.21041 9.51843V10.7772H1.39124V6.40582C1.44083 6.37214 1.48701 6.33352 1.5291 6.29053L4.95593 2.79672L8.38273 6.29053C8.42485 6.33352 8.47104 6.37215 8.52062 6.40586V10.7772H6.70145ZM9.01867 16.4921V14.811C9.01867 14.7437 8.99243 14.6791 8.94573 14.6315C8.89903 14.5838 8.83569 14.5571 8.76964 14.5571C8.7036 14.5571 8.64026 14.5838 8.59356 14.6315C8.54685 14.6791 8.52062 14.7437 8.52062 14.811V16.4921H7.91748V11.2851H8.52062V13.6391C8.52062 13.7064 8.54685 13.771 8.59356 13.8186C8.64026 13.8663 8.7036 13.893 8.76964 13.893C8.83569 13.893 8.89903 13.8663 8.94573 13.8186C8.99243 13.771 9.01867 13.7064 9.01867 13.6391V11.2851H9.69013C9.90413 11.2851 10.0787 11.3338 10.2396 11.4382C10.7668 11.7809 11.1594 12.7692 11.4191 13.4231C11.4513 13.504 11.4835 13.5847 11.5157 13.6656C11.9013 14.6346 12.3766 15.8287 13.2881 16.4921H9.01867ZM16.502 16.4921H14.8742C14.4428 16.4921 14.047 16.3806 13.698 16.1606C12.8274 15.6107 12.3757 14.4758 11.9772 13.4745C11.945 13.3938 11.9128 13.3132 11.8807 13.2324C11.5972 12.5186 11.1687 11.4399 10.5072 11.0098C10.2661 10.8533 9.99885 10.7772 9.69013 10.7772H9.01867V9.9576H9.69013C10.1514 9.9576 10.5718 10.0791 10.9399 10.319C11.8099 10.8844 12.262 12.0152 12.6609 13.0128C12.6886 13.0821 12.716 13.1515 12.7434 13.2209C13.0303 13.9488 13.4638 15.0489 14.1212 15.4638C14.3442 15.6042 14.5905 15.6725 14.8742 15.6725H16.502V16.4921ZM11.42 5.08544H15.0672C16.1329 5.08544 17 4.20162 17 3.11528C17 2.0284 16.1329 1.14417 15.0672 1.14417C15.0545 1.14417 15.0418 1.14431 15.0291 1.14458C14.6395 0.443976 13.9017 0 13.1038 0C11.8834 0 10.8906 1.01215 10.8906 2.25621C10.8906 2.30226 10.892 2.34862 10.8947 2.39497C10.3875 2.60765 10.0491 3.11115 10.0491 3.68732C10.0491 4.45825 10.6641 5.08544 11.42 5.08544ZM11.2206 2.82026C11.2819 2.80568 11.3354 2.76801 11.3706 2.71481C11.4057 2.66161 11.4198 2.59682 11.41 2.53346C11.3958 2.44175 11.3887 2.34906 11.3886 2.25621C11.3886 1.29221 12.158 0.507904 13.1038 0.507904C13.7669 0.507904 14.3766 0.903664 14.657 1.51609C14.679 1.56407 14.7151 1.60383 14.7604 1.62984C14.8056 1.65585 14.8577 1.6668 14.9093 1.66115C14.9617 1.65522 15.0144 1.65218 15.0671 1.65204C15.8583 1.65204 16.5019 2.30843 16.5019 3.11525C16.5019 3.92153 15.8583 4.57751 15.0671 4.57751H11.42C10.9387 4.57751 10.5472 4.17819 10.5472 3.68732C10.5472 3.27121 10.8241 2.91466 11.2206 2.82026Z" fill="#2F2D30"/>
<path d="M4.95593 4.72341C4.34533 4.72341 3.84854 5.23003 3.84854 5.85275C3.84854 6.47548 4.34533 6.98209 4.95593 6.98209C5.56654 6.98209 6.06332 6.47548 6.06332 5.85275C6.06332 5.23003 5.56654 4.72341 4.95593 4.72341ZM4.95593 6.47419C4.61995 6.47419 4.34659 6.19542 4.34659 5.85275C4.34659 5.51008 4.61995 5.23131 4.95593 5.23131C5.29191 5.23131 5.56528 5.51008 5.56528 5.85275C5.56528 6.19542 5.29191 6.47419 4.95593 6.47419Z" fill="#2F2D30"/>
</svg>
