<svg width="20" height="21" viewBox="0 0 20 21" fill="none" xmlns="http://www.w3.org/2000/svg">
<path d="M14.8449 9.69857C14.8868 9.64901 14.9133 9.58898 14.9214 9.52544C14.9295 9.4619 14.9187 9.39746 14.8904 9.33958C14.8618 9.28142 14.8166 9.23237 14.7601 9.19818C14.7036 9.16399 14.6382 9.14607 14.5715 9.14653H10.8638L11.0039 8.40485L14.7818 6.74536L14.4909 6.12898L10.5414 7.85959C10.4886 7.88312 10.4427 7.91896 10.4078 7.9639C10.373 8.00883 10.3502 8.06143 10.3416 8.11698L10.1418 9.13299H6.30792V9.09912C6.31564 8.41577 6.0855 7.74974 5.65446 7.20798C5.22342 6.66621 4.6165 6.28015 3.93113 6.11178C3.24577 5.94341 2.52175 6.0025 1.87531 6.27956C1.22888 6.55663 0.697547 7.0356 0.366636 7.63955C0.0357255 8.2435 -0.0755642 8.9374 0.0506375 9.60981C0.176839 10.2822 0.53321 10.8942 1.06253 11.3473C1.59184 11.8005 2.26339 12.0686 2.96933 12.1087C3.67528 12.1487 4.37466 11.9583 4.95518 11.568L8.76107 16.1198V19.4252L6.6093 20.3531C6.5366 20.3851 6.4774 20.4402 6.4415 20.5092C6.40561 20.5782 6.39518 20.6569 6.41195 20.7324C6.42872 20.8079 6.47168 20.8756 6.5337 20.9243C6.59573 20.9729 6.6731 20.9996 6.75299 21H11.47C11.5499 20.9996 11.6273 20.9729 11.6893 20.9243C11.7514 20.8756 11.7943 20.8079 11.8111 20.7324C11.8279 20.6569 11.8174 20.5782 11.7815 20.5092C11.7456 20.4402 11.6864 20.3851 11.6137 20.3531L9.46197 19.4252V16.1231L14.8449 9.69857ZM9.93858 13.9523L10.289 12.1946H11.8731L9.11152 15.4627L6.371 12.1946H9.55308L9.24118 13.827L9.93858 13.9523ZM13.8391 9.82388L12.4198 11.5172H10.3977L10.7236 9.82388H13.8391ZM9.68626 11.5172H5.80327L4.40147 9.82388H10.0122L9.68626 11.5172ZM3.15387 11.4529C2.67631 11.4469 2.21126 11.3045 1.81719 11.0438C1.42313 10.783 1.11766 10.4154 0.939205 9.98731C0.760746 9.5592 0.717267 9.08965 0.814237 8.63772C0.911207 8.18579 1.1443 7.77166 1.48419 7.44741C1.82408 7.12317 2.25559 6.9033 2.72446 6.81544C3.19332 6.72759 3.6786 6.77568 4.11926 6.95366C4.55991 7.13165 4.93627 7.43158 5.20099 7.81574C5.46571 8.1999 5.60698 8.65112 5.60702 9.11267V9.14653H3.65151C3.58486 9.14607 3.51945 9.16399 3.46297 9.19818C3.40648 9.23237 3.36126 9.28142 3.3326 9.33958C3.30431 9.39746 3.29357 9.4619 3.30163 9.52544C3.3097 9.58898 3.33623 9.64901 3.37815 9.69857L4.51361 11.0533C4.1111 11.3132 3.63799 11.4523 3.15387 11.4529ZM8.41062 20.3227L9.11152 20.0145L9.81242 20.3227H8.41062Z" fill="#2F2D30"/>
<path d="M2.10252 8.13052H2.80342V8.80787H2.10252V8.13052ZM2.10252 9.82388H2.80342V10.5012H2.10252V9.82388ZM3.85477 7.79185H4.55567V8.46919H3.85477V7.79185ZM12.9665 2.94209C12.7585 2.94209 12.5553 3.00168 12.3824 3.11332C12.2095 3.22496 12.0747 3.38364 11.9951 3.56929C11.9156 3.75495 11.8948 3.95923 11.9353 4.15632C11.9759 4.3534 12.076 4.53444 12.2231 4.67653C12.3701 4.81862 12.5574 4.91539 12.7614 4.95459C12.9653 4.9938 13.1767 4.97368 13.3688 4.89678C13.5609 4.81988 13.7251 4.68965 13.8406 4.52257C13.9562 4.35549 14.0178 4.15905 14.0178 3.9581V0.341103C14.0182 0.283719 14.0036 0.22717 13.9752 0.176767C13.9468 0.126363 13.9056 0.0837565 13.8555 0.0529473C13.8054 0.0221381 13.748 0.00413645 13.6888 0.000632119C13.6295 -0.00287221 13.5703 0.00823574 13.5167 0.0329132L10.7131 1.3097C10.6534 1.33715 10.603 1.38033 10.5677 1.43426C10.5324 1.48819 10.5135 1.55067 10.5133 1.6145V3.80232C10.3053 3.73161 10.0794 3.72593 9.86785 3.78608C9.65626 3.84623 9.4696 3.96917 9.3343 4.13749C9.19899 4.30581 9.12188 4.51099 9.11389 4.72399C9.1059 4.93699 9.16744 5.14703 9.28978 5.32438C9.41212 5.50172 9.58908 5.63739 9.79561 5.71219C10.0021 5.78699 10.2278 5.79712 10.4406 5.74116C10.6534 5.6852 10.8426 5.56597 10.9815 5.40036C11.1203 5.23474 11.2017 5.03113 11.2142 4.81833V1.83125L13.3169 0.876203V3.00305C13.2045 2.96362 13.086 2.94301 12.9665 2.94209ZM10.1629 5.08249C10.0936 5.08249 10.0258 5.06263 9.96817 5.02541C9.91054 4.9882 9.86562 4.93531 9.83909 4.87342C9.81257 4.81154 9.80563 4.74344 9.81915 4.67775C9.83267 4.61205 9.86605 4.55171 9.91506 4.50434C9.96407 4.45698 10.0265 4.42472 10.0945 4.41166C10.1625 4.39859 10.2329 4.4053 10.297 4.43093C10.361 4.45656 10.4157 4.49997 10.4543 4.55566C10.4928 4.61136 10.5133 4.67684 10.5133 4.74382C10.5133 4.83364 10.4764 4.91978 10.4107 4.9833C10.345 5.04681 10.2558 5.08249 10.1629 5.08249ZM12.9665 4.28323C12.8972 4.28323 12.8294 4.26337 12.7718 4.22615C12.7141 4.18894 12.6692 4.13604 12.6427 4.07416C12.6162 4.01228 12.6092 3.94418 12.6228 3.87849C12.6363 3.81279 12.6697 3.75244 12.7187 3.70508C12.7677 3.65772 12.8301 3.62546 12.8981 3.61239C12.9661 3.59933 13.0365 3.60603 13.1006 3.63167C13.1646 3.6573 13.2193 3.70071 13.2579 3.7564C13.2964 3.8121 13.3169 3.87757 13.3169 3.94456C13.3169 4.03438 13.28 4.12052 13.2143 4.18403C13.1486 4.24755 13.0594 4.28323 12.9665 4.28323ZM17.7992 0.449478C17.7195 0.466001 17.6482 0.508859 17.5977 0.570673C17.5472 0.632487 17.5205 0.709392 17.5223 0.788148V2.43409C17.3118 2.36216 17.083 2.35687 16.8692 2.419C16.6553 2.48113 16.4675 2.60745 16.3329 2.77965C16.1983 2.95185 16.124 3.16099 16.1206 3.37676C16.1173 3.59253 16.1851 3.80373 16.3143 3.97975C16.4435 4.15578 16.6273 4.28748 16.8391 4.35578C17.051 4.42407 17.2798 4.42542 17.4924 4.35962C17.7051 4.29382 17.8906 4.16429 18.022 3.98981C18.1534 3.81532 18.2238 3.60493 18.2232 3.38914V1.0557L20 0.679774L19.8528 0.00243288L17.7992 0.449478ZM17.1719 3.72781C17.1026 3.72781 17.0348 3.70795 16.9772 3.67073C16.9195 3.63352 16.8746 3.58063 16.8481 3.51874C16.8216 3.45686 16.8146 3.38876 16.8282 3.32307C16.8417 3.25737 16.8751 3.19703 16.9241 3.14966C16.9731 3.1023 17.0355 3.07004 17.1035 3.05697C17.1715 3.04391 17.2419 3.05061 17.306 3.07625C17.37 3.10188 17.4247 3.14529 17.4633 3.20098C17.5018 3.25668 17.5223 3.32215 17.5223 3.38914C17.5223 3.47896 17.4854 3.5651 17.4197 3.62861C17.354 3.69213 17.2648 3.72781 17.1719 3.72781Z" fill="#2F2D30"/>
</svg>
