<svg width="17" height="20" viewBox="0 0 17 20" fill="none" xmlns="http://www.w3.org/2000/svg">
<path d="M12.6018 2.05455C12.0231 1.90195 11.4749 2.26818 11.3227 2.81753C11.1399 3.58052 10.409 5.7474 9.43444 6.63247C9.1908 6.72403 8.5817 7.12078 6.6935 8.52468L5.26211 6.57143C5.01847 6.26623 4.62256 6.08312 4.2571 6.14416L3.09981 4.16039C3.80027 3.58052 3.95255 2.69545 3.46527 1.81039C2.91708 0.925324 1.63797 0.131818 0.724318 0.681168C-0.158876 1.2 -0.189332 2.69545 0.389313 3.67208C0.876593 4.4961 1.69888 4.86234 2.61253 4.4961L3.73936 6.41883C3.34345 6.78507 3.28254 7.36493 3.61754 7.82273L5.68848 10.661C6.05394 11.1494 6.75441 11.2409 7.24168 10.8442C7.78988 10.3558 8.09442 10.1117 8.2467 9.95909C8.64261 10.9052 8.76443 11.6682 8.36852 12.95C8.03351 14.0487 7.42441 15.1474 6.51077 15.8494C5.93212 16.3071 5.04893 16.9786 5.65803 17.9247C6.02349 18.5045 6.75441 18.6571 7.33305 18.2909C8.52079 17.5279 9.55626 16.2766 10.2263 14.8117C10.3176 16.3071 10.074 17.4058 9.55626 17.9247C9.09944 18.3825 9.06898 19.1455 9.55626 19.6338C10.0131 20.1221 10.7745 20.1221 11.2617 19.6338C13.6372 17.2838 12.5409 10.9052 11.2922 7.76169C12.6627 6.17467 13.3631 3.58052 13.424 3.27532C13.5154 2.78701 13.1804 2.20714 12.6018 2.05455ZM0.907048 3.36688C0.450223 2.57338 0.511133 1.50519 1.02887 1.2C1.63797 0.864285 2.58207 1.53571 2.97799 2.17662C3.43481 2.97013 3.06935 3.55 2.58207 3.85519C1.97297 4.19091 1.33342 4.06883 0.907048 3.36688ZM12.7845 3.18377C12.7236 3.48896 12.0231 6.08312 10.6526 7.54805C10.5613 7.63961 10.5308 7.76169 10.5917 7.88377C10.5917 7.91429 10.6222 7.91429 10.6222 7.94481C11.8099 10.8747 12.9063 17.1007 10.7745 19.237C10.5613 19.4507 10.1654 19.4507 9.92172 19.237C9.67808 18.9929 9.67808 18.6266 9.92172 18.3825C10.8049 17.4974 10.8658 15.7578 10.744 14.4455C10.744 14.2929 10.5917 14.1708 10.4395 14.1708H9.98263C9.86081 14.1708 9.73899 14.2318 9.70854 14.3539C9.09944 15.8188 8.09443 17.0396 6.93714 17.8026C6.66304 17.9857 6.29758 17.8942 6.11485 17.6195C5.84076 17.2227 6.11485 16.9175 6.81531 16.3377C7.85078 15.5442 8.52079 14.3234 8.88625 13.1331C9.43444 11.363 9.03853 10.6916 8.67307 9.53182C8.55125 9.25714 8.36852 9.16558 8.09442 9.28766C8.00306 9.31818 8.09442 9.28766 6.81531 10.3864C6.63258 10.539 6.29758 10.5084 6.17576 10.3253L4.10482 7.48701C3.95255 7.27338 4.01346 6.9987 4.19619 6.87662C4.37892 6.72403 4.68347 6.78507 4.80529 6.96818L6.4194 9.16558C6.51077 9.28766 6.72395 9.3487 6.84577 9.22662C8.03351 8.31104 9.40399 7.33442 9.67808 7.21234C9.73899 7.21234 9.76945 7.18182 9.83036 7.1513C11.1704 5.96104 11.9318 3.03117 11.9318 3.00065C11.9927 2.75649 12.2363 2.63442 12.4799 2.66493C12.6931 2.69545 12.8454 2.93961 12.7845 3.18377Z" fill="#2F2D30"/>
<path d="M7.60714 6.66299C8.67307 6.66299 9.55626 5.80844 9.55626 4.70974C9.55626 3.61104 8.67307 2.78701 7.60714 2.78701C6.54122 2.78701 5.65803 3.64156 5.65803 4.70974C5.65803 5.77792 6.54122 6.66299 7.60714 6.66299ZM7.60714 3.3974C8.33806 3.3974 8.94716 4.00779 8.94716 4.74026C8.94716 5.47273 8.33806 6.08312 7.60714 6.08312C6.87622 6.08312 6.26713 5.47273 6.26713 4.74026C6.26713 4.00779 6.87622 3.3974 7.60714 3.3974ZM15.2818 0.742207C14.6118 0.742207 14.0636 1.29156 14.0636 1.96299C14.0636 2.63442 14.6118 3.18377 15.2818 3.18377C15.9518 3.18377 16.5 2.63442 16.5 1.96299C16.5 1.29156 15.9518 0.742207 15.2818 0.742207ZM15.2818 2.57338C14.9468 2.57338 14.6727 2.2987 14.6727 1.96299C14.6727 1.62727 14.9468 1.3526 15.2818 1.3526C15.6168 1.3526 15.8909 1.62727 15.8909 1.96299C15.8909 2.2987 15.6168 2.57338 15.2818 2.57338Z" fill="#2F2D30"/>
</svg>
