<svg width="25" height="22" viewBox="0 0 25 22" fill="none" xmlns="http://www.w3.org/2000/svg">
<path d="M0.931152 21.4975V12.9864C0.967219 7.15999 5.35449 5.89417 8.95086 5.89417C12.5472 5.89417 16.9345 7.15999 16.9706 12.9838V21.4975H14.4279V12.9864C14.4485 11.0876 13.9203 7.34885 9.53308 6.7976C4.45282 6.15958 3.6104 10.8043 3.48159 12.1825C3.4584 12.4504 3.45067 12.7184 3.46356 12.9864L3.46871 21.5001H0.931152V21.4975Z" fill="#725D4C"/>
<path d="M9.05489 21.3428V12.8784C9.09053 7.08409 13.4248 5.82776 16.9777 5.82776C20.5306 5.82776 24.8648 7.08663 24.9005 12.8784V21.3453H22.3885V12.8784C22.4089 10.9901 21.8871 7.27191 17.5529 6.72369C12.534 6.08918 11.7018 10.7084 11.5745 12.079C11.5516 12.3455 11.544 12.6119 11.5567 12.8784L11.5618 21.3453H9.0498L9.05489 21.3428Z" fill="#8A8782"/>
<path d="M4.99268 21.3428V7.70586C5.02831 1.91405 9.36256 0.655182 12.9155 0.655182C16.4684 0.655182 20.8026 1.91405 20.8383 7.70586V21.3428H18.3263V7.70586C18.3466 5.81756 17.8249 2.09933 13.4907 1.55111C8.47687 0.9166 7.64209 5.53584 7.51738 6.90638C7.49448 7.17287 7.48684 7.43937 7.49957 7.70586L7.50466 21.3428H4.99268Z" fill="#E0DBC7"/>
</svg>
