<svg width="33" height="19" viewBox="0 0 33 19" fill="none" xmlns="http://www.w3.org/2000/svg">
<path d="M24.6469 10.918H23.8081C23.6828 10.92 23.5633 10.9697 23.4754 11.0563C23.3876 11.143 23.3383 11.2597 23.3383 11.3813C23.3383 11.5029 23.3876 11.6196 23.4754 11.7063C23.5633 11.7929 23.6828 11.8426 23.8081 11.8446H24.6469C24.9107 11.8446 25.1244 11.6372 25.1244 11.3813C25.1244 11.1254 24.9107 10.918 24.6469 10.918Z" fill="#BFA779"/>
<path d="M32.5908 8.2815C32.5877 8.20353 32.5784 8.12592 32.5629 8.04936L31.4931 2.79631C31.4931 2.79613 31.493 2.79594 31.493 2.79575L31.2807 1.75308C31.138 1.05278 30.5005 0.544434 29.7648 0.544434H1.57213C0.717622 0.544372 0.0224609 1.21893 0.0224609 2.04805V14.4292C0.0224609 15.2583 0.717622 15.9328 1.57213 15.9328H3.08453C3.31512 17.3911 4.61696 18.5116 6.18343 18.5116C7.74989 18.5116 9.05173 17.3912 9.28233 15.9328H10.512C10.6386 15.9328 10.76 15.884 10.8496 15.7971C10.9391 15.7103 10.9894 15.5924 10.9894 15.4695C10.9894 15.3467 10.9391 15.2288 10.8496 15.1419C10.76 15.0551 10.6386 15.0063 10.512 15.0063H9.28226C9.05167 13.548 7.74983 12.4275 6.18336 12.4275C4.6169 12.4275 3.31506 13.5479 3.08446 15.0063H1.57213C1.24415 15.0063 0.977353 14.7473 0.977353 14.4292V2.04805C0.977353 1.72981 1.24415 1.47088 1.57213 1.47088H29.7647C29.9013 1.47115 30.0337 1.51728 30.1392 1.60145C30.2448 1.68561 30.3171 1.80263 30.3438 1.93263L30.4436 2.42283H24.1746C23.7092 2.42283 23.3306 2.7902 23.3306 3.24176V8.23848C23.3306 8.70855 23.5625 9.1545 23.951 9.43132C24.8862 10.0979 26.9771 10.9217 31.6373 11.1256V14.2345C31.6373 14.6601 31.2804 15.0064 30.8417 15.0064H29.5301C29.2994 13.5481 27.9977 12.4276 26.4311 12.4276C24.8647 12.4276 23.5629 13.5481 23.3322 15.0064H12.7336C12.607 15.0064 12.4856 15.0552 12.396 15.1421C12.3065 15.229 12.2562 15.3468 12.2562 15.4697C12.2562 15.5925 12.3065 15.7104 12.396 15.7973C12.4856 15.8841 12.607 15.933 12.7336 15.933H23.3324C23.563 17.3913 24.8648 18.5118 26.4313 18.5118C27.9978 18.5118 29.2996 17.3913 29.5302 15.933H30.8419C31.8071 15.933 32.5923 15.1711 32.5923 14.2345V8.34007C32.5921 8.32054 32.5916 8.30101 32.5908 8.2815ZM6.18343 13.3541C7.38565 13.3541 8.36369 14.3031 8.36369 15.4696C8.36369 16.6361 7.38565 17.5851 6.18343 17.5851C4.98121 17.5851 4.00316 16.6361 4.00316 15.4696C4.00316 14.3031 4.98121 13.3541 6.18343 13.3541ZM26.4313 17.5851C25.229 17.5851 24.251 16.636 24.251 15.4695C24.251 14.3031 25.229 13.3541 26.4313 13.3541C27.6335 13.3541 28.6116 14.3031 28.6116 15.4695C28.6115 16.636 27.6335 17.5851 26.4313 17.5851ZM24.2855 8.23848V3.3494H30.6323L31.6261 8.22922C31.6279 8.23792 31.6288 8.24681 31.6301 8.25564C31.634 8.28137 31.6366 8.30736 31.6369 8.33334C31.6369 8.33563 31.6372 8.33785 31.6372 8.34007V10.1981C27.0124 9.9912 25.1944 9.16795 24.5164 8.6846C24.3719 8.58159 24.2855 8.41482 24.2855 8.23848Z" fill="#BFA779"/>
<path d="M10.8899 2.42281H2.89757C2.47766 2.42281 2.13606 2.75426 2.13606 3.16169V8.37476C2.13606 8.78219 2.47766 9.11364 2.89757 9.11364H10.8899C11.3098 9.11364 11.6514 8.78219 11.6514 8.37476V3.16169C11.6514 2.75426 11.3098 2.42281 10.8899 2.42281ZM6.41626 8.18712H3.09096V3.34933H6.41626V8.18712ZM10.6965 8.18712H7.37122V3.34933H10.6965V8.18712ZM21.3708 2.42281H13.3784C12.9585 2.42281 12.6169 2.75426 12.6169 3.16169V8.37476C12.6169 8.78219 12.9585 9.11364 13.3784 9.11364H21.3708C21.7907 9.11364 22.1324 8.78219 22.1324 8.37476V3.16169C22.1324 2.75426 21.7907 2.42281 21.3708 2.42281ZM21.1775 8.18712H17.8521V6.43131C17.8521 6.17541 17.6383 5.96802 17.3746 5.96802C17.1109 5.96802 16.8971 6.17541 16.8971 6.43131V8.18712H13.5718V3.34933H16.8971V4.27565C16.8971 4.3365 16.9095 4.39674 16.9335 4.45296C16.9575 4.50917 16.9926 4.56025 17.037 4.60327C17.0813 4.64629 17.1339 4.68041 17.1919 4.70369C17.2498 4.72697 17.3119 4.73895 17.3746 4.73894C17.4373 4.73895 17.4994 4.72697 17.5573 4.70369C17.6153 4.68041 17.6679 4.64629 17.7123 4.60327C17.7566 4.56025 17.7918 4.50917 17.8158 4.45296C17.8398 4.39674 17.8521 4.3365 17.8521 4.27565V3.34933H21.1775V8.18712Z" fill="#BFA779"/>
</svg>
