<svg width="39" height="19" viewBox="0 0 39 19" fill="none" xmlns="http://www.w3.org/2000/svg">
<path d="M31.6108 18.6642C29.4432 18.6642 27.6784 16.7954 27.6784 14.5C27.6784 12.5304 28.9965 10.8089 30.8199 10.4211L30.9664 11.1811C29.4871 11.499 28.4107 12.9026 28.4107 14.5078C28.4107 16.3766 29.846 17.8965 31.6108 17.8965C33.3756 17.8965 34.811 16.3766 34.811 14.5078C34.811 12.9103 33.7418 11.5145 32.2626 11.1888L32.409 10.4289C34.2251 10.8321 35.5359 12.5459 35.5359 14.5078C35.5432 16.7954 33.7784 18.6642 31.6108 18.6642ZM7.8697 18.6642C5.7021 18.6642 3.93726 16.7954 3.93726 14.5C3.93726 12.2047 5.7021 10.3358 7.8697 10.3358C10.0373 10.3358 11.8021 12.2047 11.8021 14.5C11.8021 16.7954 10.0373 18.6642 7.8697 18.6642ZM7.8697 11.1035C6.10486 11.1035 4.66955 12.6234 4.66955 14.4923C4.66955 16.3611 6.10486 17.881 7.8697 17.881C9.63454 17.881 11.0698 16.3611 11.0698 14.4923C11.0698 12.6234 9.63454 11.1035 7.8697 11.1035Z" fill="#BFA779"/>
<path d="M7.8697 16.7411C6.70534 16.7411 5.75336 15.733 5.75336 14.5C5.75336 13.2671 6.70534 12.259 7.8697 12.259C9.03405 12.259 9.98604 13.2671 9.98604 14.5C9.98604 15.733 9.03405 16.7411 7.8697 16.7411ZM7.8697 13.0344C7.10811 13.0344 6.48565 13.6936 6.48565 14.5C6.48565 15.3065 7.10078 15.9656 7.8697 15.9656C8.63861 15.9656 9.25374 15.3065 9.25374 14.5C9.25374 13.6936 8.63129 13.0344 7.8697 13.0344ZM31.5962 16.7411C30.4318 16.7411 29.4798 15.733 29.4798 14.5C29.4798 13.2671 30.4318 12.259 31.5962 12.259C32.7605 12.259 33.7125 13.2671 33.7125 14.5C33.7125 15.733 32.7605 16.7411 31.5962 16.7411ZM31.5962 13.0344C30.8346 13.0344 30.2121 13.6936 30.2121 14.5C30.2121 15.3065 30.8346 15.9656 31.5962 15.9656C32.3577 15.9656 32.9802 15.3065 32.9802 14.5C32.9802 13.6936 32.3577 13.0344 31.5962 13.0344ZM34.5327 10.1962H33.8223C33.1999 10.1962 32.6873 9.65343 32.6873 8.99429C32.6873 8.33515 33.1999 7.79233 33.8223 7.79233H34.5327C35.1551 7.79233 35.6677 8.33515 35.6677 8.99429C35.6677 9.65343 35.1551 10.1962 34.5327 10.1962ZM33.8223 8.56779C33.6027 8.56779 33.4196 8.76165 33.4196 8.99429C33.4196 9.22692 33.6027 9.42079 33.8223 9.42079H34.5327C34.7524 9.42079 34.9354 9.22692 34.9354 8.99429C34.9354 8.76165 34.7524 8.56779 34.5327 8.56779H33.8223ZM4.36931 15.64H1.95273C1.76965 15.64 1.61587 15.5004 1.58658 15.3065L1.052 11.2741C1.03736 11.1656 1.06665 11.0492 1.13988 10.9639C1.20578 10.8786 1.30831 10.8321 1.41815 10.8321H2.25297L3.14637 6.17938C3.1537 6.14836 3.16102 6.11734 3.17567 6.09408L5.48241 0.921781C5.54099 0.789954 5.6728 0.696899 5.81194 0.696899H9.45879V1.47236H6.04628L3.8567 6.381L2.91204 11.2974C2.87542 11.4757 2.72896 11.6076 2.55321 11.6076H1.84288L2.27494 14.8645H4.36931V15.64Z" fill="#BFA779"/>
<path d="M38.1795 15.64H35.1039V14.8645H37.8134V12.1271C37.8134 9.48282 35.9387 7.30379 33.4562 7.05564L29.143 6.62139C29.0697 6.61363 28.9965 6.58262 28.9379 6.52833L24.6686 2.68207C23.8045 1.89886 22.6987 1.47236 21.5637 1.47236H10.9234V0.696899H21.5637C22.8745 0.696899 24.1487 1.19319 25.1446 2.09272L29.326 5.86144L33.5294 6.28019C34.9061 6.41977 36.1803 7.08666 37.1104 8.1723C38.0404 9.25794 38.553 10.6615 38.553 12.1271V15.2522C38.5457 15.4693 38.3846 15.64 38.1795 15.64ZM11.3628 14.8645H28.1104V15.64H11.3628V14.8645Z" fill="#BFA779"/>
<path d="M38.1795 13.9339H37.1543C36.5099 13.9339 35.9826 13.3756 35.9826 12.6932C35.9826 12.0108 36.5099 11.4525 37.1543 11.4525H38.1795C38.3846 11.4525 38.5457 11.6231 38.5457 11.8402V13.5462C38.5457 13.7633 38.3846 13.9339 38.1795 13.9339ZM37.1543 12.2279C36.9126 12.2279 36.7149 12.4373 36.7149 12.6932C36.7149 12.9491 36.9126 13.1585 37.1543 13.1585H37.8134V12.2279H37.1543ZM13.2082 6.66016H6.39778C6.27329 6.66016 6.16344 6.59037 6.09021 6.48181C6.02431 6.37324 6.00966 6.23366 6.06092 6.10959L7.59875 2.3176C7.65733 2.17802 7.78914 2.08497 7.9356 2.08497H12.842C13.0324 2.08497 13.1862 2.2323 13.2082 2.42617L13.5743 6.22591C13.5816 6.33447 13.5523 6.45079 13.4791 6.52833C13.4132 6.60588 13.3107 6.66016 13.2082 6.66016ZM6.95432 5.88471H12.8054L12.5125 2.86042H8.17726L6.95432 5.88471ZM26.8289 6.64465H14.746C14.5556 6.64465 14.4018 6.49732 14.3798 6.2957L14.0137 2.49596C14.0064 2.3874 14.0356 2.27883 14.1089 2.19353C14.1748 2.11598 14.2773 2.06946 14.3798 2.06946H20.9705C22.3838 2.06946 23.7313 2.63554 24.7565 3.65914L27.0779 5.97001C27.1877 6.07857 27.2243 6.24917 27.1658 6.39651C27.1145 6.5516 26.9754 6.64465 26.8289 6.64465ZM15.0755 5.8692H25.9062L24.2585 4.22523C23.3651 3.33345 22.2008 2.84491 20.9705 2.84491H14.7826L15.0755 5.8692ZM15.9177 8.13353H18.7736V8.90899H15.9177V8.13353ZM3.54182 15.64H1.95273C1.76965 15.64 1.61587 15.5004 1.58658 15.3065L1.052 11.2741C1.03736 11.1656 1.06665 11.0492 1.13988 10.9639C1.20578 10.8786 1.30831 10.8321 1.41815 10.8321H2.71432C3.37339 10.8321 3.90796 11.3982 3.90796 12.0961V15.2522C3.90796 15.4693 3.74686 15.64 3.54182 15.64ZM2.27494 14.8645H3.17567V12.0961C3.17567 11.8247 2.97062 11.6076 2.71432 11.6076H1.84288L2.27494 14.8645ZM4.27411 10.3048H2.80952C2.69967 10.3048 2.59715 10.2428 2.52392 10.1575C2.45801 10.0644 2.42872 9.9481 2.45069 9.83178L2.95598 7.20298C2.99259 7.02463 3.13905 6.8928 3.3148 6.8928H4.27411C4.47916 6.8928 4.64026 7.05564 4.64026 7.26502V9.90157C4.64026 10.1187 4.47916 10.3048 4.27411 10.3048ZM3.25622 9.52935H3.90796V7.66826H3.61505L3.25622 9.52935Z" fill="#BFA779"/>
<path d="M1.95273 15.64H4.36931V14.8645H2.27494M1.95273 15.64C1.76965 15.64 1.61587 15.5004 1.58658 15.3065L1.052 11.2741C1.03736 11.1656 1.06665 11.0492 1.13988 10.9639C1.20578 10.8786 1.30831 10.8321 1.41815 10.8321M1.95273 15.64H3.54182C3.74686 15.64 3.90796 15.4694 3.90796 15.2522V12.0961C3.90796 11.3982 3.37339 10.8321 2.71432 10.8321H1.41815M1.41815 10.8321H2.25297L3.14637 6.17938C3.1537 6.14836 3.16102 6.11734 3.17567 6.09408L5.48241 0.921781C5.54099 0.789954 5.6728 0.696899 5.81194 0.696899H9.45879V1.47236H6.04628L3.8567 6.381L2.91204 11.2974C2.87542 11.4757 2.72896 11.6076 2.55321 11.6076H1.84288M1.84288 11.6076L2.27494 14.8645M1.84288 11.6076H2.71432C2.97062 11.6076 3.17567 11.8247 3.17567 12.0961V14.8645H2.27494M31.6108 18.6642C29.4432 18.6642 27.6784 16.7954 27.6784 14.5C27.6784 12.5304 28.9965 10.8089 30.8199 10.4211L30.9664 11.1811C29.4871 11.499 28.4107 12.9026 28.4107 14.5078C28.4107 16.3766 29.846 17.8965 31.6108 17.8965C33.3756 17.8965 34.8109 16.3766 34.8109 14.5078C34.8109 12.9103 33.7418 11.5145 32.2626 11.1888L32.409 10.4289C34.2251 10.8321 35.5359 12.5459 35.5359 14.5078C35.5432 16.7954 33.7784 18.6642 31.6108 18.6642ZM7.8697 18.6642C5.70209 18.6642 3.93726 16.7954 3.93726 14.5C3.93726 12.2047 5.70209 10.3358 7.8697 10.3358C10.0373 10.3358 11.8021 12.2047 11.8021 14.5C11.8021 16.7954 10.0373 18.6642 7.8697 18.6642ZM7.8697 11.1035C6.10486 11.1035 4.66955 12.6234 4.66955 14.4923C4.66955 16.3611 6.10486 17.881 7.8697 17.881C9.63454 17.881 11.0698 16.3611 11.0698 14.4923C11.0698 12.6234 9.63454 11.1035 7.8697 11.1035ZM7.8697 16.7411C6.70534 16.7411 5.75336 15.733 5.75336 14.5C5.75336 13.2671 6.70534 12.259 7.8697 12.259C9.03405 12.259 9.98604 13.2671 9.98604 14.5C9.98604 15.733 9.03405 16.7411 7.8697 16.7411ZM7.8697 13.0344C7.10811 13.0344 6.48565 13.6936 6.48565 14.5C6.48565 15.3065 7.10078 15.9656 7.8697 15.9656C8.63861 15.9656 9.25374 15.3065 9.25374 14.5C9.25374 13.6936 8.63129 13.0344 7.8697 13.0344ZM31.5962 16.7411C30.4318 16.7411 29.4798 15.733 29.4798 14.5C29.4798 13.2671 30.4318 12.259 31.5962 12.259C32.7605 12.259 33.7125 13.2671 33.7125 14.5C33.7125 15.733 32.7605 16.7411 31.5962 16.7411ZM31.5962 13.0344C30.8346 13.0344 30.2121 13.6936 30.2121 14.5C30.2121 15.3065 30.8346 15.9656 31.5962 15.9656C32.3577 15.9656 32.9802 15.3065 32.9802 14.5C32.9802 13.6936 32.3577 13.0344 31.5962 13.0344ZM34.5327 10.1962H33.8223C33.1999 10.1962 32.6873 9.65343 32.6873 8.99429C32.6873 8.33515 33.1999 7.79233 33.8223 7.79233H34.5327C35.1551 7.79233 35.6677 8.33515 35.6677 8.99429C35.6677 9.65343 35.1551 10.1962 34.5327 10.1962ZM33.8223 8.56779C33.6027 8.56779 33.4196 8.76165 33.4196 8.99429C33.4196 9.22692 33.6027 9.42079 33.8223 9.42079H34.5327C34.7524 9.42079 34.9354 9.22692 34.9354 8.99429C34.9354 8.76165 34.7524 8.56779 34.5327 8.56779H33.8223ZM38.1795 15.64H35.1039V14.8645H37.8134V12.1271C37.8134 9.48282 35.9387 7.30379 33.4562 7.05565L29.143 6.62139C29.0697 6.61363 28.9965 6.58262 28.9379 6.52833L24.6686 2.68207C23.8045 1.89886 22.6987 1.47236 21.5637 1.47236H10.9234V0.696899H21.5637C22.8745 0.696899 24.1487 1.19319 25.1446 2.09272L29.326 5.86144L33.5294 6.28019C34.9061 6.41977 36.1803 7.08666 37.1104 8.1723C38.0404 9.25794 38.553 10.6615 38.553 12.1271V15.2522C38.5457 15.4694 38.3846 15.64 38.1795 15.64ZM11.3628 14.8645H28.1104V15.64H11.3628V14.8645ZM38.1795 13.9339H37.1543C36.5099 13.9339 35.9826 13.3756 35.9826 12.6932C35.9826 12.0108 36.5099 11.4525 37.1543 11.4525H38.1795C38.3846 11.4525 38.5457 11.6231 38.5457 11.8402V13.5462C38.5457 13.7633 38.3846 13.9339 38.1795 13.9339ZM37.1543 12.2279C36.9126 12.2279 36.7149 12.4373 36.7149 12.6932C36.7149 12.9491 36.9126 13.1585 37.1543 13.1585H37.8134V12.2279H37.1543ZM13.2082 6.66016H6.39778C6.27329 6.66016 6.16344 6.59037 6.09021 6.48181C6.02431 6.37324 6.00966 6.23366 6.06092 6.10959L7.59875 2.3176C7.65733 2.17802 7.78914 2.08497 7.9356 2.08497H12.842C13.0324 2.08497 13.1862 2.2323 13.2082 2.42617L13.5743 6.22591C13.5816 6.33447 13.5523 6.45079 13.4791 6.52833C13.4132 6.60588 13.3107 6.66016 13.2082 6.66016ZM6.95432 5.8847H12.8054L12.5125 2.86042H8.17726L6.95432 5.8847ZM26.8289 6.64465H14.746C14.5556 6.64465 14.4018 6.49732 14.3798 6.2957L14.0137 2.49596C14.0064 2.3874 14.0356 2.27883 14.1089 2.19353C14.1748 2.11598 14.2773 2.06946 14.3798 2.06946H20.9705C22.3838 2.06946 23.7313 2.63554 24.7565 3.65914L27.0779 5.97001C27.1877 6.07857 27.2243 6.24917 27.1658 6.39651C27.1145 6.5516 26.9754 6.64465 26.8289 6.64465ZM15.0755 5.8692H25.9062L24.2585 4.22523C23.3651 3.33345 22.2008 2.84491 20.9705 2.84491H14.7826L15.0755 5.8692ZM15.9177 8.13353H18.7736V8.90899H15.9177V8.13353ZM4.27411 10.3048H2.80952C2.69967 10.3048 2.59715 10.2428 2.52392 10.1575C2.45801 10.0644 2.42872 9.9481 2.45069 9.83178L2.95598 7.20298C2.99259 7.02463 3.13905 6.8928 3.3148 6.8928H4.27411C4.47916 6.8928 4.64026 7.05564 4.64026 7.26502V9.90157C4.64026 10.1187 4.47916 10.3048 4.27411 10.3048ZM3.25622 9.52935H3.90796V7.66826H3.61504L3.25622 9.52935Z" stroke="#8A8782" stroke-width="0.2"/>
</svg>
