<svg width="37" height="37" viewBox="0 0 37 37" fill="none" xmlns="http://www.w3.org/2000/svg">
<path d="M16.8916 9.25019C17.2116 9.25019 17.5185 9.37731 17.7448 9.60358C17.9711 9.82985 18.0982 10.1367 18.0982 10.4567V15.6851H23.3266C23.6466 15.6851 23.9534 15.8122 24.1797 16.0385C24.406 16.2648 24.5331 16.5717 24.5331 16.8916C24.5331 17.2116 24.406 17.5185 24.1797 17.7448C23.9534 17.9711 23.6466 18.0982 23.3266 18.0982H18.0982V23.3266C18.0982 23.6466 17.9711 23.9534 17.7448 24.1797C17.5185 24.406 17.2116 24.5331 16.8916 24.5331C16.5717 24.5331 16.2648 24.406 16.0385 24.1797C15.8122 23.9534 15.6851 23.6466 15.6851 23.3266V18.0982H10.4567C10.1367 18.0982 9.82985 17.9711 9.60358 17.7448C9.37731 17.5185 9.25019 17.2116 9.25019 16.8916C9.25019 16.5717 9.37731 16.2648 9.60358 16.0385C9.82985 15.8122 10.1367 15.6851 10.4567 15.6851H15.6851V10.4567C15.6851 10.1367 15.8122 9.82985 16.0385 9.60358C16.2648 9.37731 16.5717 9.25019 16.8916 9.25019Z" fill="#8A8782"/>
<path d="M0 16.8916C0 7.56263 7.56263 0 16.8916 0C26.2207 0 33.7833 7.56263 33.7833 16.8916C33.7833 21.1226 32.2277 24.9884 29.6585 27.9517L36.6468 34.9416C36.873 35.1677 37 35.4744 37 35.7942C37 36.114 36.873 36.4207 36.6468 36.6468C36.4207 36.873 36.114 37 35.7942 37C35.4744 37 35.1677 36.873 34.9416 36.6468L27.9517 29.6585C24.8841 32.324 20.9555 33.7891 16.8916 33.7833C7.56263 33.7833 0 26.2207 0 16.8916ZM16.8916 2.41309C13.0517 2.41309 9.36902 3.93851 6.65376 6.65376C3.93851 9.36902 2.41309 13.0517 2.41309 16.8916C2.41309 20.7316 3.93851 24.4143 6.65376 27.1295C9.36902 29.8448 13.0517 31.3702 16.8916 31.3702C20.7316 31.3702 24.4143 29.8448 27.1295 27.1295C29.8448 24.4143 31.3702 20.7316 31.3702 16.8916C31.3702 13.0517 29.8448 9.36902 27.1295 6.65376C24.4143 3.93851 20.7316 2.41309 16.8916 2.41309Z" fill="#8A8782"/>
</svg>
