<svg width="120" height="120" viewBox="0 0 120 120" fill="none" xmlns="http://www.w3.org/2000/svg">
<path d="M54 48.5H55V47.5V38.5H53V46.5H29V17H53V31H55V17H90V57H76.5V59H90V78H59.5V59H68.5V57H58.5H57.5V58V78H29V48.5H54Z" stroke="#BFA779" stroke-width="2"/>
<path d="M31.3811 89V104.842H29.3082V97.9052V90.9689H26V89H31.3811Z" fill="#BFA779"/>
<path d="M44.356 92.7115C45.4866 92.7115 46.5056 92.9755 47.413 93.5035C48.3342 94.0316 49.0531 94.7633 49.5696 95.6987C50.0861 96.6341 50.3443 97.6827 50.3443 98.8444C50.3443 100.021 50.0861 101.077 49.5696 102.013C49.0531 102.948 48.3342 103.68 47.413 104.208C46.5056 104.736 45.4866 105 44.356 105C43.3789 105 42.4925 104.834 41.6968 104.502C40.9151 104.17 40.2521 103.687 39.7077 103.054L40.8802 101.786C41.7736 102.737 42.9043 103.212 44.2722 103.212C45.361 103.212 46.2893 102.88 47.057 102.216C47.8247 101.537 48.2854 100.655 48.4389 99.5686H42.8694V97.9618H48.3971C48.2156 96.9208 47.748 96.0835 46.9942 95.4498C46.2404 94.801 45.3331 94.4767 44.2722 94.4767C42.9182 94.4767 41.7875 94.9595 40.8802 95.925L39.7077 94.6803C40.2521 94.0316 40.9221 93.5413 41.7178 93.2093C42.5134 92.8774 43.3928 92.7115 44.356 92.7115Z" fill="#BFA779"/>
<path d="M61.0577 94.7482H56.9956V104.842H54.9856V94.7482H50.9235V92.8472H61.0577V94.7482Z" fill="#BFA779"/>
<path d="M67.0704 92.7341C68.6058 92.7341 69.7784 93.1414 70.588 93.9562C71.4116 94.7709 71.8233 95.9854 71.8233 97.5997V104.842H69.918V103.257C69.583 103.816 69.1014 104.246 68.4732 104.547C67.859 104.834 67.1262 104.977 66.2747 104.977C65.0324 104.977 64.0343 104.653 63.2805 104.004C62.5407 103.355 62.1708 102.503 62.1708 101.447C62.1708 100.391 62.5268 99.546 63.2387 98.9123C63.9506 98.2636 65.0812 97.9392 66.6307 97.9392H69.8133V97.5092C69.8133 96.5738 69.562 95.8571 69.0595 95.3593C68.557 94.8614 67.8172 94.6124 66.84 94.6124C66.184 94.6124 65.5419 94.7331 64.9137 94.9745C64.2856 95.2008 63.7551 95.5101 63.3224 95.9024L62.4849 94.273C63.0572 93.7751 63.7412 93.3979 64.5368 93.1414C65.3325 92.8699 66.177 92.7341 67.0704 92.7341ZM66.6097 103.303C67.3775 103.303 68.0405 103.122 68.5989 102.76C69.1572 102.382 69.562 101.854 69.8133 101.175V99.5007H66.7144C65.0114 99.5007 64.16 100.119 64.16 101.356C64.16 101.96 64.3763 102.435 64.809 102.782C65.2418 103.129 65.842 103.303 66.6097 103.303Z" fill="#BFA779"/>
<path d="M85.5351 99.7723H83.3785V104.842H81.3684V99.7723H79.2118L76.1548 104.842H73.7678L77.5786 98.6407L74.061 92.8472H76.1967L79.1908 97.9165H81.3684V92.8472H83.3785V97.9165H85.5561L88.5502 92.8472H90.7069L87.1892 98.6634L91 104.842H88.613L85.5351 99.7723Z" fill="#BFA779"/>
<path d="M54.5 30H64.5C64.1667 33.1667 61.7 39.5 54.5 39.5" stroke="#BFA779"/>
<path d="M77 58L77 48C74 48.3333 68 50.8 68 58" stroke="#BFA779"/>
</svg>
