<svg width="120" height="120" viewBox="0 0 120 120" fill="none" xmlns="http://www.w3.org/2000/svg">
<path d="M54 48.5H55V47.5V38.5H53V46.5H29V17H53V31H55V17H90V57H76.5V59H90V78H59.5V59H68.5V57H58.5H57.5V58V78H29V48.5H54Z" stroke="#BFA779" stroke-width="2"/>
<path d="M44.3563 92.7114C45.487 92.7114 46.506 92.9755 47.4133 93.5035C48.3346 94.0316 49.0534 94.7633 49.5699 95.6987C50.0864 96.6341 50.3446 97.6827 50.3446 98.8444C50.3446 100.021 50.0864 101.077 49.5699 102.013C49.0534 102.948 48.3346 103.68 47.4133 104.208C46.506 104.736 45.487 105 44.3563 105C43.3792 105 42.4928 104.834 41.6971 104.502C40.9154 104.17 40.2524 103.687 39.708 103.054L40.8806 101.786C41.7739 102.737 42.9046 103.212 44.2725 103.212C45.3613 103.212 46.2896 102.88 47.0573 102.216C47.8251 101.537 48.2857 100.655 48.4393 99.5686H42.8697V97.9618H48.3974C48.2159 96.9208 47.7483 96.0834 46.9945 95.4498C46.2407 94.801 45.3334 94.4766 44.2725 94.4766C42.9185 94.4766 41.7879 94.9594 40.8806 95.925L39.708 94.6803C40.2524 94.0316 40.9224 93.5412 41.7181 93.2093C42.5137 92.8774 43.3931 92.7114 44.3563 92.7114Z" fill="#BFA779"/>
<path d="M61.058 94.7482H56.996V104.842H54.9859V94.7482H50.9239V92.8472H61.058V94.7482Z" fill="#BFA779"/>
<path d="M67.0707 92.7341C68.6062 92.7341 69.7787 93.1414 70.5883 93.9561C71.4119 94.7708 71.8237 95.9854 71.8237 97.5997V104.842H69.9183V103.257C69.5833 103.816 69.1017 104.246 68.4736 104.547C67.8594 104.834 67.1265 104.977 66.275 104.977C65.0327 104.977 64.0346 104.653 63.2809 104.004C62.5411 103.355 62.1711 102.503 62.1711 101.447C62.1711 100.391 62.5271 99.5459 63.239 98.9123C63.9509 98.2635 65.0816 97.9391 66.631 97.9391H69.8136V97.5092C69.8136 96.5738 69.5623 95.8571 69.0598 95.3592C68.5573 94.8614 67.8175 94.6124 66.8404 94.6124C66.1843 94.6124 65.5422 94.7331 64.9141 94.9745C64.2859 95.2008 63.7555 95.5101 63.3228 95.9024L62.4852 94.273C63.0575 93.7751 63.7415 93.3979 64.5372 93.1414C65.3328 92.8698 66.1773 92.7341 67.0707 92.7341ZM66.6101 103.303C67.3778 103.303 68.0408 103.122 68.5992 102.76C69.1575 102.382 69.5623 101.854 69.8136 101.175V99.5007H66.7147C65.0118 99.5007 64.1603 100.119 64.1603 101.356C64.1603 101.96 64.3766 102.435 64.8094 102.782C65.2421 103.129 65.8423 103.303 66.6101 103.303Z" fill="#BFA779"/>
<path d="M85.5354 99.7722H83.3788V104.842H81.3687V99.7722H79.2121L76.1551 104.842H73.7682L77.5789 98.6407L74.0613 92.8472H76.197L79.1912 97.9165H81.3687V92.8472H83.3788V97.9165H85.5564L88.5506 92.8472H90.7072L87.1896 98.6633L91.0003 104.842H88.6134L85.5354 99.7722Z" fill="#BFA779"/>
<path d="M35 103.034V105H23.5247V103.463L30.0266 97.2486C30.8175 96.4953 31.3498 95.8475 31.6236 95.3051C31.8973 94.7476 32.0342 94.1902 32.0342 93.6328C32.0342 92.8041 31.7376 92.1638 31.1445 91.7119C30.5665 91.2448 29.73 91.0113 28.635 91.0113C26.8707 91.0113 25.5095 91.5838 24.5513 92.7288L23 91.3955C23.6236 90.6422 24.4373 90.0546 25.4411 89.6328C26.4601 89.2109 27.5932 89 28.8403 89C30.5133 89 31.8441 89.3992 32.8327 90.1977C33.8213 90.9812 34.3156 92.0508 34.3156 93.4068C34.3156 94.2505 34.1331 95.049 33.7681 95.8023C33.403 96.5556 32.711 97.4143 31.692 98.3785L26.8099 103.034H35Z" fill="#BFA779"/>
<path d="M54.5 30H64.5C64.1667 33.1667 61.7 39.5 54.5 39.5" stroke="#BFA779"/>
<path d="M77 58L77 48C74 48.3333 68 50.8 68 58" stroke="#BFA779"/>
</svg>
